<?xml version="1.0" standalone="no"?>
<!DOCTYPE svg PUBLIC "-//W3C//DTD SVG 1.1//EN" "http://www.w3.org/Graphics/SVG/1.1/DTD/svg11.dtd" >
<svg>
<metadata>
Created by FontForge 20090914 at Wed Nov  5 10:40:06 2014
 By www-data
</metadata>
<defs>
<font id="Shadow-Regular" horiz-adv-x="656" >
  <font-face 
    font-family="Shadow"
    font-weight="400"
    font-stretch="normal"
    units-per-em="1000"
    panose-1="0 0 0 0 0 0 0 0 0 0"
    ascent="750"
    descent="-250"
    x-height="635"
    cap-height="638"
    bbox="-33.2244 -250.997 1003 845.051"
    underline-thickness="50"
    underline-position="-50"
    unicode-range="U+000D-U+201E"
  />
<missing-glyph horiz-adv-x="500" 
 />
    <glyph glyph-name=".notdef" horiz-adv-x="500" 
 />
    <glyph glyph-name="NULL" horiz-adv-x="0" 
 />
    <glyph glyph-name="NULL" horiz-adv-x="0" 
 />
    <glyph glyph-name="nonmarkingreturn" unicode="&#xd;" horiz-adv-x="500" 
 />
    <glyph glyph-name="space" unicode=" " horiz-adv-x="323" 
 />
    <glyph glyph-name="exclam" unicode="!" horiz-adv-x="270" 
d="M157 636c8.66699 -0.666992 15.8301 -1.49805 21.4971 -2.49805s9.83398 -2.83301 12.501 -5.5s4.33398 -6.66699 5.00098 -12s1 -12.333 1 -21c-0.666992 -17.333 -1.66699 -34.5 -3 -51.5s-3 -33.833 -5 -50.5l-15.5 -125.5l-15.5 -125.5
c-0.666992 -3.33301 -1 -6.5 -1 -9.5s-0.333008 -6.16699 -1 -9.5c-2 -11.333 -4.66699 -18.333 -8 -21s-11 -4 -23 -4c-14 0 -28 0.333008 -42 1s-28 1 -42 1c-10 0 -15 4 -15 12c-1.33301 14 -2.33301 27.833 -3 41.5l-2 40.5c-2.66699 52 -5 102.667 -7 152
s-4.33301 100 -7 152c0 2.66699 -0.166992 5.16699 -0.5 7.5s-0.5 4.83301 -0.5 7.5c0.666992 9.33301 2.33398 15.666 5.00098 18.999s8.66699 4.66602 18 3.99902h27h38h37.5h25.5zM86.9961 0.00195312c-22.667 0.666992 -41.9971 8 -57.9971 22s-23.667 30.667 -23 50
c0 12 2.5 23.167 7.5 33.5s11.5 19.5 19.5 27.5s17.167 14.333 27.5 19s21.166 7 32.499 7c10.667 0 21 -2.16699 31 -6.5s18.5 -10.166 25.5 -17.499s12.333 -15.833 16 -25.5s5.16699 -19.834 4.5 -30.501c-1.33301 -10 -3.83301 -19.833 -7.5 -29.5
s-8.83398 -18.334 -15.501 -26.001s-14.834 -13.667 -24.501 -18s-21.5 -6.16602 -35.5 -5.49902z" />
    <glyph glyph-name="quotedbl" unicode="&#x22;" horiz-adv-x="833" 
 />
    <glyph glyph-name="numbersign" unicode="#" horiz-adv-x="604" 
d="M298 1l-11.002 0.000976562c-9.33301 0 -16.666 0.5 -21.999 1.5s-9 2.83301 -11 5.5s-2.66699 6.66699 -2 12s2.33398 12.666 5.00098 21.999l6 22l6 22c2 10.667 -2 16.334 -12 17.001c-0.666992 0 -1.16699 0.166992 -1.5 0.5s-0.833008 0.5 -1.5 0.5
c-14.667 1.33301 -26.167 2 -34.5 2s-15.166 -1.66699 -20.499 -5s-9.83301 -8.83301 -13.5 -16.5s-7.83398 -18.167 -12.501 -31.5c0 -0.666992 -0.166992 -1.16699 -0.5 -1.5s-0.5 -1.16602 -0.5 -2.49902c-4 -7.33301 -7.83301 -15 -11.5 -23l-10.5 -24
c-13.333 0 -26.333 -0.166992 -39 -0.5s-25.334 -0.166016 -38.001 0.500977c-4.66699 0 -8 1.66699 -10 5s-2.33301 7.66602 -1 12.999c2.66699 8 5.16699 16 7.5 24s4.5 16 6.5 24c2.66699 9.33301 2.83398 15.333 0.500977 18s-8.5 4.66699 -18.5 6
c-6.66699 0.666992 -13.167 0.833984 -19.5 0.500977s-12.833 -0.5 -19.5 -0.5c-6 0.666992 -10.5 2.16699 -13.5 4.5s-3.83301 6.83301 -2.5 13.5c1.33301 5.33301 2.5 11 3.5 17s2.5 11.667 4.5 17l9.5 25.5c2.33301 6.33301 5.5 11 9.5 14s9.33301 4.83301 16 5.5
s15.667 1.33398 27 2.00098c10 0.666992 17.833 1.5 23.5 2.5s10.167 3 13.5 6s5.66602 7.33301 6.99902 13s2.66602 13.167 3.99902 22.5c0.666992 7.33301 0.166992 12.166 -1.5 14.499s-6.16699 3.5 -13.5 3.5h-46c-10.667 0 -14.334 5.66699 -11.001 17l10 30l10 30
c4 12.667 13 18.667 27 18c6 -0.666992 12 -0.833984 18 -0.500977s11.667 0.5 17 0.5c12 0.666992 19.5 2 22.5 4s6.5 8.66699 10.5 20c8 23.333 15 48 21 74c1.33301 4.66699 3 8.33398 5 11.001s5.66699 4 11 4c13.333 0 27 0.166992 41 0.5s27.667 0.5 41 0.5
c9.33301 0 12.333 -4.66699 9 -14l-24 -81c-2.66699 -9.33301 0.333008 -13.666 9 -12.999h28.5c9.66699 0 19.167 0.666992 28.5 2c13.333 0.666992 21.5 2.5 24.5 5.5s6.5 11.167 10.5 24.5l10 34l10 34c0.666992 2 2.16699 4.16699 4.5 6.5s4.5 3.5 6.5 3.5
c20.667 0.666992 41.667 0.666992 63 0c11.333 0 18.333 -1.66699 21 -5s2.33398 -10.666 -0.999023 -21.999c-3.33301 -10.667 -6.33301 -21.334 -9 -32.001s-5.66699 -21.334 -9 -32.001c-1.33301 -6 -1.33301 -10 0 -12s5.33301 -3 12 -3
c7.33301 0.666992 14.333 1.5 21 2.5s13.667 1.5 21 1.5c17.333 0.666992 23.666 -7.33301 18.999 -24c-2 -6 -4.66699 -12.333 -8 -19l-24 -54c-9.33301 -0.666992 -18.666 -1.16699 -27.999 -1.5s-18.666 -0.833008 -27.999 -1.5c-11.333 0 -18.333 -0.833008 -21 -2.5
s-6 -7.83398 -10 -18.501c-0.666992 -1.33301 -1 -3 -1 -5s-0.333008 -3.66699 -1 -5c-4 -13.333 -5.16699 -21 -3.5 -23s9.16699 -3 22.5 -3h39c15.333 0 20.666 -7.33301 15.999 -22c-3.33301 -10 -7 -19.833 -11 -29.5s-7.66699 -19.834 -11 -30.501
c-4.66699 -14.667 -15 -21.667 -31 -21c-8 0 -16.167 -0.333008 -24.5 -1s-16.5 -0.666992 -24.5 0c-11.333 0 -18.333 -5 -21 -15c-2.66699 -9.33301 -5.16699 -19 -7.5 -29l-6.5 -29c-1.33301 -6.66699 -2.66602 -11.834 -3.99902 -15.501s-3.16602 -6.5 -5.49902 -8.5
s-5.5 -3.16699 -9.5 -3.5s-9.33301 -0.5 -16 -0.5h-21v1zM258.998 199.001c6.66699 0 13.166 -0.171875 19.499 -0.504883s12.833 -0.166016 19.5 0.500977c2 0 4.33301 0.333008 7 1s4.33398 1.66699 5.00098 3c2 8 4.33301 16 7 24s3.66699 15.667 3 23
c-0.666992 6 -4 8.83301 -10 8.5s-11.667 -0.5 -17 -0.5c-6.66699 0.666992 -13.167 0.833984 -19.5 0.500977s-12.833 -0.166016 -19.5 0.500977c-14 2 -23.333 -4.33301 -28 -19c-3.33301 -10.667 -5.66602 -19 -6.99902 -25s-1 -10.167 1 -12.5
s6.16699 -3.66602 12.5 -3.99902s15.166 -0.166016 26.499 0.500977z" />
    <glyph glyph-name="dollar" unicode="$" horiz-adv-x="584" 
d="M7 412c-0.666992 32.667 -1.17285 64.9951 -1.50586 96.9951s-0.833008 64.333 -1.5 97c0 10.667 1.66699 18 5 22s10.333 6.33301 21 7c7.33301 0.666992 14.833 0.833984 22.5 0.500977s15.5 -0.5 23.5 -0.5c28 -1.33301 56.167 -2.5 84.5 -3.5
s56.5 -2.16699 84.5 -3.5l49.5 -2c16.333 -0.666992 32.833 -2 49.5 -4c19.333 -2 38 -6.66699 56 -14s33.667 -19 47 -35c17.333 -21.333 31 -44.166 41 -68.499s11.667 -51.166 5 -80.499l-9.5 -41.5c-3 -13.667 -7.16699 -27.167 -12.5 -40.5
c-24.667 -54 -67 -86 -127 -96l-70 -10c-23.333 -3.33301 -47 -3.33301 -71 0c-2 0.666992 -4.16699 0.833984 -6.5 0.500977s-4.83301 -0.5 -7.5 -0.5c-8.66699 0 -13 -4.33301 -13 -13v-21c0 -12 5.66699 -18 17 -18c14 -0.666992 28.167 -1.16699 42.5 -1.5
s28.5 -0.833008 42.5 -1.5c12.667 -0.666992 20 -2.16699 22 -4.5s3.33301 -9.5 4 -21.5c0.666992 -11.333 0.833984 -20.333 0.500977 -27s-2.16602 -11.5 -5.49902 -14.5s-8.16602 -4.83301 -14.499 -5.5s-15.166 -1 -26.499 -1h-70
c-11.333 -1.33301 -16.666 -7.66602 -15.999 -18.999c0.666992 -10 1.16699 -20 1.5 -30s0.5 -20 0.5 -30c0 -11.333 -2 -19.333 -6 -24s-11.333 -7 -22 -7c-19.333 0.666992 -38.666 1.16699 -57.999 1.5s-38.666 0.833008 -57.999 1.5c-10 0 -15.833 1 -17.5 3
s-2.83398 7.66699 -3.50098 17l-2 77c-0.666992 26 -0.666992 52 0 78c0 20 0.166992 43.5 0.5 70.5s0.5 52.833 0.5 77.5v63c0 17.333 -0.333008 26 -1 26zM175.994 441.995c0.666992 -9.33301 0.832031 -18.168 0.499023 -26.501s0.166992 -17.166 1.5 -26.499
c0 -8 1.66699 -13.333 5 -16s9 -4 17 -4c6.66699 0.666992 13.167 1 19.5 1s12.5 0.666992 18.5 2l39.5 10c13 3.33301 24.5 10.333 34.5 21c10 10 15.667 21.5 17 34.5s-3 24.5 -13 34.5c-5.33301 6 -11.833 11.667 -19.5 17s-15.5 9 -23.5 11
c-13.333 2.66699 -26.666 4 -39.999 4s-27 0.333008 -41 1c-10.667 0.666992 -16 -5.33301 -16 -18v-28v-17z" />
    <glyph glyph-name="percent" unicode="%" horiz-adv-x="698" 
d="M180 -8c-12 0.666992 -23.8369 0.999023 -35.5039 0.999023s-23.167 0.333008 -34.5 1s-14.666 6 -9.99902 16l73 149c7.33301 13.333 14.333 26.833 21 40.5l20 41.5l50.5 102.5l49.5 103.5l23.5 49.5l22.5 49.5c3.33301 6.66699 7.5 11.834 12.5 15.501
s11.833 5.16699 20.5 4.5c18 -0.666992 35.833 -0.666992 53.5 0s35.167 1 52.5 1c8 0.666992 12.833 0.166992 14.5 -1.5s0.833984 -5.83398 -2.49902 -12.501l-24.5 -55l-25.5 -54l-70 -144.5l-70 -144.5c-11.333 -23.333 -23.166 -46.333 -35.499 -69
s-24.166 -45.667 -35.499 -69c-8.66699 -18 -22.667 -26 -42 -24c-4.66699 0.666992 -10.5 0.833984 -17.5 0.500977s-10.5 -0.833008 -10.5 -1.5zM378.996 119.999c0.666992 22.667 4.83301 41.833 12.5 57.5s17.5 28.334 29.5 38.001s26.167 16.667 42.5 21
s33.833 6.16602 52.5 5.49902c18.667 -1.33301 35.5 -7.16602 50.5 -17.499s26.5 -24.833 34.5 -43.5c13.333 -32 15.333 -62.5 6 -91.5s-25.333 -52.5 -48 -70.5c-31.333 -24 -64.666 -28.333 -99.999 -13c-3.33301 1.33301 -7.66602 3.33301 -12.999 6
c-26.667 12 -44.834 25.667 -54.501 41s-13.834 37.666 -12.501 66.999zM532.995 130.998c0 9.33301 -3.66797 17.167 -11.001 23.5s-16.333 9.16602 -27 8.49902c-8 -0.666992 -15.833 -4.66699 -23.5 -12s-11.167 -14.666 -10.5 -21.999c0 -10 4.5 -19 13.5 -27
s18.5 -12 28.5 -12c8.66699 0 15.834 4 21.501 12s8.5 17.667 8.5 29zM3.99414 481.999c2 28 9.16895 49.001 21.502 63.001s32.5 24.667 60.5 32c16.667 5.33301 32 6.16602 46 2.49902s28 -10.167 42 -19.5c12 -8 22 -17.667 30 -29s13.5 -23.5 16.5 -36.5
s3.66699 -26.5 2 -40.5s-5.83398 -27.333 -12.501 -40c-8 -14 -17.5 -25.667 -28.5 -35s-22.833 -16.333 -35.5 -21s-25.834 -6.5 -39.501 -5.5s-27.167 5.16699 -40.5 12.5c-20.667 10.667 -37 25.667 -49 45s-16.333 43.333 -13 72zM148.996 469
c1.33301 19.333 -8.33398 29.667 -29.001 31c-10 0.666992 -18.833 -1.83301 -26.5 -7.5s-11.167 -12.5 -10.5 -20.5c0 -7.33301 3.66699 -14.666 11 -21.999s15 -11.333 23 -12c7.33301 -0.666992 14.333 2.16602 21 8.49902s10.334 13.833 11.001 22.5z" />
    <glyph glyph-name="ampersand" unicode="&#x26;" horiz-adv-x="677" 
d="M3 175c-0.666992 21.333 1.66406 42.3242 6.99707 62.9912s16 39.334 32 56.001c9.33301 9.33301 19.166 18 29.499 26s20.833 15.667 31.5 23c10 6.66699 11.333 14 4 22c-20 25.333 -31.667 52.333 -35 81s-2.33301 58 3 88c2.66699 16.667 9.33398 31.167 20.001 43.5
s23.334 23.166 38.001 32.499c23.333 14.667 47.5 23.5 72.5 26.5s50.833 0.833008 77.5 -6.5c22.667 -6.66699 41 -17.334 55 -32.001s25.667 -32 35 -52c8 -18 12.833 -37.167 14.5 -57.5s0.5 -40.5 -3.5 -60.5s-10.833 -38.667 -20.5 -56
s-21.834 -31.666 -36.501 -42.999c-10.667 -7.33301 -16 -13 -16 -17s4.66699 -11 14 -21c4.66699 -5.33301 9.33398 -10.166 14.001 -14.499s9 -9.16602 13 -14.499c8 -9.33301 16 -9.33301 24 0l11 17l14 22.5c4.66699 7.66699 8.66699 14.667 12 21s5.33301 10.5 6 12.5
c3.33301 13.333 13 19.666 29 18.999c14 -0.666992 28.333 -0.666992 43 0s28.667 0.333984 42 -0.999023c9.33301 -0.666992 14 -5.66699 14 -15c-1.33301 -32 -8.16602 -62.333 -20.499 -91s-26.833 -55.667 -43.5 -81c-7.33301 -10 -10.833 -16.667 -10.5 -20
s4.5 -9.33301 12.5 -18l39 -40.5l39 -41.5c1.33301 -1.33301 3 -3.16602 5 -5.49902s3.66699 -4.16602 5 -5.49902c3.33301 -3.33301 6.33301 -7 9 -11s2.66699 -8.66699 0 -14c-2 -5.33301 -5.16699 -8.16602 -9.5 -8.49902s-9.16602 -0.5 -14.499 -0.5h-62.5
c-21.667 0 -42.5 0.333008 -62.5 1c-2 0 -4.33301 1 -7 3s-5.5 4.33301 -8.5 7s-5.83301 5.33398 -8.5 8.00098l-6 6c-8.66699 10 -19 11.333 -31 4c-35.333 -21.333 -74.333 -36.666 -117 -45.999c-40 -8.66699 -76.667 -7.5 -110 3.5s-64.333 29.167 -93 54.5
c-19.333 16.667 -32.833 36.334 -40.5 59.001s-10.5 47.334 -8.5 74.001zM226.998 131.991c5.33301 0 10.832 1 16.499 3s11.5 4.33301 17.5 7c6 2 9.5 5 10.5 9s-0.166992 8.33301 -3.5 13l-27.5 32.5l-27.5 32.5c-5.33301 5.33301 -11.666 5.66602 -18.999 0.999023
c-11.333 -7.33301 -19.5 -17.166 -24.5 -29.499s-5.83301 -23.833 -2.5 -34.5c3.33301 -8.66699 11.833 -16.5 25.5 -23.5s25.167 -10.5 34.5 -10.5zM270.997 469.991c0 11.333 -1.99805 20.1641 -5.99805 26.4971s-8.66699 11 -14 14s-10.833 4.33301 -16.5 4
s-10.167 -1.16602 -13.5 -2.49902c-6.66699 -2.66699 -11.834 -6.66699 -15.501 -12s-4.5 -11.666 -2.5 -18.999c3.33301 -11.333 7.16602 -22.166 11.499 -32.499s9.16602 -20.833 14.499 -31.5c0.666992 -1.33301 2.33398 -2.33301 5.00098 -3s4.66699 -0.666992 6 0
c8.66699 6 16 14.5 22 25.5s9 21.167 9 30.5z" />
    <glyph glyph-name="quotesingle" unicode="'" horiz-adv-x="833" 
 />
    <glyph glyph-name="parenleft" unicode="(" horiz-adv-x="323" 
d="M246 -14c-3.33301 -1.33301 -6.33398 -2.66699 -9.00098 -4s-5.66699 -2 -9 -2c-14.667 0 -29.167 -0.166992 -43.5 -0.5s-29.166 -0.166016 -44.499 0.500977c-8.66699 1.33301 -16 6 -22 14l-23.5 33.5c-7.66699 11 -14.5 22.5 -20.5 34.5l-28.5 63l-26.5 63
c-7.33301 16.667 -11.666 33.334 -12.999 50.001s-1.33301 33.667 0 51c3.33301 48.667 14.5 93.667 33.5 135s43.833 80.333 74.5 117c4 4.66699 8 9 12 13s7.66699 8.66699 11 14c17.333 21.333 37.5 34 60.5 38s46.833 4.66699 71.5 2c4 0 6.16699 -1.5 6.5 -4.5
s-0.5 -5.83301 -2.5 -8.5l-15 -20.5c-4.66699 -6.33301 -9.66699 -12.5 -15 -18.5c-14 -15.333 -26.333 -31.833 -37 -49.5s-20.334 -36.167 -29.001 -55.5c-17.333 -38 -27.666 -77 -30.999 -117s-2 -80.333 4 -121c4 -30.667 11.333 -59.834 22 -87.501
s23 -54.834 37 -81.501c5.33301 -10 11.166 -19.667 17.499 -29z" />
    <glyph glyph-name="parenright" unicode=")" horiz-adv-x="312" 
d="M70 -20c-12 0.666992 -21.002 1.49609 -27.002 2.49609s-9.83301 3 -11.5 6s-1.5 7.5 0.5 13.5s5.66699 14.333 11 25l25 52l26 52c19.333 40 31.166 80.667 35.499 122s2.83301 83.666 -4.5 126.999c-7.33301 41.333 -19.333 80 -36 116s-39.667 69.333 -69 100
c-4 4.66699 -8.33301 11.667 -13 21c-3.33301 7.33301 -4 12.333 -2 15s6.66699 4.33398 14 5.00098h42c14 0 28 -0.333008 42 -1c3.33301 -0.666992 6.83301 -2 10.5 -4s6.83398 -4.33301 9.50098 -7c25.333 -24 47.166 -50.167 65.499 -78.5s31.833 -59.5 40.5 -93.5
c9.33301 -37.333 16.5 -74.833 21.5 -112.5s4.83301 -76.167 -0.5 -115.5c-3.33301 -27.333 -9.66602 -53.666 -18.999 -78.999s-20.666 -49.666 -33.999 -72.999c-7.33301 -13.333 -15.5 -26.166 -24.5 -38.499s-17.167 -25.166 -24.5 -38.499
c-7.33301 -12 -18 -18 -32 -18h-35c-1.33301 0 -2.66602 0.333008 -3.99902 1c-1.33301 0 -2.5 0.166992 -3.5 0.5s-2.16699 0.5 -3.5 0.5z" />
    <glyph glyph-name="plus" unicode="+" horiz-adv-x="407" 
d="M175 425c15.333 -0.666992 27.1641 -1.16602 35.4971 -1.49902s14.333 -2.33301 18 -6s5.66699 -9.5 6 -17.5s0.166016 -20 -0.500977 -36c-0.666992 -1.33301 -0.833984 -2.5 -0.500977 -3.5s0.5 -2.16699 0.5 -3.5c0 -11.333 0.333008 -19.666 1 -24.999
s2.5 -9 5.5 -11s7.33301 -2.83301 13 -2.5s14.167 0.5 25.5 0.5h42c11.333 0 17 -5.66699 17 -17c0 -24.667 1 -48.334 3 -71.001c0.666992 -12 -4.33301 -18 -15 -18c-11.333 -0.666992 -22.166 -1 -32.499 -1s-20.833 -0.333008 -31.5 -1c-9.33301 0 -15 -1 -17 -3
s-3.33301 -7.66699 -4 -17c-0.666992 -8 -1 -17.167 -1 -27.5v-27.5c0 -16 -6 -22.333 -18 -19c-11.333 2.66699 -22.5 3.66699 -33.5 3l-33.5 -2c-11.333 -0.666992 -18.666 1 -21.999 5s-5.33301 12 -6 24c-0.666992 7.33301 -1 16 -1 26v26
c-0.666992 12.667 -7.33398 19 -20.001 19c-5.33301 -0.666992 -10.666 -1 -15.999 -1h-16c-4.66699 0 -9 -0.333008 -13 -1s-8 -0.666992 -12 0c-9.33301 0.666992 -16.666 1.33398 -21.999 2.00098s-9.66602 2.16699 -12.999 4.5s-5.5 6.16602 -6.5 11.499
s-1.5 13.666 -1.5 24.999c0 6.66699 -0.5 13 -1.5 19s-1.5 12.333 -1.5 19c0.666992 8 2.33398 13.5 5.00098 16.5s8.33398 4.83301 17.001 5.5c10 0.666992 20 0.666992 30 0s20 -1 30 -1s17.833 0.333008 23.5 1s9.66699 2.16699 12 4.5s3.66602 6.33301 3.99902 12
s0.5 13.5 0.5 23.5c-0.666992 9.33301 -1.16699 17.833 -1.5 25.5s-0.833008 16.167 -1.5 25.5c0 11.333 6 17 18 17c6 0 12 -0.166992 18 -0.5s11.667 -0.833008 17 -1.5z" />
    <glyph glyph-name="comma" unicode="," horiz-adv-x="219" 
d="M145 46c0 -13.333 -2.49902 -26.668 -7.49902 -40.001s-11.667 -25.833 -20 -37.5s-18.166 -21.834 -29.499 -30.501s-23 -14.667 -35 -18c-2 -0.666992 -4.16699 -0.666992 -6.5 0s-4.5 1 -6.5 1c0.666992 2 1 4.16699 1 6.5s0.333008 4.5 1 6.5
c1.33301 4 3.16602 8.16699 5.49902 12.5s4.16602 8.5 5.49902 12.5c2.66699 9.33301 3.33398 15.5 2.00098 18.5s-6.33301 7.16699 -15 12.5c-16 10 -26.667 23.333 -32 40s-4.33301 32.667 3 48c8 15.333 20.333 25.833 37 31.5s33.667 5.16699 51 -1.5
c9.33301 -3.33301 17 -6.83301 23 -10.5s10.667 -7.66699 14 -12s5.66602 -9.66602 6.99902 -15.999s2 -14.166 2 -23.499z" />
    <glyph glyph-name="hyphen" unicode="-" horiz-adv-x="302" 
d="M125 293l95 0.00195312c7.33301 0 10.333 -3.66699 9 -11l-3 -60c-0.666992 -10 -2.33398 -16.667 -5.00098 -20s-9 -5.33301 -19 -6c-13.333 -1.33301 -26.333 -2 -39 -2h-39h-84c-11.333 0 -18.833 1.66699 -22.5 5s-7.16699 10 -10.5 20
c-0.666992 1.33301 -1 2.33301 -1 3s-0.333008 1.66699 -1 3c-1.33301 17.333 -2.16602 30.666 -2.49902 39.999s1.16699 16 4.5 20s9.16602 6 17.499 6h36.5h19c7.33301 0 14.333 0.166992 21 0.5s12.334 0.666016 17.001 0.999023z" />
    <glyph glyph-name="period" unicode="." horiz-adv-x="229" 
d="M84 -4c-2.66699 0.666992 -6.16504 1.33203 -10.498 1.99902s-9.16602 1.33398 -14.499 2.00098c-10 2 -18.833 6 -26.5 12s-13.834 13.167 -18.501 21.5s-7.66699 17.833 -9 28.5s-0.333008 21.334 3 32.001c5.33301 17.333 16.666 30.166 33.999 38.499
s35.666 9.5 54.999 3.5c12 -4 22.667 -9 32 -15c28 -18.667 37.333 -43 28 -73c-4.66699 -15.333 -13.5 -27.833 -26.5 -37.5s-28.5 -14.5 -46.5 -14.5z" />
    <glyph glyph-name="slash" unicode="/" horiz-adv-x="323" 
d="M57 -3c-6 0 -11.833 -0.167969 -17.5 -0.500977s-11.5 -0.5 -17.5 -0.5c-9.33301 0.666992 -15 2.16699 -17 4.5s-1.66699 8.16602 1 17.499c7.33301 28 13.833 56 19.5 84l17 84.5l17.5 85c6 28.333 13 56.166 21 83.499c9.33301 32.667 17.666 65.167 24.999 97.5
l23 97.5c1.33301 5.33301 2.5 9.5 3.5 12.5s2.5 5.33301 4.5 7s4.5 2.66699 7.5 3s7.16699 0.5 12.5 0.5c26 0.666992 52 0.666992 78 0c9.33301 0 15.333 -1.66699 18 -5s3 -9.66602 1 -18.999c-3.33301 -17.333 -6.5 -34.666 -9.5 -51.999s-6.83301 -34.666 -11.5 -51.999
l-47 -195l-48 -195c-1.33301 -6.66699 -3 -13 -5 -19l-6 -18c-5.33301 -16 -15.666 -23.667 -30.999 -23c-6.66699 0.666992 -13.167 1 -19.5 1h-19.5v1z" />
    <glyph glyph-name="zero" unicode="0" horiz-adv-x="552" 
d="M462 311c-2 -21.333 -3.50098 -41.1689 -4.50098 -59.502s-2.83301 -36.166 -5.5 -53.499c-5.33301 -43.333 -17.333 -81.666 -36 -114.999s-46 -62 -82 -86c-20 -13.333 -42.667 -20.5 -68 -21.5s-49.333 0.833008 -72 5.5c-24.667 4.66699 -47.5 13 -68.5 25
s-40.5 26.667 -58.5 44c-13.333 12.667 -23.5 27 -30.5 43s-12.167 32.667 -15.5 50c-10 49.333 -15.833 98.5 -17.5 147.5s2.5 98.5 12.5 148.5c4.66699 22.667 10.334 44.334 17.001 65.001s18 39.667 34 57l26 28c8.66699 9.33301 17.667 17.666 27 24.999
c28 21.333 58.833 33 92.5 35s66.5 -3 98.5 -15c43.333 -15.333 75.833 -39 97.5 -71s35.5 -70 41.5 -114c3.33301 -24 5.83301 -47.833 7.5 -71.5zM317.999 297.997l-0.00292969 34c0 9.33301 0.166992 19.166 0.5 29.499s0.5 19.166 0.5 26.499
c0 15.333 -2.66699 30.166 -8 44.499s-12.333 27.833 -21 40.5c-4 6 -9.16699 11 -15.5 15s-13.5 6.83301 -21.5 8.5s-16.167 1.83398 -24.5 0.500977s-16.166 -5 -23.499 -11c-14.667 -11.333 -25 -24.166 -31 -38.499s-10.667 -29.5 -14 -45.5
c-7.33301 -34 -10 -67.667 -8 -101s5.66699 -67 11 -101c1.33301 -8.66699 3.5 -17.167 6.5 -25.5s7.16699 -16.166 12.5 -23.499c6 -9.33301 13.833 -16.333 23.5 -21s19.834 -6.66699 30.501 -6s20.834 3.5 30.501 8.5s17.167 12.5 22.5 22.5c6 10 11.333 20.333 16 31
s7 21.667 7 33c0 13.333 1 26.5 3 39.5s3 26.167 3 39.5z" />
    <glyph glyph-name="one" unicode="1" horiz-adv-x="478" 
d="M387 29c0.666992 -4 0.828125 -8.83008 0.495117 -14.4971s-1.16602 -9.16699 -2.49902 -10.5c-3.33301 -2.66699 -6.5 -3.83398 -9.5 -3.50098s-6.5 0.5 -10.5 0.5c-19.333 -0.666992 -38.666 -1 -57.999 -1h-58c-9.33301 0 -15.5 1.66699 -18.5 5
s-4.83301 10.333 -5.5 21c-2 52 -3 104.333 -3 157c-0.666992 33.333 -0.666992 66.333 0 99s1 65.667 1 99v12c0 4 -0.333008 7.66699 -1 11c-0.666992 4 -2.16699 6.66699 -4.5 8s-5.16602 0.333008 -8.49902 -3l-10.5 -8c-3.66699 -2.66699 -7.16699 -5.66699 -10.5 -9
l-34.5 -29.5c-11.667 -10.333 -23.5 -20.166 -35.5 -29.499c-9.33301 -7.33301 -16.833 -10.833 -22.5 -10.5s-12.5 4.83301 -20.5 13.5c-11.333 12.667 -22.333 25.667 -33 39l-33 40c-8.66699 10.667 -8 21 2 31l21 19c6.66699 6 13.334 12.667 20.001 20
c24 25.333 49.333 48.666 76 69.999l82 65c6.66699 5.33301 13.5 9.66602 20.5 12.999s14.833 4.66602 23.5 3.99902c20 0 39.5 0.333008 58.5 1s38.5 0.333984 58.5 -0.999023c9.33301 -0.666992 15 -2 17 -4s3.33301 -8.33301 4 -19c0 -10 -0.166992 -20.333 -0.5 -31
s-0.5 -21 -0.5 -31c0 -23.333 0.166992 -46.333 0.5 -69s0.5 -45.334 0.5 -68.001c-1.33301 -70 -2.33301 -133 -3 -189c0 -24 -0.166992 -47.5 -0.5 -70.5s-0.666016 -43.667 -0.999023 -62s-0.5 -33.333 -0.5 -45v-19.5z" />
    <glyph glyph-name="two" unicode="2" horiz-adv-x="541" 
d="M225 0h-183c-9.33301 -0 -16.5 0.333008 -21.5 1s-8.83301 2.33398 -11.5 5.00098s-4.16699 6.66699 -4.5 12s-0.5 12.666 -0.5 21.999v39c0 12 -0.333008 24.667 -1 38c-1.33301 18.667 5 33.334 19 44.001l40 32l40 31c26.667 20 51.334 41.667 74.001 65
s43.334 49 62.001 77c7.33301 10.667 12.166 21.834 14.499 33.501s1.16602 23.834 -3.50098 36.501c-7.33301 24.667 -24.333 38 -51 40c-15.333 1.33301 -29.5 -0.333984 -42.5 -5.00098s-25.167 -11.667 -36.5 -21c-11.333 -10.667 -22.333 -10.667 -33 0l-36 35.5
l-36 35.5c-4.66699 4 -6.5 8 -5.5 12s3.16699 8 6.5 12c22 26 47 46.333 75 61c31.333 17.333 63.333 29.166 96 35.499s67 5.5 103 -2.5c18.667 -4 35.834 -10.833 51.501 -20.5s29.167 -20.834 40.5 -33.501s20.666 -26.334 27.999 -41.001s12.333 -29.334 15 -44.001
c10.667 -58 6.16699 -109.667 -13.5 -155s-50.167 -87 -91.5 -125l-30.5 -27.5l-30.5 -27.5c-1.33301 -1.33301 -2.16602 -3.33301 -2.49902 -6s-0.5 -5 -0.5 -7c0 -0.666992 1.16699 -1.5 3.5 -2.5s4.16602 -1.5 5.49902 -1.5h144c3.33301 0 6.5 0.166992 9.5 0.5
s6.16699 0.5 9.5 0.5c9.33301 1.33301 14.666 -2.66699 15.999 -12c1.33301 -18.667 1.5 -37 0.5 -55s-1.16699 -36 -0.5 -54c0 -11.333 -2 -18.666 -6 -21.999s-11.333 -5.66602 -22 -6.99902h-43c-13.333 0 -28.333 0.166992 -45 0.5l-48 1
c-15.333 0.333008 -28.166 0.5 -38.499 0.5s-15.5 -0.333008 -15.5 -1z" />
    <glyph glyph-name="three" unicode="3" horiz-adv-x="594" 
d="M226 -12c-14.667 0 -30.499 2.99512 -47.499 8.99512s-33.167 12 -48.5 18c-23.333 8.66699 -45.333 20 -66 34l-62 43c-3.33301 2.66699 -6.16602 5.66699 -8.49902 9s-1.83301 7.66602 1.5 12.999l60 90c4.66699 7.33301 10.667 8.33301 18 3l25 -18l24 -18
c18.667 -10 37.167 -17.167 55.5 -21.5s37.166 -6.83301 56.499 -7.5c14.667 -1.33301 29.167 1.5 43.5 8.5s25.166 17.167 32.499 30.5c3.33301 6.66699 5 14.167 5 22.5s-1.33301 16.333 -4 24s-6.66699 14.667 -12 21s-11.333 11.166 -18 14.499
c-8 4 -16.5 6.5 -25.5 7.5s-19.167 1.16699 -30.5 0.5c-5.33301 2 -9.66602 4.33301 -12.999 7s-5.33301 7.33398 -6 14.001c-1.33301 8.66699 -1.83301 17.334 -1.5 26.001s-0.166992 17.667 -1.5 27c-2 12.667 4 22.334 18 29.001l18.5 5.5l16.5 5
c5.33301 1.66699 10.666 3.66699 15.999 6s11.666 5.83301 18.999 10.5c3.33301 2 6.5 6 9.5 12s5.5 12.667 7.5 20s3.33301 14.5 4 21.5s0.666992 12.5 0 16.5c-1.33301 4 -4 8.83301 -8 14.5s-9.83301 10.5 -17.5 14.5s-17 6 -28 6s-23.833 -3.66699 -38.5 -11
c-8.66699 -5.33301 -17.334 -12.166 -26.001 -20.499s-16.667 -14.166 -24 -17.499c-8.66699 -4 -15.334 -5.83301 -20.001 -5.5s-10.667 3.83301 -18 10.5c-5.33301 5.33301 -10.333 11 -15 17s-9.66699 12 -15 18c-8 9.33301 -14.167 16.833 -18.5 22.5
s-6.33301 10.834 -6 15.501s2.83301 9.5 7.5 14.5s12 11.833 22 20.5c28 23.333 57.333 42.666 88 57.999s65 23 103 23c42 -0.666992 77 -10.834 105 -30.501s48.667 -48.834 62 -87.501c10 -30.667 11.833 -60.334 5.5 -89.001s-21.166 -55 -44.499 -79
c-4.66699 -5.33301 -7 -9.66602 -7 -12.999s3.33301 -6.66602 10 -9.99902c18.667 -10 33 -23.167 43 -39.5s16.333 -33.833 19 -52.5s2.33398 -37.667 -0.999023 -57s-9 -36.666 -17 -51.999c-6 -11.333 -13.167 -25.666 -21.5 -42.999s-21.166 -34.166 -38.499 -50.499
s-40.833 -30.333 -70.5 -42s-68.5 -17.5 -116.5 -17.5z" />
    <glyph glyph-name="four" unicode="4" horiz-adv-x="593" 
d="M472 329c0 -46 -0.333008 -89.5 -1 -130.5s-1 -81.5 -1 -121.5c0 -10.667 0.333008 -20.834 1 -30.501s1 -19.834 1 -30.501c0.666992 -7.33301 -0.833008 -12.333 -4.5 -15s-10.167 -3.66699 -19.5 -3c-18 0.666992 -36.167 0.666992 -54.5 0s-36.5 -1 -54.5 -1
c-13.333 0.666992 -21.666 2.33398 -24.999 5.00098s-5 10.667 -5 24c-0.666992 17.333 -1 35 -1 53s-0.333008 35.667 -1 53c-0.666992 11.333 -2.5 18.666 -5.5 21.999s-10.167 5.66602 -21.5 6.99902c-38.667 2 -77.334 2.83301 -116.001 2.5s-76.667 -0.5 -114 -0.5
c-15.333 -2 -26.166 -0.5 -32.499 4.5s-10.166 14.833 -11.499 29.5c-1.33301 13.333 -2 26.333 -2 39s-0.333008 25.667 -1 39c-0.666992 12.667 3.66602 24.334 12.999 35.001l145 156.5l144 157.5c10.667 12 23 17 37 15c18.667 -1.33301 37 -1.66602 55 -0.999023
s36.333 0.333984 55 -0.999023c14 0 21 -7 21 -21c0 -13.333 0.333008 -26.333 1 -39s0.666992 -25.667 0 -39c-0.666992 -36 -0.833984 -72 -0.500977 -108s-0.166992 -69.667 -1.5 -101zM231 295l58 -0.00390625c12 0 18 5.33301 18 16
c0.666992 34.667 0.666992 69.667 0 105c0 8 -2 12.833 -6 14.5s-8.66699 -0.166016 -14 -5.49902l-39.5 -38l-38.5 -39c-7.33301 -7.33301 -15.166 -14.666 -23.499 -21.999s-13.833 -16.666 -16.5 -27.999c4.66699 -0.666992 10.667 -1.16699 18 -1.5
s14.166 -0.666016 20.499 -0.999023s11.833 -0.5 16.5 -0.5h7z" />
    <glyph glyph-name="five" unicode="5" horiz-adv-x="583" 
d="M233 640c26 0.666992 51.8398 0.995117 77.5068 0.995117h77.5c11.333 0 18 -1 20 -3s4 -8.33301 6 -19l8 -40.5l8 -40.5c0.666992 -3.33301 0.833984 -6.33301 0.500977 -9s-0.5 -5.66699 -0.5 -9c-0.666992 -10 -2.66699 -16.333 -6 -19s-10 -4 -20 -4
c-21.333 1.33301 -43 2.16602 -65 2.49902s-44 0.166016 -66 -0.500977c-12 0 -19.833 -1.83301 -23.5 -5.5s-6.5 -11.167 -8.5 -22.5c-1.33301 -7.33301 -3.33301 -15.166 -6 -23.499s-2.33398 -15.166 0.999023 -20.499c2 -3.33301 4.66699 -5.16602 8 -5.49902
s6.83301 0 10.5 1l11.5 3c4 1 8 1.5 12 1.5c28 -1.33301 54.5 -6 79.5 -14s48.5 -20.667 70.5 -38c12.667 -9.33301 22.667 -20.666 30 -33.999s13.666 -27.333 18.999 -42c6.66699 -17.333 10 -38.166 10 -62.499s-2.83301 -48.666 -8.5 -72.999s-14.167 -47.5 -25.5 -69.5
s-25 -39.667 -41 -53c-14 -11.333 -28.833 -20.5 -44.5 -27.5s-32.167 -13.167 -49.5 -18.5c-44 -12 -87.5 -17 -130.5 -15s-86.167 9.66699 -129.5 23c-12 4 -23.667 9.66699 -35 17l-34 22c-14 8.66699 -18.333 20.667 -13 36l20 52.5
c6.66699 17.667 13.667 35.167 21 52.5c4.66699 10.667 12.667 11.334 24 2.00098c17.333 -15.333 36.166 -26.833 56.499 -34.5s41.5 -13.167 63.5 -16.5c19.333 -3.33301 38.666 -4.33301 57.999 -3s38 7 56 17c6.66699 4 13.167 8.66699 19.5 14s11.833 11.333 16.5 18
c6 8.66699 9.66699 18.167 11 28.5s0.666016 20.5 -2.00098 30.5s-7.16699 19.167 -13.5 27.5s-14.5 15.166 -24.5 20.499c-7.33301 4 -15.333 7.5 -24 10.5s-17.334 4.5 -26.001 4.5c-18 0 -36 -0.5 -54 -1.5s-35.667 -6.16699 -53 -15.5
c-6 -4.66699 -12.667 -4.66699 -20 0c-16 10.667 -28.5 20 -37.5 28s-15 16.333 -18 25s-3.5 18.834 -1.5 30.501s5.66699 27.167 11 46.5l29 101.5l28 101.5c2 8 4.66699 14 8 18s9.66602 5.66699 18.999 5c7.33301 -0.666992 16.166 -1 26.499 -1h29.5h34z" />
    <glyph glyph-name="six" unicode="6" horiz-adv-x="605" 
d="M8 287c0 50 6 93.167 18 129.5s27 67.333 45 93s38 46.667 60 63s42.667 29.166 62 38.499s36.333 15.833 51 19.5s24 6.16699 28 7.5c10.667 2.66699 25.334 4 44.001 4s37.167 -0.666992 55.5 -2s34.5 -3.16602 48.5 -5.49902s22 -4.83301 24 -7.5s4 -9.16699 6 -19.5
s3.66699 -21.666 5 -33.999l4 -36.5l3 -27c0.666992 -7.33301 0 -12 -2 -14s-6.66699 -2.33301 -14 -1c-5.33301 0.666992 -13.5 1.83398 -24.5 3.50098s-23.5 3 -37.5 4s-28.667 1.16699 -44 0.5s-29.333 -3.33398 -42 -8.00098c-8 -2.66699 -17.333 -7.66699 -28 -15
s-21.167 -16.166 -31.5 -26.499s-20 -22 -29 -35s-15.5 -26.833 -19.5 -41.5c-0.666992 -2 -1 -4.66699 -1 -8s0.666992 -5.33301 2 -6c1.33301 -1.33301 3.66602 -1.5 6.99902 -0.5s5.66602 2.16699 6.99902 3.5c14 11.333 28.833 19.5 44.5 24.5s32.167 8.83301 49.5 11.5
c22.667 4 44.5 3.66699 65.5 -1s41.833 -12 62.5 -22c12 -6 22.833 -15 32.5 -27s18.167 -26 25.5 -42s13 -33.667 17 -53s6 -39 6 -59c0 -40.667 -8.83301 -75.334 -26.5 -104.001s-48.167 -56 -91.5 -82c-31.333 -16 -62.166 -25.167 -92.499 -27.5s-59.5 0.5 -87.5 8.5
s-54.167 20.167 -78.5 36.5s-45.5 35.166 -63.5 56.499c-12 14 -21.833 30.167 -29.5 48.5s-13.667 36.833 -18 55.5s-7.5 36.5 -9.5 53.5s-3 31.5 -3 43.5zM285 148c4.66699 0 8.16797 -0.168945 10.501 -0.501953s4.16602 -0.5 5.49902 -0.5c17.333 0 31.5 5.5 42.5 16.5
s16.5 25.5 16.5 43.5c-0.666992 34.667 -20 52 -58 52c-22 -1.33301 -39.667 -9 -53 -23l-11.5 -13c-3.66699 -4 -7.16699 -8.33301 -10.5 -13c-8.66699 -11.333 -11.5 -21.666 -8.5 -30.999s11.167 -16.666 24.5 -21.999c7.33301 -2.66699 14.833 -4.5 22.5 -5.5
s14.167 -2.16699 19.5 -3.5z" />
    <glyph glyph-name="seven" unicode="7" horiz-adv-x="573" 
d="M225 637c26 0 52.001 -0.165039 78.001 -0.498047s52 -0.833008 78 -1.5c11.333 -0.666992 23.166 -0.5 35.499 0.5s24.166 0.833008 35.499 -0.5c8 -0.666992 14 -3.16699 18 -7.5s6.33301 -10.166 7 -17.499c1.33301 -10.667 1.5 -22 0.5 -34
s-1.16699 -23.333 -0.5 -34c0.666992 -2.66699 0.166992 -5.5 -1.5 -8.5s-3.16699 -5.83301 -4.5 -8.5c-23.333 -36 -43.833 -73 -61.5 -111l-52.5 -115l-64 -137.5l-64 -137.5c-3.33301 -6.66699 -7.33301 -12.334 -12 -17.001s-11.334 -7 -20.001 -7h-140
c-11.333 0 -14.666 5 -9.99902 15l12.5 24l12.5 24l91.5 191.5l91.5 191.5c8 16.667 11 26.667 9 30s-12.667 5 -32 5h-100.5c-33.667 0 -67.167 -0.333008 -100.5 -1c-7.33301 0 -13 1.16699 -17 3.5s-6.33301 7.16602 -7 14.499
c-1.33301 19.333 -1.83301 38.833 -1.5 58.5s0.166016 39.167 -0.500977 58.5c-0.666992 13.333 6.33301 20.666 21 21.999h20c14.667 0 32.334 -0.166992 53.001 -0.5s40.334 -0.5 59.001 -0.5s34.5 0.166992 47.5 0.5z" />
    <glyph glyph-name="eight" unicode="8" horiz-adv-x="541" 
d="M245 653c27.333 0 52.168 -4.49707 74.501 -13.4971s42.5 -24.167 60.5 -45.5c10.667 -13.333 18.5 -28.333 23.5 -45s7.5 -33.834 7.5 -51.501s-2 -34.5 -6 -50.5s-10 -30 -18 -42c-6 -8.66699 -8.66699 -14.167 -8 -16.5s4.66699 -7.16602 12 -14.499
c28.667 -26 49.167 -55.167 61.5 -87.5s17.833 -67.5 16.5 -105.5c-1.33301 -26 -8.83301 -50.833 -22.5 -74.5s-30.667 -44.834 -51 -63.501s-43 -33.5 -68 -44.5s-49.5 -16.833 -73.5 -17.5c-40.667 1.33301 -79.667 10.666 -117 27.999s-68 40.166 -92 68.499
s-38.833 61 -44.5 98s3.5 75.5 27.5 115.5c17.333 31.333 40.666 58.333 69.999 81c6 4.66699 9.83301 9.16699 11.5 13.5s0.166992 10.166 -4.5 17.499c-6 9.33301 -10 19.5 -12 30.5l-6 33.5c-4 23.333 -3 45 3 65s15 39.333 27 58c14 20.667 32.167 36.334 54.5 47.001
s46.833 16 73.5 16zM309.002 186.003c0 7.33301 -1.49707 15.3359 -4.49707 24.0029s-6.83301 17 -11.5 25s-10 15.333 -16 22s-12.333 11.667 -19 15c-4.66699 3.33301 -10.334 3.66602 -17.001 0.999023c-13.333 -6.66699 -25.333 -14.5 -36 -23.5
s-18.667 -20.5 -24 -34.5c-4 -8.66699 -5 -18 -3 -28c1.33301 -8.66699 5.16602 -16.834 11.499 -24.501s13.666 -14.334 21.999 -20.001s17.333 -9.5 27 -11.5s18.834 -2 27.501 0c5.33301 1.33301 10.666 4 15.999 8s10 8.5 14 13.5s7.16699 10.333 9.5 16
s3.5 11.5 3.5 17.5zM248.005 522.006c-9.33301 -0.666992 -16.667 -2.66699 -22 -6s-8.33301 -8.33301 -9 -15c-1.33301 -15.333 0 -29.5 4 -42.5s12.333 -24.167 25 -33.5c1.33301 -1.33301 3.33301 -2 6 -2s4.66699 0.666992 6 2c8 9.33301 14.5 19.5 19.5 30.5
s6.83301 23.167 5.5 36.5c-2 21.333 -13.667 31.333 -35 30z" />
    <glyph glyph-name="nine" unicode="9" horiz-adv-x="604" 
d="M505 337c-1.33301 -29.333 -3.83594 -57.9932 -7.50293 -85.9932s-10.5 -55.667 -20.5 -83c-25.333 -67.333 -69.333 -116.333 -132 -147c-96.667 -47.333 -192 -42.333 -286 15l-23 14c-8 4.66699 -15.667 9.66699 -23 15c-10 8 -11.333 18.333 -4 31
c9.33301 15.333 18.333 31 27 47s17.667 31.667 27 47c3.33301 5.33301 6.5 8.66602 9.5 9.99902s7.83301 0.333008 14.5 -3c26.667 -16 54.334 -30.333 83.001 -43c19.333 -9.33301 38.833 -13 58.5 -11s39.167 6.66699 58.5 14c22 8.66699 38 21.667 48 39s16 38 18 62
c0.666992 4.66699 -0.333008 7.66699 -3 9s-5.66699 0.666016 -9 -2.00098c-3.33301 -1.33301 -6.16602 -3 -8.49902 -5s-5.16602 -3.66699 -8.49902 -5c-68.667 -40 -134.667 -34.333 -198 17c-13.333 10.667 -25.5 21.667 -36.5 33s-20.5 24.333 -28.5 39
c-8.66699 14.667 -14.834 31.167 -18.501 49.5s-4.66699 36.666 -3 54.999s5.66699 36.166 12 53.499s14.833 32.666 25.5 45.999c14.667 18 32 35.5 52 52.5s40.667 29.167 62 36.5c8 4 19.833 6.66699 35.5 8s32.5 1.5 50.5 0.5s35.833 -3.33301 53.5 -7
s33.167 -8.83398 46.5 -15.501c34.667 -16.667 60.334 -39.5 77.001 -68.5s29 -60.5 37 -94.5c5.33301 -20 8.5 -40.333 9.5 -61s2.5 -41.334 4.5 -62.001zM321.997 431.007c0.666992 12 -1.16797 23.0029 -5.50098 33.0029s-10 18.167 -17 24.5s-15.333 10.666 -25 12.999
s-19.834 2.16602 -30.501 -0.500977c-9.33301 -2.66699 -17.666 -6.83398 -24.999 -12.501s-11.666 -13.167 -12.999 -22.5c-2 -10.667 -4.16699 -21.5 -6.5 -32.5s0.833984 -22.167 9.50098 -33.5c7.33301 -9.33301 18.166 -16.5 32.499 -21.5s27.833 -5.83301 40.5 -2.5
c24.667 6 38 24.333 40 55z" />
    <glyph glyph-name="colon" unicode=":" horiz-adv-x="209" 
d="M154 355c-3.33301 -25.333 -16.001 -44.667 -38.001 -58c-8.66699 -5.33301 -18.667 -8.16602 -30 -8.49902s-22.166 1.33398 -32.499 5.00098s-19.833 9 -28.5 16s-14.667 15.167 -18 24.5c-4 10.667 -4.83301 21.167 -2.5 31.5s6.83301 20.166 13.5 29.499
c8.66699 12.667 20.667 22.167 36 28.5s30 7.16602 44 2.49902c16 -4.66699 29.333 -13.667 40 -27s16 -28 16 -44zM74.999 -0.000976562c-24 1.33301 -42.001 8.16992 -54.001 20.5029s-17.333 29.833 -16 52.5c0.666992 9.33301 2.83398 18.166 6.50098 26.499
s8.66699 15.5 15 21.5s13.5 10.667 21.5 14s16.333 4.66602 25 3.99902c48.667 -3.33301 72 -28 70 -74c-0.666992 -19.333 -7.5 -35.333 -20.5 -48s-28.833 -18.334 -47.5 -17.001z" />
    <glyph glyph-name="semicolon" unicode=";" horiz-adv-x="239" 
d="M159 49c0 -10.667 -1.5 -20.5059 -4.5 -29.5059s-7.16699 -18.167 -12.5 -27.5c-10 -19.333 -23 -34.333 -39 -45s-33.667 -19.667 -53 -27c-3.33301 -1.33301 -6.5 -1.16602 -9.5 0.500977s-6.16699 2.83398 -9.5 3.50098c1.33301 2.66699 2.5 5.16699 3.5 7.5
s2.16699 4.83301 3.5 7.5c2 3.33301 4.33301 6.5 7 9.5s5 6.5 7 10.5c4.66699 8 6.16699 14.167 4.5 18.5s-6.16699 9.5 -13.5 15.5c-4 3.33301 -7.83301 6.33301 -11.5 9s-7.16699 5.66699 -10.5 9c-8 8.66699 -13 18.5 -15 29.5s-1.5 21.833 1.5 32.5s8 20.334 15 29.001
s15.5 14.667 25.5 18c13.333 4.66699 26.166 6.83398 38.499 6.50098s24.833 -2.16602 37.5 -5.49902c12.667 -2.66699 20.667 -10.667 24 -24c2.66699 -7.33301 4.83398 -15.166 6.50098 -23.499s3.16699 -16.5 4.5 -24.5zM91 281.994
c-11.333 0 -21.998 1.99707 -31.998 5.99707s-19 9.33301 -27 16s-14.5 14.334 -19.5 23.001s-7.5 17.667 -7.5 27c0 10 2.16699 19.833 6.5 29.5s10.166 18.334 17.499 26.001s15.833 13.667 25.5 18s19.5 6.5 29.5 6.5c24 0 44 -7.5 60 -22.5s24 -33.167 24 -54.5
c-0.666992 -22 -8.33398 -40.167 -23.001 -54.5s-32.667 -21.166 -54 -20.499z" />
    <glyph glyph-name="less" unicode="&#x3c;" horiz-adv-x="457" 
d="M391 398c-0.666992 -9.33301 -1.16699 -18.168 -1.5 -26.501s-1.16602 -17.166 -2.49902 -26.499l-54 -24c-26 -11.333 -52.167 -22.166 -78.5 -32.499l-78.5 -31.5c-2.66699 -1.33301 -5 -3 -7 -5s-4.33301 -3.66699 -7 -5c2 -2 3.83301 -4 5.5 -6
s3.83398 -3.66699 6.50098 -5c33.333 -20 67.166 -39 101.499 -57s69.5 -34.667 105.5 -50c16.667 -7.33301 24 -20 22 -38c-1.33301 -12.667 -2 -25 -2 -37s-0.333008 -24.333 -1 -37c-1.33301 -11.333 -7 -15 -17 -11l-21 10l-21 10l-99 49.5l-100 50.5l-57.5 30.5
l-57.5 30.5c-16.667 7.33301 -24.334 20.333 -23.001 39l2 30c0.666992 10 0.666992 20 0 30c-0.666992 13.333 5.33301 22.333 18 27l98.5 43.5l99.5 42.5l73.5 29.5l73.5 29.5c9.33301 4 15.666 5 18.999 3s5 -7.66699 5 -17v-13c0 -5.33301 -0.166992 -10.333 -0.5 -15
s-0.666016 -8.83398 -0.999023 -12.501z" />
    <glyph glyph-name="equal" unicode="=" horiz-adv-x="396" 
d="M29 308c-12 0 -18.6689 6.66602 -20.002 19.999l-2 31.5c-0.666992 10.333 -1 20.833 -1 31.5c0 7.33301 1.33301 12.166 4 14.499s7.66699 3.83301 15 4.5h17.5h39h52h55.5h50.5h36.5c12.667 0 19.334 -6 20.001 -18c1.33301 -8 2.83301 -16.167 4.5 -24.5
s3.16699 -16.5 4.5 -24.5c2 -17.333 -5.33301 -27.333 -22 -30c-2.66699 -0.666992 -9.66699 -1.16699 -21 -1.5s-25.166 -0.666016 -41.499 -0.999023s-34 -0.666016 -53 -0.999023l-55.5 -1c-18 -0.333008 -34.5 -0.5 -49.5 -0.5h-33.5zM153.998 242.999
l120.004 -0.00195312c8.66699 0 13.667 -0.666992 15 -2s1.66602 -6.33301 0.999023 -15c0 -11.333 0.166992 -22.166 0.5 -32.499s0.5 -20.833 0.5 -31.5c-0.666992 -9.33301 -2.33398 -15.333 -5.00098 -18s-8.66699 -4.33398 -18 -5.00098h-11l-219 3
c-12.667 0 -20.5 1.33301 -23.5 4s-5.16699 10.334 -6.5 23.001c-1.33301 8.66699 -1.83301 17.334 -1.5 26.001s0.5 17.667 0.5 27c-0.666992 8.66699 0.166016 14.167 2.49902 16.5s8.16602 3.83301 17.499 4.5h127z" />
    <glyph glyph-name="greater" unicode="&#x3e;" horiz-adv-x="473" 
d="M6 119c-3.33301 10 -2.33594 17.8281 2.99707 23.4951s12.666 10.5 21.999 14.5l77 34.5l77 34.5c4.66699 2 9.16699 3.83301 13.5 5.5s8.5 3.83398 12.5 6.50098c2 1.33301 3.5 2.83301 4.5 4.5s2.16699 3.16699 3.5 4.5c-3.33301 3.33301 -6 5.33301 -8 6
c-17.333 7.33301 -36 14.333 -56 21c-25.333 7.33301 -49.333 17.333 -72 30s-45.667 24.667 -69 36c-1.33301 1.33301 -2.83301 3.33301 -4.5 6s-2.5 5.33398 -2.5 8.00098c-0.666992 15.333 -1 30.166 -1 44.499s-0.333008 29.166 -1 44.499c0 10 6 13.333 18 10
l54.5 -19.5c18.333 -6.33301 36.833 -13.166 55.5 -20.499l88.5 -34.5l88.5 -34.5l31 -13.5c10 -4.33301 20.333 -8.5 31 -12.5c6.66699 -2.66699 10.834 -6.16699 12.501 -10.5s2.5 -9.16602 2.5 -14.499c0.666992 -12 0.833984 -23.833 0.500977 -35.5
s0.166992 -23.167 1.5 -34.5c0.666992 -10 -0.666016 -18.167 -3.99902 -24.5s-9.66602 -11.166 -18.999 -14.499l-35.5 -16l-35.5 -16l-112 -52.5l-112 -52.5c-4.66699 -2 -9 -4 -13 -6l-12 -6c-11.333 -5.33301 -19.333 -6.66602 -24 -3.99902s-8 10 -10 22
c-1.33301 10.667 -2.33301 21.334 -3 32.001s-1.66699 22 -3 34z" />
    <glyph glyph-name="question" unicode="?" horiz-adv-x="552" 
d="M231 184c-9.33301 0 -18.332 -0.166016 -26.999 -0.499023s-17.667 -0.166016 -27 0.500977s-15.833 3 -19.5 7s-5.5 10.667 -5.5 20c0 20.667 3.33301 40 10 58s18.334 33.667 35.001 47c12 10 24.333 19 37 27s26.667 14.667 42 20c14 4.66699 24 12.167 30 22.5
s10.333 22.166 13 35.499c4 24 -4 43 -24 57c-5.33301 4 -9.66602 6.33301 -12.999 7c-11.333 2.66699 -24 3.66699 -38 3s-27.5 -3.16699 -40.5 -7.5s-24.833 -10.5 -35.5 -18.5s-18.334 -17.667 -23.001 -29c-2 -4 -3.66699 -8.16699 -5 -12.5
s-5.66602 -7.16602 -12.999 -8.49902c-7.33301 -2 -14 -3.16699 -20 -3.5s-12.667 1.83398 -20 6.50098c-12 8.66699 -24.167 16.667 -36.5 24l-37.5 22c-7.33301 4 -10.833 7.83301 -10.5 11.5s1.83301 8.16699 4.5 13.5c21.333 42 48.666 76 81.999 102
s73.666 43.333 120.999 52c26 4.66699 51.5 6 76.5 4s50.167 -6.66699 75.5 -14c28 -8 50.667 -21.833 68 -41.5s30.666 -42.834 39.999 -69.501c10.667 -29.333 14.167 -57.833 10.5 -85.5s-11.834 -54.834 -24.501 -81.501c-4 -8.66699 -9.83301 -16.334 -17.5 -23.001
s-15.167 -12.667 -22.5 -18s-15 -10 -23 -14s-15.667 -8.33301 -23 -13c-15.333 -8.66699 -28.333 -19 -39 -31s-17.667 -26.667 -21 -44c-2 -9.33301 -5.5 -15.5 -10.5 -18.5s-11.167 -4.5 -18.5 -4.5c-4.66699 0 -9.66699 -0.166992 -15 -0.5s-10.666 -0.5 -15.999 -0.5
c-6 -0.666992 -12.333 -1 -19 -1zM316.001 56.001c0 -9.33301 -0.666992 -16.835 -2 -22.502s-3.66602 -10.5 -6.99902 -14.5s-7.66602 -7.66699 -12.999 -11s-12.333 -6.66602 -21 -9.99902c-20.667 -7.33301 -41.834 -8 -63.501 -2s-37.834 18 -48.501 36
c-7.33301 13.333 -10 26.666 -8 39.999c2.66699 22 13 39.667 31 53s39 19 63 17c20.667 -1.33301 37.5 -10.166 50.5 -26.499s19.167 -36.166 18.5 -59.499z" />
    <glyph glyph-name="at" unicode="@" horiz-adv-x="698" 
d="M12 176c0.666992 40 9.16699 76.332 25.5 108.999s38.5 63 66.5 91c24 23.333 50.333 42.5 79 57.5s60.334 24.5 95.001 28.5c4.66699 0.666992 9.33398 1 14.001 1s9.33398 0.666992 14.001 2c25.333 4 51.833 3.33301 79.5 -2s54 -13.333 79 -24
s47.167 -22.667 66.5 -36s33 -25.666 41 -36.999c20 -28.667 32.667 -57.5 38 -86.5s5.66602 -56.5 0.999023 -82.5s-13 -49.667 -25 -71s-25 -38.333 -39 -51c-22 -20 -46.333 -31.167 -73 -33.5s-51.667 5.5 -75 23.5c-6.66699 5.33301 -12.667 8.5 -18 9.5
s-12 0.166992 -20 -2.5c-18 -7.33301 -36.333 -10.666 -55 -9.99902s-36.667 5.66699 -54 15c-5.33301 3.33301 -10.833 7 -16.5 11s-9.83398 8.66699 -12.501 14c-6 14.667 -10.833 29.667 -14.5 45s-3.16699 31.333 1.5 48c0.666992 2 1.16699 4.16699 1.5 6.5
s1.16602 4.5 2.49902 6.5c18.667 62 62.334 96.667 131.001 104c14.667 2 28.167 1.5 40.5 -1.5s24.833 -7.83301 37.5 -14.5c15.333 -8.66699 21.666 -21 18.999 -37c-3.33301 -15.333 -3.5 -30.166 -0.5 -44.499s6.16699 -28.5 9.5 -42.5
c1.33301 -3.33301 2.33301 -6.33301 3 -9s1.66699 -5.33398 3 -8.00098c3.33301 -5.33301 7.33301 -8.83301 12 -10.5s9.66699 -0.833984 15 2.49902s10.5 7.33301 15.5 12s8.83301 9.66699 11.5 15c3.33301 7.33301 5.83301 15.166 7.5 23.499s1.83398 16.5 0.500977 24.5
c-5.33301 42 -20.166 76 -44.499 102s-58.833 40.667 -103.5 44c-90 8 -160.333 -26 -211 -102c-4.66699 -7.33301 -8.5 -15.166 -11.5 -23.499s-5.83301 -16.833 -8.5 -25.5c-7.33301 -32 -7.33301 -62.333 0 -91s21.666 -55.667 42.999 -81
c14.667 -17.333 31.667 -30.5 51 -39.5s40.666 -11.833 63.999 -8.5c14 1.33301 24.333 2.16602 31 2.49902s11.667 -1 15 -4s6.16602 -7.66699 8.49902 -14l9.5 -26.5c2.66699 -8 4.66699 -16 6 -24c1.33301 -9.33301 0.333008 -16.666 -3 -21.999
s-9.66602 -9.66602 -18.999 -12.999c-66.667 -23.333 -130.667 -15 -192 25c-27.333 17.333 -50.5 37.666 -69.5 60.999s-35.5 49 -49.5 77c-3.33301 6 -6.33301 13.833 -9 23.5s-5 20 -7 31s-3.66699 22 -5 33s-2 20.833 -2 29.5z" />
    <glyph glyph-name="A" unicode="A" horiz-adv-x="708" 
d="M436 638c12 0.666992 19.8291 -0.332031 23.4961 -2.99902s6.83398 -9.66699 9.50098 -21c5.33301 -22 10.166 -43.333 14.499 -64s9.16602 -42 14.499 -64l34 -142l34 -141l15.5 -64.5l15.5 -64.5l6 -25.5l6 -24.5c4 -15.333 -1.33301 -24.333 -16 -27h-7
c-24 -1.33301 -48 -1.5 -72 -0.5s-47.667 0.833008 -71 -0.5c-10 0 -16.167 1.66699 -18.5 5s-4.16602 10.666 -5.49902 21.999c-2 29.333 -7.33301 58.666 -16 87.999c-1.33301 6.66699 -4.16602 10.334 -8.49902 11.001s-8.16602 1 -11.499 1
c-24 0.666992 -48 0.666992 -72 0l-71 -2c-5.33301 0 -9.33301 -1.33301 -12 -4s-4.66699 -6.33398 -6 -11.001c-4 -15.333 -8.16699 -29.666 -12.5 -42.999s-8.5 -27.666 -12.5 -42.999c-2 -7.33301 -4.5 -12.5 -7.5 -15.5s-9.16699 -4.5 -18.5 -4.5h-31h-50
c-17.333 0 -33.166 0.166992 -47.499 0.5s-21.833 0.5 -22.5 0.5c-16 1.33301 -21.333 9.66602 -16 24.999l20 60l21 59l42 133.5l43 133.5l17 56l19.5 64l16.5 53c4.66699 14.667 7.33398 22.667 8.00098 24c2 6.66699 3.5 12 4.5 16s2.66699 7 5 9s6 3.33301 11 4
s12.167 1 21.5 1c8 0 21.5 -0.166992 40.5 -0.5s39 -0.5 60 -0.5h60.5h42zM360.996 243.001c10.667 0.666992 14.665 6.33496 11.998 17.002l-16.5 71l-16.5 71c-0.666992 2 -1.66699 4.16699 -3 6.5s-3.33301 3.5 -6 3.5s-4.16699 -1 -4.5 -3s-0.833008 -3.66699 -1.5 -5
l-22 -64.5l-22 -64.5c-3.33301 -10 -5.66602 -17.5 -6.99902 -22.5s-1.16602 -8.5 0.500977 -10.5s5 -3 10 -3h21.5l6.5 0.5c4.33301 0.333008 9.33301 0.666016 15 0.999023s11.667 0.666016 18 0.999023s11.5 0.833008 15.5 1.5z" />
    <glyph glyph-name="B" unicode="B" horiz-adv-x="636" 
d="M3 604c0 9.33301 1.66406 16.3369 4.99707 21.0039s9.66602 8 18.999 10c5.33301 0.666992 10.666 1 15.999 1h16c24.667 -1.33301 49.667 -1.33301 75 0c34 0.666992 67.833 0.166992 101.5 -1.5s67.5 -4.5 101.5 -8.5c20.667 -2.66699 38.834 -8.66699 54.501 -18
s29.834 -21.666 42.501 -36.999c4 -4.66699 7.5 -11.167 10.5 -19.5s5.83301 -16.833 8.5 -25.5s4.83398 -16.334 6.50098 -23.001s2.5 -10.334 2.5 -11.001c2.66699 -23.333 -0.5 -44.833 -9.5 -64.5s-21.167 -37.834 -36.5 -54.501
c-6 -6.66699 -8.66699 -10.834 -8 -12.501s5.33398 -4.5 14.001 -8.5l27.5 -13.5c9 -4.33301 17.5 -9.5 25.5 -15.5c30.667 -24 46.667 -56 48 -96c0.666992 -59.333 -17.333 -113.666 -54 -162.999c-5.33301 -7.33301 -12.166 -13.833 -20.499 -19.5l-24.5 -16.5
c-12 -8 -24.833 -14 -38.5 -18s-27.834 -6.66699 -42.501 -8c-11.333 -0.666992 -26 -1.16699 -44 -1.5s-37.5 -0.5 -58.5 -0.5h-64.5c-22 0 -42.5 0.166992 -61.5 0.5s-35.5 0.666016 -49.5 0.999023s-23.667 0.5 -29 0.5c-13.333 0.666992 -22.166 3.5 -26.499 8.5
s-6.5 14.167 -6.5 27.5v283l0.5 31c0.333008 20.667 0.5 45.667 0.5 75s-0.166992 60.166 -0.5 92.499s-0.5 60.5 -0.5 84.5zM170.997 140.004c0 -12 5.66504 -17.665 16.998 -16.998c8 0.666992 16 0.833984 24 0.500977s15.667 0.166992 23 1.5
c13.333 2.66699 26.333 6.16699 39 10.5s24.334 11.5 35.001 21.5c15.333 15.333 21.833 31.5 19.5 48.5s-13.166 30.167 -32.499 39.5c-17.333 7.33301 -35.5 12.166 -54.5 14.499s-38.167 3.16602 -57.5 2.49902c-10.667 0 -16 -6.33301 -16 -19
c0 -4 0.166992 -10.833 0.5 -20.5l1 -30.5l1 -30.5c0.333008 -9.66699 0.5 -16.834 0.5 -21.501zM169.995 424.006c0 -12.667 5.33691 -18.666 16.0039 -17.999c11.333 0.666992 22.666 1.16699 33.999 1.5s22.666 1.16602 33.999 2.49902c10 2 19.333 5.5 28 10.5
s14 13.5 16 25.5c5.33301 24.667 -1.66699 43.667 -21 57c-22.667 16.667 -48.334 24.667 -77.001 24c-13.333 0 -21.333 -1.33301 -24 -4s-4.33398 -10.667 -5.00098 -24v-13c0 -6.66699 -0.166992 -14 -0.5 -22s-0.5 -15.667 -0.5 -23v-17z" />
    <glyph glyph-name="C" unicode="C" horiz-adv-x="687" 
d="M-17 288c0 42.667 5.33691 82.832 16.0039 120.499s26.334 73.834 47.001 108.501c9.33301 15.333 20.166 28.833 32.499 40.5s26.166 22.167 41.499 31.5c36.667 22.667 74.667 39 114 49s80.666 13 123.999 9c26 -2.66699 51 -8.83398 75 -18.501l71 -29.5
c16.667 -6.66699 19 -18 7 -34l-40.5 -49l-41.5 -49c-4.66699 -5.33301 -9.66699 -8.5 -15 -9.5s-11.666 -0.833008 -18.999 0.5c-14 2.66699 -28.167 4.33398 -42.5 5.00098s-28.166 0 -41.499 -2c-20 -2 -37.833 -7.33301 -53.5 -16s-29 -19.667 -40 -33
s-19.167 -28.666 -24.5 -45.999s-7.33301 -35.666 -6 -54.999l4 -34.5c1.33301 -11.667 3.66602 -22.834 6.99902 -33.501c6 -18.667 15.167 -33.834 27.5 -45.501s28.833 -18.834 49.5 -21.501c13.333 -2 26.666 -3.66699 39.999 -5s26.666 -0.333008 39.999 3
c18.667 4.66699 34 11.5 46 20.5s24.667 22.167 38 39.5c9.33301 19.333 22 23.333 38 12l51 -34c16.667 -11.333 33.334 -23.333 50.001 -36c10 -7.33301 13.667 -14.166 11 -20.499s-7.66699 -15.166 -15 -26.499c-4 -5.33301 -12.667 -14.166 -26 -26.499
s-29 -25 -47 -38s-37 -25.333 -57 -37s-38.667 -19.834 -56 -24.501c-22 -6 -44 -9.66699 -66 -11s-44.667 -0.666016 -68 2.00098c-30 4 -58.5 11.5 -85.5 22.5s-52.167 26.167 -75.5 45.5c-4 3.33301 -9.5 8.16602 -16.5 14.499s-14.333 13.666 -22 21.999
s-15.334 17.5 -23.001 27.5s-13.834 20.667 -18.501 32s-8.83398 22.333 -12.501 33s-7.16699 21.667 -10.5 33c-2.66699 11.333 -4.16699 22.5 -4.5 33.5s-1.16602 21.167 -2.49902 30.5z" />
    <glyph glyph-name="D" unicode="D" horiz-adv-x="709" 
d="M4 576c0 14 0.333984 24.833 1.00098 32.5s2.83398 13.334 6.50098 17.001s9.16699 6 16.5 7s18 1.83301 32 2.5c7.33301 0 22 0.166992 44 0.5s46 0.5 72 0.5s51.333 -0.333008 76 -1s43.667 -1.66699 57 -3c16 -1.33301 32 -2.83301 48 -4.5s31.667 -5.16699 47 -10.5
c14 -4.66699 27.833 -10.667 41.5 -18s26.5 -15.666 38.5 -24.999c20 -13.333 37.5 -31.166 52.5 -53.499s27.667 -45.166 38 -68.499s18.5 -45.333 24.5 -66s10 -36.334 12 -47.001c8.66699 -48 5.66699 -91.667 -9 -131s-38.334 -76 -71.001 -110
c-22.667 -23.333 -47.334 -42.333 -74.001 -57s-56.334 -24.334 -89.001 -29.001c-42 -6 -83.5 -10.167 -124.5 -12.5s-82.5 -2.83301 -124.5 -1.5c-17.333 0 -34.166 0.666992 -50.499 2s-32.833 2 -49.5 2c-7.33301 -0.666992 -11.833 0.666016 -13.5 3.99902
s-2.5 7.66602 -2.5 12.999c0 2.66699 -0.166992 5.16699 -0.5 7.5s-0.5 4.83301 -0.5 7.5c0 47.333 0.166992 94.5 0.5 141.5s0.5 94.167 0.5 141.5l0.5 28c0.333008 18.667 0.5 41.5 0.5 68.5v85v77.5zM202.001 315c0 -22 -0.167969 -44.001 -0.500977 -66.001
s-0.833008 -44 -1.5 -66c0 -13.333 6.66699 -20.333 20 -21c28.667 -2.66699 56 -0.666992 82 6s50.667 18.667 74 36c11.333 8.66699 21.333 18 30 28s14.667 22 18 36c4.66699 18.667 6.16699 37.334 4.5 56.001s-5.5 37.334 -11.5 56.001
c-5.33301 14 -12.666 26.5 -21.999 37.5s-21.333 19.5 -36 25.5c-21.333 9.33301 -42.833 14.666 -64.5 15.999s-43.5 2 -65.5 2c-13.333 0 -21.166 -1.33301 -23.499 -4s-3.5 -10.667 -3.5 -24c-0.666992 -10 -0.833984 -21.667 -0.500977 -35s0.5 -26.333 0.5 -39v-44z
" />
    <glyph glyph-name="E" unicode="E" horiz-adv-x="583" 
d="M9 431c0 25.333 -0.499023 50.5059 -1.49902 75.5059s-2.16699 50.167 -3.5 75.5c0 3.33301 -0.166992 6.83301 -0.5 10.5s-0.5 7.5 -0.5 11.5c0 11.333 1.33301 19.666 4 24.999s11.667 7.66602 27 6.99902c17.333 -0.666992 39.166 -1 65.499 -1h83h88.5
c30 0 57.5 0.166992 82.5 0.5s46.5 0.5 64.5 0.5h36c13.333 0 20.333 -6.33301 21 -19c0.666992 -17.333 1 -36.333 1 -57v-57c0 -2 -1.5 -4.33301 -4.5 -7s-5.5 -4 -7.5 -4c-9.33301 -1.33301 -18.5 -2.5 -27.5 -3.5s-18.167 -1.5 -27.5 -1.5
c-32.667 -0.666992 -64.334 -1 -95.001 -1s-62.334 -0.333008 -95.001 -1c-11.333 0 -20.166 -0.333008 -26.499 -1s-10.833 -2.5 -13.5 -5.5s-4 -7.66699 -4 -14s0.333008 -15.5 1 -27.5c0 -6.66699 -0.166992 -11 -0.5 -13s-0.166016 -6 0.500977 -12
c0.666992 -8 1.33398 -14.333 2.00098 -19s2 -8.16699 4 -10.5s5.33301 -3.83301 10 -4.5s11.334 -1.33398 20.001 -2.00098c6.66699 -1.33301 15.834 -1.66602 27.501 -0.999023s21.167 0.666992 28.5 0c8 -0.666992 13.833 -1.83398 17.5 -3.50098
s6.16699 -4.16699 7.5 -7.5s1.83301 -7.66602 1.5 -12.999s-0.5 -12 -0.5 -20c0 -2.66699 -0.166992 -5.16699 -0.5 -7.5s-0.166016 -4.83301 0.500977 -7.5c0 -12 -6 -18 -18 -18c-20 -1.33301 -39.667 -1.33301 -59 0c-10.667 0 -19 -0.166992 -25 -0.5
s-10.167 -1.83301 -12.5 -4.5s-3.66602 -6.83398 -3.99902 -12.501s-0.5 -13.5 -0.5 -23.5v-74c0.666992 -14 7.66699 -21 21 -21h243c12 1.33301 20.333 0.5 25 -2.5s7.33398 -10.5 8.00098 -22.5c1.33301 -18.667 2.16602 -39.334 2.49902 -62.001
s0.166016 -43.334 -0.500977 -62.001c0 -2.66699 -1.5 -5.5 -4.5 -8.5s-5.83301 -4.83301 -8.5 -5.5c-4 -0.666992 -13.167 -1 -27.5 -1h-52c-20.333 0 -42.5 0.166992 -66.5 0.5l-71 1c-23.333 0.333008 -45.333 0.5 -66 0.5h-50c-15.333 -0.666992 -31 -0.666992 -47 0
l-47 2c-12.667 0.666992 -20.834 2.83398 -24.501 6.50098s-5.5 11.834 -5.5 24.501v66c0 22 0.333008 44 1 66c0 15.333 0.166992 30.166 0.5 44.499s0.833008 29.166 1.5 44.499c-0.666992 0 -0.833984 6.5 -0.500977 19.5s0.666016 28.667 0.999023 47
s0.666016 37.666 0.999023 57.999s0.5 37.833 0.5 52.5z" />
    <glyph glyph-name="F" unicode="F" horiz-adv-x="635" 
d="M440 638c13.333 -0.666992 26.833 -1.16602 40.5 -1.49902s27.5 -0.5 41.5 -0.5c7.33301 0 11.833 -1.66699 13.5 -5s2.5 -8 2.5 -14c0.666992 -18.667 1 -37.334 1 -56.001s0.333008 -37 1 -55c0 -12.667 -1.33301 -20.834 -4 -24.501s-10.667 -5.5 -24 -5.5h-72
c-24 0 -48 0.333008 -72 1c-17.333 0 -34.333 0.166992 -51 0.5s-33.667 0.5 -51 0.5c-6.66699 0 -13.167 0.166992 -19.5 0.5s-12.833 0.166016 -19.5 -0.500977c-14 -1.33301 -22.5 -3.66602 -25.5 -6.99902s-4.83301 -11.666 -5.5 -24.999
c-0.666992 -12.667 -1.16699 -24 -1.5 -34s-0.833008 -21.333 -1.5 -34c0 -15.333 1.33301 -24.833 4 -28.5s12 -6.16699 28 -7.5c19.333 -2 38.833 -2.5 58.5 -1.5s39.167 0.833008 58.5 -0.5c7.33301 -0.666992 15 -0.833984 23 -0.500977s15.667 0.166016 23 -0.500977
c12 -1.33301 20.833 -2 26.5 -2s9.5 -1.16699 11.5 -3.5s3 -6.16602 3 -11.499s0.666992 -13.333 2 -24c1.33301 -13.333 2 -27 2 -41s-0.333008 -27.667 -1 -41c0 -8.66699 -1.33301 -14.167 -4 -16.5s-8.33398 -3.5 -17.001 -3.5c-30 -0.666992 -60 -1 -90 -1
s-60 -0.333008 -90 -1c-2.66699 0 -5.16699 0.166992 -7.5 0.5s-4.83301 0.5 -7.5 0.5c-12 0 -19.167 -1 -21.5 -3s-3.5 -8.66699 -3.5 -20c-0.666992 -18 -1 -38.333 -1 -61s-0.333008 -43 -1 -61c0 -13.333 -0.5 -23.5 -1.5 -30.5s-3.16699 -12 -6.5 -15
s-8.33301 -4.66699 -15 -5s-16.334 -0.5 -29.001 -0.5c-16.667 0.666992 -33 1.16699 -49 1.5s-32.333 0.833008 -49 1.5c-13.333 1.33301 -21.666 3.5 -24.999 6.5s-5.33301 10.5 -6 22.5c-0.666992 33.333 -1 66.5 -1 99.5s-0.333008 66.167 -1 99.5
c0 12.667 -0.333008 34.167 -1 64.5s-1 62.833 -1 97.5s0.166992 67.834 0.5 99.501s1.16602 55.167 2.49902 70.5c1.33301 10 1.83301 18.5 1.5 25.5s0.166992 15.833 1.5 26.5c0.666992 12 2.33398 19.167 5.00098 21.5s10.334 3.83301 23.001 4.5h16
c10.667 -0.666992 26.167 -1 46.5 -1h68h78.5h78.5c25 0 47.667 -0.166992 68 -0.5s35.833 -0.5 46.5 -0.5z" />
    <glyph glyph-name="G" unicode="G" horiz-adv-x="718" 
d="M475 362l58.0049 0.000976562c19.333 0 38.666 -0.333008 57.999 -1c11.333 -0.666992 18.166 -2 20.499 -4s4.5 -8.33301 6.5 -19c3.33301 -21.333 3.16602 -42.166 -0.500977 -62.499s-8.83398 -40.166 -15.501 -59.499c-8 -24.667 -19 -47.334 -33 -68.001
s-29.667 -40.334 -47 -59.001c-21.333 -23.333 -45 -42.666 -71 -57.999s-55 -25.666 -87 -30.999c-33.333 -5.33301 -66.166 -7.33301 -98.499 -6s-64.5 9.33301 -96.5 24c-17.333 7.33301 -33.666 14.666 -48.999 21.999s-30.333 17 -45 29
c-8.66699 7.33301 -16 15.333 -22 24s-12.667 17.667 -20 27c-4.66699 9.33301 -9.83398 19.166 -15.501 29.499s-10.167 20.833 -13.5 31.5c-20.667 59.333 -26.667 116.5 -18 171.5s28.667 108.5 60 160.5c18 30 41 54.333 69 73s59 33 93 43
c36.667 11.333 73.167 16.833 109.5 16.5s72.833 -4.16602 109.5 -11.499c17.333 -3.33301 33.333 -9 48 -17s29.667 -15.667 45 -23c5.33301 -2.66699 8 -6 8 -10s-2 -7.66699 -6 -11l-50.5 -45.5l-50.5 -45.5c-2.66699 -2 -6.16699 -3.66699 -10.5 -5
s-7.16602 -1.33301 -8.49902 0c-13.333 9.33301 -27.166 13.333 -41.499 12l-42.5 -4c-11.333 -1.33301 -22.5 -3.33301 -33.5 -6s-21.5 -6.33398 -31.5 -11.001c-19.333 -9.33301 -36.5 -23.166 -51.5 -41.499s-25.833 -39 -32.5 -62s-8.5 -47.167 -5.5 -72.5
s12.833 -50 29.5 -74c15.333 -22 34.166 -37.667 56.499 -47s47.166 -12.333 74.499 -9c12.667 1.33301 25 3.66602 37 6.99902s23 9.33301 33 18c4.66699 3.33301 9 7 13 11s7.66699 8.33301 11 13c3.33301 5.33301 6.66602 11.5 9.99902 18.5s4.33301 13.167 3 18.5
c-0.666992 3.33301 -2.16699 5.66602 -4.5 6.99902s-5.16602 2 -8.49902 2s-6.83301 -0.166992 -10.5 -0.5s-6.83398 -0.166016 -9.50098 0.500977c-4.66699 0.666992 -9 1 -13 1s-8.33301 0.333008 -13 1c-14.667 1.33301 -24 4.16602 -28 8.49902s-6.33301 13.833 -7 28.5
c-0.666992 8.66699 -1 17 -1 25s-0.666992 16 -2 24c-0.666992 13.333 4.66602 20 15.999 20c15.333 0 31 -0.166992 47 -0.5s31.667 -0.5 47 -0.5c5.33301 -0.666992 10.5 -1.16699 15.5 -1.5s10.167 -0.5 15.5 -0.5z" />
    <glyph glyph-name="H" unicode="H" horiz-adv-x="645" 
d="M9 518c0 14.667 -0.15918 30.9961 -0.492188 48.9961s-0.5 34.333 -0.5 49c0 8 1.33301 13.5 4 16.5s7.66699 4.5 15 4.5h63c20.667 0 41.334 -0.333008 62.001 -1c20 -0.666992 31 -11.334 33 -32.001c0.666992 -7.33301 0.833984 -15.833 0.500977 -25.5
s-0.5 -18.167 -0.5 -25.5c-0.666992 -20 -1.16699 -40.167 -1.5 -60.5s-0.5 -40.5 -0.5 -60.5c0 -5.33301 0.166992 -10.833 0.5 -16.5s1.16602 -11.167 2.49902 -16.5c1.33301 -3.33301 3.66602 -6.33301 6.99902 -9s6 -4 8 -4h15h106c12 0 21.333 0.166992 28 0.5
s11.667 2 15 5s5.5 7.66699 6.5 14s1.5 15.5 1.5 27.5c1.33301 27.333 1.83301 55.333 1.5 84s-0.5 56.667 -0.5 84c0 4 -0.166992 7.83301 -0.5 11.5s0.166992 7.16699 1.5 10.5c0.666992 10 6.66699 15 18 15c20.667 -1.33301 41.167 -1.83301 61.5 -1.5
s41.166 -0.166992 62.499 -1.5c9.33301 -0.666992 14.666 -2 15.999 -4s2 -8.33301 2 -19c0 -17.333 0.166992 -36.166 0.5 -56.499s0.5 -39.166 0.5 -56.499c-0.666992 -16 -1.16699 -31.833 -1.5 -47.5s-0.5 -31.5 -0.5 -47.5
c-0.666992 -18.667 -0.833984 -37.167 -0.500977 -55.5s0.5 -36.833 0.5 -55.5c0.666992 -40 1 -79.333 1 -118v-118c0 -4.66699 0.166992 -9 0.5 -13s0.166016 -8.33301 -0.500977 -13c-1.33301 -11.333 -4.33301 -19.166 -9 -23.499s-12.667 -6.5 -24 -6.5
c-19.333 -0.666992 -38.333 -0.833984 -57 -0.500977s-37.667 0.166016 -57 -0.500977c-10.667 0 -16 5.33301 -16 16c0 8.66699 0.166992 17.167 0.5 25.5s0.166016 16.833 -0.500977 25.5c-0.666992 23.333 -1.16699 46.166 -1.5 68.499s-1.16602 45.166 -2.49902 68.499
c-0.666992 6.66699 -1.33398 12 -2.00098 16s-2 6.83301 -4 8.5s-5 2.83398 -9 3.50098s-9.33301 1 -16 1l-63 2c-20.667 0.666992 -41.334 0.333984 -62.001 -0.999023c-6.66699 -1.33301 -11.834 -2.16602 -15.501 -2.49902s-6.5 -1.5 -8.5 -3.5
s-3.33301 -4.83301 -4 -8.5s-1 -9.16699 -1 -16.5c-0.666992 -26 -1 -52.833 -1 -80.5v-80.5c0 -14 -2.5 -24 -7.5 -30s-14.833 -10 -29.5 -12c-0.666992 -0.666992 -1.66699 -1 -3 -1c-19.333 0 -38.333 0.166992 -57 0.5s-37.667 0.5 -57 0.5
c-7.33301 0 -12.5 1.83301 -15.5 5.5s-4.83301 8.83398 -5.5 15.501c-0.666992 8.66699 -1.16699 17.167 -1.5 25.5s-0.5 16.833 -0.5 25.5v123.5c0 41 0.333008 82.167 1 123.5l0.5 22c0.333008 14.667 0.666016 32.334 0.999023 53.001l1 65
c0.333008 22.667 0.5 42.334 0.5 59.001z" />
    <glyph glyph-name="I" unicode="I" horiz-adv-x="302" 
d="M198 248l0.00195312 -226.001c0 -10.667 -1.5 -17.167 -4.5 -19.5s-10.167 -2.83301 -21.5 -1.5c-22 2.66699 -44 3.16699 -66 1.5s-45 -2.16699 -69 -1.5c-20.667 -3.33301 -31 5.33398 -31 26.001c-0.666992 12 -0.833984 23.333 -0.500977 34s0.5 22.334 0.5 35.001
c0.666992 30 1 60 1 90v90c0 45.333 -0.166992 93.333 -0.5 144s-0.833008 98.667 -1.5 144c0 8 0.166992 16 0.5 24s0.833008 16 1.5 24c1.33301 9.33301 3.16602 15.166 5.49902 17.499s7.83301 4.16602 16.5 5.49902c25.333 2.66699 50 3.83398 74 3.50098
s48.333 -2.16602 73 -5.49902c7.33301 -0.666992 13.333 -1.33398 18 -2.00098s7.33398 -4.66699 8.00098 -12c1.33301 -6.66699 1.83301 -15 1.5 -25s-0.5 -18.333 -0.5 -25c-0.666992 -44 -1.33398 -93.5 -2.00098 -148.5s-1.66699 -112.5 -3 -172.5z" />
    <glyph glyph-name="J" unicode="J" horiz-adv-x="636" 
d="M524 240c-5.33301 -34.667 -14.502 -67.665 -27.502 -98.998s-30.833 -60.666 -53.5 -87.999c-12.667 -15.333 -26.834 -27.833 -42.501 -37.5s-33.5 -16.5 -53.5 -20.5c-13.333 -2.66699 -26.166 -4.83398 -38.499 -6.50098s-25.166 -2.16699 -38.499 -1.5
c-4 0 -14.167 0.5 -30.5 1.5s-35.166 4.33301 -56.499 10s-43.5 14.834 -66.5 27.501s-43.167 31 -60.5 55c-8.66699 14 -16 28.833 -22 44.5s-11 31.5 -15 47.5c-4.66699 19.333 -8.16699 39.166 -10.5 59.499s-4.83301 40.5 -7.5 60.5
c-0.666992 6.66699 -0.666992 12.167 0 16.5s2 7.83301 4 10.5s5 4.83398 9 6.50098s9.33301 3.16699 16 4.5h15.5h35.5c14 0 28.333 -0.166992 43 -0.5s27.334 -0.5 38.001 -0.5c11.333 0 17 -6.33301 17 -19c-0.666992 -8.66699 -1 -17.334 -1 -26.001
s0.666992 -17.334 2 -26.001c3.33301 -26 13 -45 29 -57s37.333 -16 64 -12c24 4 41.833 11.167 53.5 21.5s20.167 27.833 25.5 52.5c6 32 9 64 9 96c0 39.333 -0.5 76.666 -1.5 111.999s-1.83301 73 -2.5 113c-0.666992 11.333 -0.666992 20.333 0 27s2.5 11.667 5.5 15
s7.5 5.66602 13.5 6.99902s14.667 2 26 2c30 1.33301 60.667 1.33301 92 0c16.667 -0.666992 27.167 -3.5 31.5 -8.5s7.16602 -16.5 8.49902 -34.5v-34.5v-58c0 -22.333 -0.333008 -46.333 -1 -72l-2 -74.5c-0.666992 -24 -1.5 -46.167 -2.5 -66.5
s-2.5 -36.166 -4.5 -47.499z" />
    <glyph glyph-name="K" unicode="K" 
d="M3 609c0 13.333 1.83496 21.502 5.50195 24.502s12.167 4.83301 25.5 5.5h44c14 0 28.667 -0.333008 44 -1c17.333 -0.666992 29 -4.83398 35 -12.501s8.66699 -20.5 8 -38.5c-1.33301 -24.667 -1.5 -49.334 -0.5 -74.001s1.5 -49.334 1.5 -74.001
c0 -4.66699 1.33301 -7.66699 4 -9s6 -0.666016 10 2.00098l63.5 55.5l63.5 56.5c12 10.667 24.667 23.667 38 39s26 28.666 38 39.999c7.33301 7.33301 15 12 23 14s17 2.66699 27 2c36.667 -2 73.667 -3 111 -3c5.33301 0 10.833 -0.333008 16.5 -1s9.5 -4 11.5 -10
c4 -12.667 0.333008 -23.667 -11 -33c-13.333 -11.333 -27 -25 -41 -41s-27.667 -30 -41 -42l-62.5 -56.5l-62.5 -56.5c-5.33301 -4.66699 -9.33301 -8.33398 -12 -11.001s-4.16699 -5.16699 -4.5 -7.5s0.166992 -5.16602 1.5 -8.49902s3.66602 -7.66602 6.99902 -12.999
l58 -99l58 -98l39.5 -62.5l39.5 -61.5c2.66699 -4 5 -7.66699 7 -11s1.33301 -7.33301 -2 -12c-4.66699 -8.66699 -13 -13 -25 -13c-6 0.666992 -15.333 0.833984 -28 0.500977s-25.834 -0.5 -39.501 -0.5s-26.667 0.166992 -39 0.5s-21.166 1.5 -26.499 3.5
s-10 5.5 -14 10.5s-7.66699 10.667 -11 17s-6.5 12.666 -9.5 18.999s-5.83301 11.833 -8.5 16.5l-54 90.5l-52 91.5l-12 18c-5.33301 8.66699 -11.333 10 -18 4c-6 -5.33301 -11.833 -10.833 -17.5 -16.5s-11.5 -11.167 -17.5 -16.5c-5.33301 -4.66699 -8.33301 -10 -9 -16
s-1 -12 -1 -18c0 -26 0.166992 -51.833 0.5 -77.5s0.5 -51.5 0.5 -77.5v-26c-1.33301 -13.333 -8.33301 -20 -21 -20c-19.333 1.33301 -38.333 1.33301 -57 0s-37.667 -1.33301 -57 0c-10.667 1.33301 -17.834 4.33301 -21.501 9s-5.5 12.667 -5.5 24
c-0.666992 25.333 -1 51.666 -1 78.999v79c0 22 0.166992 44 0.5 66s0.5 44 0.5 66c-0.666992 0 -1 10.333 -1 31v75.5c0 29.667 0.166992 60.834 0.5 93.501s0.5 60.667 0.5 84z" />
    <glyph glyph-name="L" unicode="L" horiz-adv-x="521" 
d="M3 616c0 12 5.33496 18.3311 16.002 18.998c19.333 1.33301 37.5 1.83301 54.5 1.5s35.167 -0.166016 54.5 0.500977c15.333 0.666992 25.333 -1.33301 30 -6s7.33398 -14.667 8.00098 -30c2 -47.333 3.16699 -96.5 3.5 -147.5s1.5 -100.167 3.5 -147.5
c0.666992 -20 0.5 -39 -0.5 -57s-0.833008 -36.667 0.5 -56c0.666992 -12.667 2.33398 -20.334 5.00098 -23.001s10.667 -4 24 -4c23.333 -1.33301 46.666 -2 69.999 -2h70h47c10 0 16.833 -2 20.5 -6s5.66699 -10.667 6 -20s1.16602 -23.333 2.49902 -42
c1.33301 -13.333 2.16602 -26.166 2.49902 -38.499s1.16602 -25.166 2.49902 -38.499c0.666992 -13.333 -6.33301 -20 -21 -20c-15.333 0.666992 -31 1.16699 -47 1.5s-32 0.5 -48 0.5h-124c-40.667 0 -81.667 0.333008 -123 1h-11.5c-3.66699 0 -7.16699 0.333008 -10.5 1
c-13.333 1.33301 -22.333 4.5 -27 9.5s-7 14.5 -7 28.5c0 28 0.166992 56.167 0.5 84.5s0.5 56.5 0.5 84.5v21v55c0 22.667 0.166992 48.5 0.5 77.5s0.333008 58.667 0 89l-1 88c-0.333008 28.333 -0.833008 53.5 -1.5 75.5z" />
    <glyph glyph-name="M" unicode="M" horiz-adv-x="980" 
d="M181 299c0 -4.66699 -0.160156 -7.50098 -0.493164 -8.50098s-0.166016 -2.83301 0.500977 -5.5l6 -131l6 -131c0.666992 -9.33301 0 -15 -2 -17s-8.33301 -3.66699 -19 -5c-11.333 -1.33301 -22.333 -2 -33 -2h-32h-45c-14.667 0 -29.334 0.333008 -44.001 1
c-10 0 -14 5 -12 15c-0.666992 38 -0.833984 75.833 -0.500977 113.5s0.5 75.5 0.5 113.5c-2 122.667 -3 245.334 -3 368.001c-0.666992 11.333 0.333008 18.333 3 21s9.33398 4.33398 20.001 5.00098h26.5h39.5h40.5h28.5c10.667 1.33301 19.167 0 25.5 -4
s12.166 -10.667 17.499 -20l59.5 -110.5l60.5 -109.5l72 -132c5.33301 -9.33301 9.66602 -13.833 12.999 -13.5s7.66602 5.16602 12.999 14.499l27 45l27 45c13.333 22.667 27.166 44.834 41.499 66.501s28.166 44.167 41.499 67.5l34.5 61.5l32.5 62.5
c5.33301 9.33301 11.166 16.833 17.499 22.5s15.166 7.83398 26.499 6.50098c4 -0.666992 12.5 -1 25.5 -1h41c14.333 0 27.5 0.166992 39.5 0.5s18.667 0.5 20 0.5c11.333 0 20 -0.333008 26 -1s10.5 -2.5 13.5 -5.5s4.66699 -7.66699 5 -14s0.5 -15.5 0.5 -27.5
c0 -66 0.333008 -131.667 1 -197s1.66699 -131 3 -197c0.666992 -29.333 0.833984 -57.5 0.500977 -84.5s0.166992 -54.833 1.5 -83.5c0.666992 -15.333 -0.166016 -24.333 -2.49902 -27s-10.833 -3.66699 -25.5 -3c-6 0 -15.167 0.166992 -27.5 0.5
s-25.166 0.5 -38.499 0.5h-38h-25c-9.33301 -0.666992 -15.5 0.333008 -18.5 3s-4.5 9 -4.5 19c-0.666992 46 -1.16699 91.333 -1.5 136s-0.833008 90 -1.5 136c0 5.33301 -0.333008 9 -1 11c0 3.33301 -1.33301 6.33301 -4 9c-1.33301 1.33301 -2.5 1.33301 -3.5 0
s-1.83301 -2.33301 -2.5 -3l-9 -13c-2.66699 -4 -5.33398 -8.33301 -8.00098 -13l-76.5 -131.5l-76.5 -132.5c-3.33301 -5.33301 -7 -10 -11 -14s-10.667 -6 -20 -6h-87c-14.667 0 -24.334 2.83301 -29.001 8.5s-9.66699 14.167 -15 25.5l-57 118l-59 117
c-2.66699 5.33301 -5.5 10.666 -8.5 15.999s-6.16699 10.666 -9.5 15.999c-0.666992 1.33301 -1.83398 2.5 -3.50098 3.5s-2.5 -0.833008 -2.5 -5.5z" />
    <glyph glyph-name="N" unicode="N" horiz-adv-x="750" 
d="M4 601l-0.00390625 22.0039c1.33301 11.333 7 16 17 14c25.333 0.666992 49.166 0.666992 71.499 0s45.166 -0.333984 68.499 0.999023c8.66699 0.666992 15.167 -0.5 19.5 -3.5s8.83301 -7.5 13.5 -13.5c18 -26 36 -53.667 54 -83l55.5 -87.5l58 -86
c19.667 -28.333 39.834 -54.5 60.501 -78.5c4.66699 -5.33301 10.334 -11.5 17.001 -18.5s11.334 -10.5 14.001 -10.5s4.33398 5 5.00098 15s1 18.667 1 26c-0.666992 22 -1.16699 46 -1.5 72s-0.833008 52.167 -1.5 78.5s-1.16699 52.5 -1.5 78.5s-0.833008 50 -1.5 72
c-0.666992 14.667 0.5 24 3.5 28s11.5 6.33301 25.5 7c19.333 1.33301 38.333 2.33301 57 3s37.667 0.666992 57 0c17.333 0 28 -2.16699 32 -6.5s6 -14.833 6 -31.5c0 -14 -0.166992 -30 -0.5 -48l-1 -55l-1 -55c-0.333008 -18 -0.5 -34 -0.5 -48
c1.33301 -36.667 2.5 -73.334 3.5 -110.001s2.16699 -73.667 3.5 -111c1.33301 -25.333 2 -50.5 2 -75.5s0.333008 -50.167 1 -75.5c0 -8.66699 -1 -14.167 -3 -16.5s-7.33301 -3.5 -16 -3.5h-84.5c-28.333 0 -56.833 0.666992 -85.5 2c-4 0 -8.33301 1.16699 -13 3.5
s-8.66699 5.16602 -12 8.49902c-19.333 18 -36 36 -50 54c-7.33301 8.66699 -16.333 20.334 -27 35.001s-21.834 30.834 -33.501 48.501l-36 55l-34.5 52.5l-27.5 41.5l-15.5 23.5c-0.666992 1.33301 -2 2 -4 2s-3.66699 0.333008 -5 1
c-0.666992 -0.666992 -1 -1.33398 -1 -2.00098c-0.666992 -0.666992 -1 -2.33398 -1 -5.00098v-46.5c0 -19 0.333008 -34.5 1 -46.5l2 -96c0.666992 -32 1.66699 -64 3 -96c0 -15.333 -2.33301 -25.333 -7 -30s-14.667 -6.66699 -30 -6l-31.5 2
c-10.333 0.666992 -20.833 1 -31.5 1c-10.667 -0.666992 -23.167 -0.666992 -37.5 0s-27.166 0 -38.499 -2c-8.66699 -2 -14 1.33301 -16 10c-1.33301 5.33301 -1.66602 9.66602 -0.999023 12.999s1 7.66602 1 12.999c-2 45.333 -2.66699 90.333 -2 135
s0.333984 89.334 -0.999023 134.001c-0.666992 24 -0.666992 48 0 72s1 48 1 72l-0.5 17.5c-0.333008 11.667 -0.5 25.5 -0.5 41.5s0.166992 32.5 0.5 49.5s0.5 31.167 0.5 42.5z" />
    <glyph glyph-name="O" unicode="O" horiz-adv-x="728" 
d="M632 326c-3.33301 -30.667 -8.33203 -60.3281 -14.999 -88.9951s-16.5 -55.834 -29.5 -81.501s-29.333 -49.334 -49 -71.001s-43.5 -40.5 -71.5 -56.5c-22 -12.667 -44.667 -22.334 -68 -29.001s-47.666 -10 -72.999 -10c-41.333 0 -78.166 5.16699 -110.499 15.5
s-60.666 23.666 -84.999 39.999s-45 34.666 -62 54.999s-31 40.333 -42 60s-19.167 37.834 -24.5 54.501s-8.33301 30 -9 40c-1.33301 18 -2.83301 36 -4.5 54s-0.833984 36.333 2.49902 55c6.66699 32.667 17.834 64.667 33.501 96s35.667 59.666 60 84.999
s53.166 46.833 86.499 64.5s70.666 28.834 111.999 33.501c24.667 3.33301 49.167 3 73.5 -1s48.166 -10.333 71.499 -19c40 -15.333 73.667 -36.833 101 -64.5s49.666 -61.167 66.999 -100.5c9.33301 -21.333 18 -42.333 26 -63s11.333 -43.334 10 -68.001z
M466.001 330.006c0 8 -0.164062 14.1689 -0.49707 18.502s-0.833008 7.83301 -1.5 10.5s-1.33398 5.16699 -2.00098 7.5s-1.33398 5.5 -2.00098 9.5c-2 10 -7.5 20.833 -16.5 32.5s-20 22.667 -33 33s-27.333 19 -43 26s-30.834 10.5 -45.501 10.5
c-30 0 -55.167 -6 -75.5 -18s-36.666 -26.833 -48.999 -44.5s-21.5 -36.834 -27.5 -57.501s-9.33301 -39.667 -10 -57c-0.666992 -11.333 2.16602 -24.5 8.49902 -39.5s16 -29.333 29 -43s29 -25.334 48 -35.001s40.5 -14.5 64.5 -14.5c26.667 0 49.667 5.5 69 16.5
s35.5 24.5 48.5 40.5s22.667 33.333 29 52s9.5 36 9.5 52z" />
    <glyph glyph-name="P" unicode="P" horiz-adv-x="635" 
d="M11 527c0.666992 11.333 0.666992 22.834 0 34.501s-1 23.5 -1 35.5c0.666992 14 3.33398 23.667 8.00098 29s14 8.66602 28 9.99902c11.333 1.33301 22.333 2 33 2h32c36 -0.666992 72 -1 108 -1s72 -0.666992 108 -2c37.333 -2 72.333 -9 105 -21
c9.33301 -3.33301 21.166 -10.5 35.499 -21.5s28 -25 41 -42s24.167 -36.333 33.5 -58s14 -44.5 14 -68.5c0 -37.333 -6.33301 -69 -19 -95s-29 -48.167 -49 -66.5s-42.167 -33.333 -66.5 -45s-48.166 -21.167 -71.499 -28.5c-39.333 -12 -80 -16 -122 -12
c-14 1.33301 -22.333 0 -25 -4s-4 -13.667 -4 -29c-0.666992 -20 -0.833984 -38.5 -0.500977 -55.5s1.16602 -35.167 2.49902 -54.5c0.666992 -14 -1.33301 -24 -6 -30s-14 -8.66699 -28 -8c-20.667 0 -42.334 -0.5 -65.001 -1.5s-44.334 -0.833008 -65.001 0.5
c-9.33301 0.666992 -15.5 2.83398 -18.5 6.50098s-5.16699 10.5 -6.5 20.5c-1.33301 18 -1.66602 36 -0.999023 54s0.666992 36 0 54c-1.33301 34 -2.16602 67.5 -2.49902 100.5s-1.16602 66.5 -2.49902 100.5l0.5 21.5c0.333008 14.333 0.666016 31.666 0.999023 51.999
s0.833008 41.833 1.5 64.5s1.33398 42 2.00098 58zM225 520.001c-13.333 -1.33301 -21.3369 -3.33398 -24.0039 -6.00098s-3.66699 -10.667 -3 -24c0 -18 0.166992 -39.333 0.5 -64s0.833008 -46 1.5 -64c0.666992 -9.33301 2.33398 -15.666 5.00098 -18.999
s8.33398 -4.66602 17.001 -3.99902c6.66699 0.666992 18.167 1.33398 34.5 2.00098s33 3.66699 50 9s31.833 13.666 44.5 24.999s19 28 19 50c0 17.333 -3.5 31.833 -10.5 43.5s-15.667 21.167 -26 28.5s-21.666 12.666 -33.999 15.999s-23.833 5.5 -34.5 6.5
s-19.667 1.33301 -27 1s-11.666 -0.5 -12.999 -0.5z" />
    <glyph glyph-name="Q" unicode="Q" horiz-adv-x="792" 
d="M679 27c8.66699 -8.66699 8.66895 -15.665 0.00195312 -20.998l-55 -38.5l-55 -37.5c-8 -5.33301 -15.667 -3.66602 -23 5.00098l-27.5 33.5l-27.5 34.5c-8 11.333 -18.667 14.666 -32 9.99902c-10.667 -4 -21.334 -7.66699 -32.001 -11s-21.667 -6 -33 -8
c-28 -5.33301 -55.333 -5.5 -82 -0.5s-53 12.167 -79 21.5c-10.667 3.33301 -21.167 7.33301 -31.5 12s-20.5 9.66699 -30.5 15c-31.333 15.333 -59.166 34.166 -83.499 56.499s-42.833 50.166 -55.5 83.499c-4.66699 12 -8.66699 25.167 -12 39.5
s-6.16602 28.5 -8.49902 42.5s-4 27.333 -5 40s-1.5 23.334 -1.5 32.001c0 14.667 2.16699 30.667 6.5 48s10.5 34.833 18.5 52.5s17.667 35 29 52s24 32.5 38 46.5c33.333 33.333 70 58.833 110 76.5s82.333 29.167 127 34.5c30 4 59.5 2.33301 88.5 -5
s56.5 -19.333 82.5 -36c44 -26.667 78 -59.167 102 -97.5s41 -82.5 51 -132.5c7.33301 -38.667 7.16602 -75.334 -0.500977 -110.001s-20.167 -69 -37.5 -103l-12 -26c-2.66699 -6 -3.83398 -11.5 -3.50098 -16.5s2.66602 -10.333 6.99902 -16s10.833 -13.167 19.5 -22.5
l24 -27.5zM471.002 256.002c9.33301 28 13.1641 55.999 11.4971 83.999s-10.5 53.333 -26.5 76c-14.667 20 -31 34.5 -49 43.5s-35.167 14.833 -51.5 17.5s-30.333 3.5 -42 2.5s-18.5 -1.5 -20.5 -1.5c-13.333 -3.33301 -26.166 -9.16602 -38.499 -17.499
s-22.166 -18.5 -29.499 -30.5c-10.667 -16.667 -20 -35 -28 -55s-12 -38.667 -12 -56s1.83301 -30.5 5.5 -39.5l12.5 -30.5c13.333 -30.667 34 -52.167 62 -64.5s59 -17.5 93 -15.5c28.667 1.33301 52.334 9.5 71.001 24.5s32.667 35.833 42 62.5z" />
    <glyph glyph-name="R" unicode="R" 
d="M235 638c36 -1.33301 71.8291 -3.33691 107.496 -6.00391s70.834 -11 105.501 -25c17.333 -7.33301 33 -16.166 47 -26.499s26 -23.166 36 -38.499c15.333 -22.667 26 -46.5 32 -71.5s8 -49.667 6 -74s-7.33301 -47.666 -16 -69.999s-20 -42.5 -34 -60.5
c-6.66699 -8 -14.834 -15.167 -24.501 -21.5l-28.5 -18.5c-5.33301 -3.33301 -8.5 -6.66602 -9.5 -9.99902s0.166992 -7.66602 3.5 -12.999l34.5 -57.5l35.5 -57.5c4.66699 -7.33301 10.334 -17.333 17.001 -30s12.667 -22.667 18 -30c4.66699 -8 5.33398 -16 2.00098 -24
c-2 -5.33301 -4.83301 -8.33301 -8.5 -9s-7.83398 -1 -12.501 -1c-21.333 1.33301 -42.333 1.66602 -63 0.999023s-41.667 -1 -63 -1c-7.33301 0 -12.666 1.33301 -15.999 4s-6.66602 6.66699 -9.99902 12l-41.5 78.5c-15 29 -29.167 55.167 -42.5 78.5
c-2.66699 4.66699 -5.33398 9 -8.00098 13l-8 12c-5.33301 10 -14.333 15 -27 15c-7.33301 0 -14.166 0.5 -20.499 1.5s-13.166 1.5 -20.499 1.5c-10.667 0.666992 -17.834 -0.5 -21.501 -3.5s-5.5 -10.167 -5.5 -21.5l2 -78l2 -78c0.666992 -9.33301 -0.333008 -16 -3 -20
s-8.33398 -7 -17.001 -9c-3.33301 -1.33301 -7 -2 -11 -2h-11c-17.333 0 -34.166 -0.166992 -50.499 -0.5s-33.166 -0.5 -50.499 -0.5c-5.33301 0 -10.333 0.166992 -15 0.5s-9.66699 0.833008 -15 1.5c-11.333 1.33301 -18 7.66602 -20 18.999
c-0.666992 5.33301 -1.5 10.833 -2.5 16.5s-1.5 11.167 -1.5 16.5c0.666992 26.667 1 53.334 1 80.001s0.666992 53.334 2 80.001c0.666992 25.333 1 50.166 1 74.499v74.5c0.666992 40.667 0.666992 81.167 0 121.5s-1 80.833 -1 121.5c0 14.667 2 23.834 6 27.501
s13.667 5.16699 29 4.5h84l11.5 0.5c7.66699 0.333008 17.167 0.833008 28.5 1.5s23 1.16699 35 1.5s22.667 0.166016 32 -0.500977zM200.996 412.996c-0.666992 -9.33301 -0.999023 -18.3311 -0.999023 -26.998v-41c0 -11.333 6 -17 18 -17
c13.333 1.33301 26.5 2.16602 39.5 2.49902s26.167 1.16602 39.5 2.49902c13.333 2 26.166 5.66699 38.499 11s23.5 13.333 33.5 24c7.33301 8 12.166 17.667 14.499 29s2.33301 22.5 0 33.5s-6.83301 20.667 -13.5 29s-15 13.833 -25 16.5
c-45.333 11.333 -89.666 16 -132.999 14c-2 -0.666992 -4.16699 -2.5 -6.5 -5.5s-3.5 -5.5 -3.5 -7.5c-0.666992 -9.33301 -1 -20 -1 -32v-32z" />
    <glyph glyph-name="S" unicode="S" horiz-adv-x="584" 
d="M384 631c17.333 -7.33301 32.0059 -17.334 44.0059 -30.001l37 -38c4 -4 5.33301 -8.66699 4 -14s-3.66602 -9.66602 -6.99902 -12.999l-36 -39.5l-37 -38.5c-5.33301 -6 -12 -6.66699 -20 -2l-20 16c-6.66699 5.33301 -13.667 10 -21 14l-28 15.5
c-9.33301 5 -18.666 9.16699 -27.999 12.5c-11.333 4 -21.5 4.5 -30.5 1.5s-15.833 -9.16699 -20.5 -18.5c-4 -8 -5.16699 -17.5 -3.5 -28.5s6.5 -19.5 14.5 -25.5c10.667 -7.33301 21.5 -14.166 32.5 -20.499l33.5 -18.5l48.5 -27.5c16.333 -9 32.166 -18.167 47.499 -27.5
s29.166 -20.5 41.499 -33.5s24.166 -26.5 35.499 -40.5c13.333 -17.333 21.5 -36 24.5 -56s3.16699 -40.333 0.5 -61c-9.33301 -80 -53 -133.667 -131 -161c-30.667 -10.667 -60.834 -15.5 -90.501 -14.5s-59.834 5.83301 -90.501 14.5c-28 7.33301 -53.667 17.833 -77 31.5
l-70 42.5c-4 2 -8 5 -12 9c-6 5.33301 -10.5 9.5 -13.5 12.5s-4.83301 6.16699 -5.5 9.5s-0.166992 7.16602 1.5 11.499s4.5 10.166 8.5 17.499c7.33301 14 14.166 28.333 20.499 43l19.5 44c2.66699 5.33301 5 10.333 7 15s4.66699 9.33398 8 14.001
c2 3.33301 4.66699 5.5 8 6.5s6.66602 -0.166992 9.99902 -3.5l22 -22l22 -22c17.333 -16.667 36.5 -29.834 57.5 -39.501s42.5 -18.167 64.5 -25.5c8.66699 -2.66699 18.667 -3 30 -1c10 2 18.333 6 25 12s11.167 13 13.5 21s2.5 16.333 0.5 25s-6.66699 16.667 -14 24
c-8.66699 8.66699 -18 16.5 -28 23.5s-20.333 13.5 -31 19.5c-17.333 10.667 -35 20.834 -53 30.501s-36.333 18.834 -55 27.501c-28 13.333 -49.833 30.833 -65.5 52.5s-27.5 46.834 -35.5 75.501c-10 41.333 -3 78.666 21 111.999c9.33301 13.333 18.666 24.5 27.999 33.5
s24 18.5 44 28.5c27.333 13.333 54 21.833 80 25.5s49.833 4.66699 71.5 3s41 -4.83398 58 -9.50098s30.167 -9 39.5 -13z" />
    <glyph glyph-name="T" unicode="T" horiz-adv-x="646" 
d="M350 32c0 -13.333 -1.83398 -21.832 -5.50098 -25.499s-12.167 -5.83398 -25.5 -6.50098c-17.333 -0 -34.5 -0.166992 -51.5 -0.5s-34.167 -0.5 -51.5 -0.5c-10.667 -0.666992 -17.334 0.333008 -20.001 3s-4.33398 9.33398 -5.00098 20.001
c-0.666992 42 -1 83.667 -1 125s-0.333008 83 -1 125c-0.666992 23.333 -1.16699 49.166 -1.5 77.499s-1.16602 54.166 -2.49902 77.499c-0.666992 10 -1 17.5 -1 22.5s-1 8.66699 -3 11s-5.66699 3.66602 -11 3.99902s-13.333 0.5 -24 0.5h-103
c-7.33301 0 -13.166 0.333008 -17.499 1s-7.66602 2 -9.99902 4s-4 5 -5 9s-1.83301 9.66699 -2.5 17c-1.33301 20 -2.16602 40.167 -2.49902 60.5s-0.5 40.5 -0.5 60.5c0 6.66699 2 11.167 6 13.5s8.66699 3.5 14 3.5c80 2 159.667 3 239 3s159 -1.33301 239 -4
c11.333 -0.666992 20.333 -3.66699 27 -9s10.334 -12.666 11.001 -21.999c1.33301 -20 2.16602 -39.833 2.49902 -59.5s0.833008 -39.167 1.5 -58.5c0 -12 -6.33301 -17.333 -19 -16l-39 2c-12.667 0.666992 -25.334 1 -38.001 1c-26 0.666992 -52 0.666992 -78 0
c-9.33301 -0.666992 -15 -2.16699 -17 -4.5s-3 -8.16602 -3 -17.499v-50c0 -22 -0.166992 -46.667 -0.5 -74s-0.333008 -55.833 0 -85.5s0.333008 -58 0 -85s-0.5 -51.5 -0.5 -73.5v-49z" />
    <glyph glyph-name="U" unicode="U" 
d="M6 611c0 12 1.33105 19.3389 3.99805 22.0059s10.667 4 24 4c20 -1.33301 40 -1.5 60 -0.5s40 1.16699 60 0.5c11.333 -0.666992 18 -1.83398 20 -3.50098s3 -8.16699 3 -19.5l-2 -61.5l-2 -61.5c-0.666992 -30 -0.833984 -59.5 -0.500977 -88.5s0.5 -58.167 0.5 -87.5
c0 -16.667 2 -32.834 6 -48.501s10.667 -30.5 20 -44.5c24.667 -40.667 59.667 -57 105 -49c15.333 2 27.333 9.33301 36 22c28.667 38.667 42 80.667 40 126c-1.33301 40 -1.5 80 -0.5 120s0.833008 80 -0.5 120c0 3.33301 -0.166992 8.16602 -0.5 14.499
s-0.666016 13 -0.999023 20l-1 20.5c-0.333008 6.66699 -0.5 11.667 -0.5 15c0 4 5.83301 6.5 17.5 7.5s25.5 1.5 41.5 1.5s31.833 -0.5 47.5 -1.5s27.5 -1.83301 35.5 -2.5c6 -0.666992 10.833 -0.833984 14.5 -0.500977s6.66699 0.333008 9 0s4 -1.66602 5 -3.99902
s1.83301 -6.5 2.5 -12.5c1.33301 -17.333 2.5 -36.166 3.5 -56.499s1.83301 -38.833 2.5 -55.5c1.33301 -24.667 1.5 -49.167 0.5 -73.5s-1.83301 -48.833 -2.5 -73.5c0 -16.667 -0.5 -33.334 -1.5 -50.001s-2.83301 -33.334 -5.5 -50.001
c-7.33301 -48.667 -21.666 -92.834 -42.999 -132.501s-53.666 -73.167 -96.999 -100.5c-13.333 -8.66699 -28.5 -15.334 -45.5 -20.001s-33.667 -8 -50 -10s-31.5 -3 -45.5 -3s-25 0.333008 -33 1c-5.33301 0.666992 -14.5 2.16699 -27.5 4.5s-27.667 6.83301 -44 13.5
s-33.5 15.667 -51.5 27s-34.333 26 -49 44s-26.834 39.833 -36.501 65.5s-14.5 56.167 -14.5 91.5c-0.666992 31.333 -1 62.5 -1 93.5v93.5l-0.5 19.5c-0.333008 13 -0.666016 29 -0.999023 48s-0.5 39 -0.5 60v55.5z" />
    <glyph glyph-name="V" unicode="V" horiz-adv-x="719" 
d="M177 635c6 0 10.0029 -1.83301 12.0029 -5.5s3.66699 -7.16699 5 -10.5c3.33301 -6.66699 6 -13.334 8 -20.001l6 -20l37 -137.5l37 -137.5c2 -6.66699 4.66699 -14 8 -22c1.33301 -1.33301 2.83301 -2.33301 4.5 -3s3.16699 -1.66699 4.5 -3c1.33301 0 3 1.66699 5 5
c2.66699 6.66699 4.66699 11.334 6 14.001c19.333 50.667 39.666 101.167 60.999 151.5s39.666 101.5 54.999 153.5c7.33301 23.333 22 35 44 35h40h49.5h43h20.5c9.33301 -2 12.666 -7.66699 9.99902 -17c0 -2.66699 -0.5 -5.16699 -1.5 -7.5s-2.16699 -4.83301 -3.5 -7.5
l-21 -56c-6.66699 -18.667 -13.667 -37 -21 -55l-60.5 -140.5l-59.5 -139.5l-39 -94.5l-39 -95.5c-5.33301 -13.333 -10 -20.5 -14 -21.5s-12.333 -1.5 -25 -1.5h-167c-6 0.666992 -9.66699 3 -11 7s-2.66602 8.33301 -3.99902 13l-15.5 51.5l-14.5 51.5l-38.5 145.5
l-38.5 144.5c-8 28.667 -16.333 57 -25 85l-26 84c-1.33301 4 -2.5 7.83301 -3.5 11.5s-2.16699 7.5 -3.5 11.5c-3.33301 12.667 -3 21 1 25s12.667 5.66699 26 5c2.66699 0 10.667 0.166992 24 0.5s28.166 0.5 44.499 0.5h47.5h32z" />
    <glyph glyph-name="W" unicode="W" horiz-adv-x="927" 
d="M604 308c1.33301 0 2.50586 1.5 3.50586 4.5s1.83301 6.66699 2.5 11s1.16699 8.66602 1.5 12.999s0.833008 7.83301 1.5 10.5c7.33301 42 14.333 85.5 21 130.5l20 130.5c0.666992 3.33301 1.33398 6.33301 2.00098 9s1.33398 5.66699 2.00098 9c2 8 7.33301 12 16 12
c23.333 -1.33301 46.666 -1.66602 69.999 -0.999023s46.666 0.333984 69.999 -0.999023c12 -1.33301 19.167 -3.83301 21.5 -7.5s2.5 -11.5 0.5 -23.5c-7.33301 -38 -14.5 -78.833 -21.5 -122.5s-14.167 -84.5 -21.5 -122.5l-23.5 -133l-22.5 -132
c-2 -11.333 -4.5 -22.833 -7.5 -34.5s-5.5 -22.834 -7.5 -33.501c-2.66699 -10.667 -5 -17.167 -7 -19.5s-8.33301 -3.83301 -19 -4.5c-23.333 -0.666992 -46.5 -0.5 -69.5 0.5s-46.167 0.833008 -69.5 -0.5c-10.667 -0.666992 -18.834 1.33301 -24.501 6
s-10.167 11.667 -13.5 21l-25.5 61.5l-25.5 60.5l-26 59.5l-26 59.5c-1.33301 1.33301 -2.5 3.16602 -3.5 5.49902s-2.83301 3.5 -5.5 3.5c-2 0 -3.66699 -1.33301 -5 -4s-2.66602 -5 -3.99902 -7c-22.667 -39.333 -43.167 -79.666 -61.5 -120.999l-53.5 -125
c-1.33301 -6.66699 -3.33301 -11 -6 -13c-2.66699 -2.66699 -5.33398 -5 -8.00098 -7s-5.66699 -3 -9 -3c-19.333 -1.33301 -38.333 -1.5 -57 -0.5s-37.667 0.833008 -57 -0.5c-9.33301 0 -15.333 4.66699 -18 14l-24.5 105.5l-24.5 105.5l-22.5 103l-23.5 102
c-2.66699 12 -5.33398 25.333 -8.00098 40l-8 45.5c-2.66699 15.667 -5.5 30.834 -8.5 45.501l-8.5 40c-0.666992 2.66699 -1.33398 5 -2.00098 7s-1.33398 4.33301 -2.00098 7c-1.33301 9.33301 0.166992 15.666 4.5 18.999s11.166 4.66602 20.499 3.99902
c6 -0.666992 15.667 -1.16699 29 -1.5s27.5 -0.5 42.5 -0.5s29 0.166992 42 0.5s22.5 0.833008 28.5 1.5c5.33301 0 8.83301 -1 10.5 -3s3.16699 -5 4.5 -9c2.66699 -9.33301 5.16699 -19.666 7.5 -30.999l7 -35l7 -35.5c2.33301 -11.667 4.5 -21.834 6.5 -30.501l19 -73.5
c6 -24.333 12.333 -48.5 19 -72.5c0.666992 -2 1.5 -4.16699 2.5 -6.5s3.16699 -3.5 6.5 -3.5c2 0 4.33301 2.66699 7 8l42 69c14 22 27.333 45.333 40 70c11.333 23.333 29.666 34 54.999 32c14 -1.33301 28 -1.5 42 -0.5s28.333 1.16699 43 0.5
c5.33301 0 9.33301 -1.33301 12 -4s5.33398 -6.66699 8.00098 -12c12.667 -30 25.667 -59.167 39 -87.5l40 -86.5c1.33301 -3.33301 3.16602 -7.16602 5.49902 -11.499s4.83301 -6.5 7.5 -6.5z" />
    <glyph glyph-name="X" unicode="X" horiz-adv-x="698" 
d="M107 639l73 -0.00390625c12 0 20.333 -5 25 -15c6 -14 13 -27.167 21 -39.5s16.5 -24.5 25.5 -36.5l27 -36.5c9 -12.333 17.5 -24.833 25.5 -37.5c4 -7.33301 7.33301 -10.833 10 -10.5s6.33398 4.16602 11.001 11.499l42 66l41 67
c2.66699 5.33301 5.16699 9.83301 7.5 13.5s5.16602 6.66699 8.49902 9s7.83301 4 13.5 5s13.5 1.5 23.5 1.5h75c9.33301 0 20 0.166992 32 0.5s22.667 0.166016 32 -0.500977c10.667 -0.666992 15.334 -4 14.001 -10s-4.66602 -13.333 -9.99902 -22l-53.5 -77l-52.5 -78
l-41.5 -60.5l-41.5 -59.5c-5.33301 -7.33301 -7.83301 -13.833 -7.5 -19.5s2.5 -12.167 6.5 -19.5l21 -34c6.66699 -11.333 14 -22.666 22 -33.999l64.5 -88.5l65.5 -87.5c0.666992 -1.33301 2.5 -3.66602 5.5 -6.99902s5.83301 -7.16602 8.5 -11.499
s4.83398 -8.66602 6.50098 -12.999s1.83398 -8.16602 0.500977 -11.499c-1.33301 -2 -5.5 -3.33301 -12.5 -4s-13.167 -1 -18.5 -1c-24 0 -47.833 0.5 -71.5 1.5s-47.167 1.16699 -70.5 0.5c-9.33301 -0.666992 -16.833 0.833008 -22.5 4.5s-10.834 8.83398 -15.501 15.501
l-75 117c-1.33301 2.66699 -2.83301 5.33398 -4.5 8.00098s-3.5 5.33398 -5.5 8.00098c-6 6 -11.333 5.66699 -16 -1l-14 -18c-4.66699 -6 -9.33398 -12.333 -14.001 -19l-35.5 -52l-35.5 -52c-4.66699 -6.66699 -11 -10.667 -19 -12h-72.5
c-24.333 0 -48.833 0.333008 -73.5 1c-4.66699 0 -8.33398 0.333008 -11.001 1c-16.667 4 -20 13 -10 27l76.5 108l77.5 108c5.33301 7.33301 10.333 14.666 15 21.999s9.66699 14.666 15 21.999c5.33301 6.66699 7.66602 12.667 6.99902 18s-3 11 -7 17l-54 86l-54 87
l-35 57l-36 57c-12 18.667 -6 28 18 28h46h27z" />
    <glyph glyph-name="Y" unicode="Y" horiz-adv-x="677" 
d="M169 637c5.33301 0 9.33008 -1.16406 11.9971 -3.49707s5.33398 -5.5 8.00098 -9.5c15.333 -22.667 30.666 -48.5 45.999 -77.5s30.666 -55.167 45.999 -78.5l5.5 -7.5l5.5 -7.5c5.33301 -7.33301 11.333 -7.33301 18 0l9 12c8 9.33301 18 22.333 30 39l34.5 49l28.5 42
c8 12 12.333 18.333 13 19c6 12 12.833 19 20.5 21s17.167 3 28.5 3c8.66699 0 19.667 -0.166992 33 -0.5s26.5 -0.5 39.5 -0.5h34.5h18c4.66699 -1.33301 7.83398 -4 9.50098 -8s0.833984 -8.33301 -2.49902 -13c-1.33301 -3.33301 -3.16602 -6.66602 -5.49902 -9.99902
s-4.83301 -6.33301 -7.5 -9c-13.333 -15.333 -26.5 -32.166 -39.5 -50.499l-40 -56l-40.5 -55.5c-13.333 -18 -26.333 -34.667 -39 -50l-44 -50c-13.333 -13.333 -19.666 -30 -18.999 -50c2.66699 -40 3.5 -83.333 2.5 -130s-0.166992 -90 2.5 -130
c0 -7.33301 -1.33301 -13 -4 -17s-8 -6.33301 -16 -7c-20 -1.33301 -39 -1.83301 -57 -1.5s-36.667 0.166016 -56 -0.500977c-9.33301 0 -15.5 1.83301 -18.5 5.5s-5.16699 10.167 -6.5 19.5c0 6 -0.166992 17.167 -0.5 33.5s-0.666016 34.333 -0.999023 54
s-0.5 38.834 -0.5 57.501v43c0 8.66699 -0.333008 18.667 -1 30s-2 22.666 -4 33.999s-4.66699 22.166 -8 32.499s-8 19.5 -14 27.5c-15.333 21.333 -29.5 43.166 -42.5 65.499s-26.5 44.166 -40.5 65.499c-13.333 19.333 -26.833 41.5 -40.5 66.5
s-27.167 47.167 -40.5 66.5c-2 3.33301 -4.33301 6.16602 -7 8.49902s-5 5.16602 -7 8.49902c-4 5.33301 -4.83301 9.83301 -2.5 13.5s6.83301 5.83398 13.5 6.50098h22c12 0 25.667 -0.166992 41 -0.5s30.666 -0.5 45.999 -0.5s28 0.333008 38 1z" />
    <glyph glyph-name="Z" unicode="Z" horiz-adv-x="666" 
d="M521 635c5.33301 0 10.332 -0.166992 14.999 -0.5s9.33398 -0.833008 14.001 -1.5c9.33301 -1.33301 15.333 -3.33301 18 -6s3.66699 -8.66699 3 -18c0 -7.33301 0.166992 -16 0.5 -26s0.5 -20.333 0.5 -31s-0.166992 -21 -0.5 -31s-0.833008 -18.667 -1.5 -26
c0.666992 -15.333 -6.66602 -32 -21.999 -50s-33.666 -40.667 -54.999 -68c-11.333 -14 -27 -31.5 -47 -52.5l-61 -62.5l-58 -56.5l-38 -35.5c-4 -2.66699 -6 -6.66699 -6 -12c0 -3.33301 1.83301 -5 5.5 -5h9.5c38 -0.666992 76 -0.833984 114 -0.500977
s76.333 0.166016 115 -0.500977h9c2.66699 0 5.66699 -0.333008 9 -1c10.667 -2 17.334 -4.66699 20.001 -8s4 -10.333 4 -21c0.666992 -18.667 0.833984 -36.5 0.500977 -53.5s0.166992 -34.833 1.5 -53.5c0.666992 -6.66699 -0.333008 -11 -3 -13s-7 -3 -13 -3
c-34 1.33301 -67.333 1.33301 -100 0s-65.667 -1.66602 -99 -0.999023c-52 1.33301 -103.667 2 -155 2s-103 0.666992 -155 2c-4 0 -7.83301 0.166992 -11.5 0.5s-7.16699 0.833008 -10.5 1.5c-10.667 1.33301 -16 7 -16 17c-0.666992 40 -0.666992 79.333 0 118
c0 4 1.66699 8.16699 5 12.5s6.66602 7.83301 9.99902 10.5c6.66699 5.33301 17 15 31 29l48.5 49l58 60l59.5 62l54.5 54.5c17 16.333 31.167 29.166 42.5 38.499l4.5 4.5c1.66699 1.66699 2.5 3.83398 2.5 6.50098s-1.66699 4 -5 4h-8c-46 1.33301 -91.5 1.5 -136.5 0.5
s-90.5 -1.16699 -136.5 -0.5c-14 0 -22.833 1.5 -26.5 4.5s-5.5 11.833 -5.5 26.5c-0.666992 18.667 -0.833984 37.167 -0.500977 55.5s0.833008 36.5 1.5 54.5c1.33301 10.667 3.66602 17.834 6.99902 21.501s9.33301 5.16699 18 4.5c14.667 -1.33301 35 -2 61 -2h87
c32 0 65.333 0.333008 100 1s67.667 1 99 1s59.666 -0.166992 84.999 -0.5s44.333 -0.833008 57 -1.5z" />
    <glyph glyph-name="backslash" unicode="\" horiz-adv-x="344" 
d="M195 -6c-0.666992 0 -1.99805 -0.337891 -3.99805 -1.00488s-4 -1 -6 -1c-10 -1.33301 -18.167 -1.66602 -24.5 -0.999023s-11.5 2.33398 -15.5 5.00098s-7.33301 7 -10 13s-5.33398 14 -8.00098 24l-29.5 116.5l-29.5 116.5c-4 17.333 -8.5 34.833 -13.5 52.5
s-9.5 35.5 -13.5 53.5c-2.66699 12.667 -4.66699 25.334 -6 38.001s-3.33301 25.334 -6 38.001l-10 39.5l-10 39.5c-1.33301 3.33301 -2.33301 6.66602 -3 9.99902l-2 10c-1.33301 5.33301 -1 9.66602 1 12.999s5.66699 5 11 5c17.333 0.666992 34.333 1.16699 51 1.5
s33.667 0.5 51 0.5c4 0 6.83301 -1.5 8.5 -4.5s3.16699 -6.16699 4.5 -9.5l63 -257.5l62 -257.5c1.33301 -3.33301 2.16602 -6.66602 2.49902 -9.99902s0.833008 -6.66602 1.5 -9.99902c2.66699 -10.667 2.66699 -17.667 0 -21s-9 -5 -19 -5
c-7.33301 -0.666992 -14.5 -0.666992 -21.5 0s-15.167 1.33398 -24.5 2.00098z" />
    <glyph glyph-name="underscore" unicode="_" horiz-adv-x="494" 
d="M274 -143c16 0.666992 28.1689 1.00293 36.502 1.00293s15.833 0.166992 22.5 0.5s14 0.5 22 0.5s19.667 0.333008 35 1c10 0 16 -0.833008 18 -2.5s3.33301 -7.16699 4 -16.5c1.33301 -11.333 2 -22.333 2 -33s0.333008 -21.667 1 -33c0 -12 -5.33301 -18.333 -16 -19
l-30 -2c-10 -0.666992 -20 -1 -30 -1c-17.333 0 -30.166 -0.166992 -38.499 -0.5s-15.833 -0.833008 -22.5 -1.5s-14 -1.16699 -22 -1.5s-20.667 -0.5 -38 -0.5c-7.33301 0 -18.833 0.166992 -34.5 0.5s-32.334 0.666016 -50.001 0.999023s-34.334 0.5 -50.001 0.5
s-26.834 -0.333008 -33.501 -1c-12.667 -0.666992 -21.5 0.833008 -26.5 4.5s-8.83301 11.5 -11.5 23.5c-2 10.667 -3.5 20.667 -4.5 30s-2.16699 19.666 -3.5 30.999c-1.33301 7.33301 -0.5 12.166 2.5 14.499s8.5 3.83301 16.5 4.5c21.333 0 41.5 0.166992 60.5 0.5
s39.5 0.5 61.5 0.5c4.66699 0 13.167 -0.166992 25.5 -0.5s25.5 -0.5 39.5 -0.5s27.167 -0.166992 39.5 -0.5s20.5 -0.5 24.5 -0.5z" />
    <glyph glyph-name="a" unicode="a" horiz-adv-x="708" 
d="M436 638c12 0.666992 19.8291 -0.332031 23.4961 -2.99902s6.83398 -9.66699 9.50098 -21c5.33301 -22 10.166 -43.333 14.499 -64s9.16602 -42 14.499 -64l34 -142l34 -141l15.5 -64.5l15.5 -64.5l6 -25.5l6 -24.5c4 -15.333 -1.33301 -24.333 -16 -27h-7
c-24 -1.33301 -48 -1.5 -72 -0.5s-47.667 0.833008 -71 -0.5c-10 0 -16.167 1.66699 -18.5 5s-4.16602 10.666 -5.49902 21.999c-2 29.333 -7.33301 58.666 -16 87.999c-1.33301 6.66699 -4.16602 10.334 -8.49902 11.001s-8.16602 1 -11.499 1
c-24 0.666992 -48 0.666992 -72 0l-71 -2c-5.33301 0 -9.33301 -1.33301 -12 -4s-4.66699 -6.33398 -6 -11.001c-4 -15.333 -8.16699 -29.666 -12.5 -42.999s-8.5 -27.666 -12.5 -42.999c-2 -7.33301 -4.5 -12.5 -7.5 -15.5s-9.16699 -4.5 -18.5 -4.5h-31h-50
c-17.333 0 -33.166 0.166992 -47.499 0.5s-21.833 0.5 -22.5 0.5c-16 1.33301 -21.333 9.66602 -16 24.999l20 60l21 59l42 133.5l43 133.5l17 56l19.5 64l16.5 53c4.66699 14.667 7.33398 22.667 8.00098 24c2 6.66699 3.5 12 4.5 16s2.66699 7 5 9s6 3.33301 11 4
s12.167 1 21.5 1c8 0 21.5 -0.166992 40.5 -0.5s39 -0.5 60 -0.5h60.5h42zM360.996 243.001c10.667 0.666992 14.665 6.33496 11.998 17.002l-16.5 71l-16.5 71c-0.666992 2 -1.66699 4.16699 -3 6.5s-3.33301 3.5 -6 3.5s-4.16699 -1 -4.5 -3s-0.833008 -3.66699 -1.5 -5
l-22 -64.5l-22 -64.5c-3.33301 -10 -5.66602 -17.5 -6.99902 -22.5s-1.16602 -8.5 0.500977 -10.5s5 -3 10 -3h21.5l6.5 0.5c4.33301 0.333008 9.33301 0.666016 15 0.999023s11.667 0.666016 18 0.999023s11.5 0.833008 15.5 1.5z" />
    <glyph glyph-name="b" unicode="b" horiz-adv-x="636" 
d="M3 604c0 9.33301 1.66406 16.3369 4.99707 21.0039s9.66602 8 18.999 10c5.33301 0.666992 10.666 1 15.999 1h16c24.667 -1.33301 49.667 -1.33301 75 0c34 0.666992 67.833 0.166992 101.5 -1.5s67.5 -4.5 101.5 -8.5c20.667 -2.66699 38.834 -8.66699 54.501 -18
s29.834 -21.666 42.501 -36.999c4 -4.66699 7.5 -11.167 10.5 -19.5s5.83301 -16.833 8.5 -25.5s4.83398 -16.334 6.50098 -23.001s2.5 -10.334 2.5 -11.001c2.66699 -23.333 -0.5 -44.833 -9.5 -64.5s-21.167 -37.834 -36.5 -54.501
c-6 -6.66699 -8.66699 -10.834 -8 -12.501s5.33398 -4.5 14.001 -8.5l27.5 -13.5c9 -4.33301 17.5 -9.5 25.5 -15.5c30.667 -24 46.667 -56 48 -96c0.666992 -59.333 -17.333 -113.666 -54 -162.999c-5.33301 -7.33301 -12.166 -13.833 -20.499 -19.5l-24.5 -16.5
c-12 -8 -24.833 -14 -38.5 -18s-27.834 -6.66699 -42.501 -8c-11.333 -0.666992 -26 -1.16699 -44 -1.5s-37.5 -0.5 -58.5 -0.5h-64.5c-22 0 -42.5 0.166992 -61.5 0.5s-35.5 0.666016 -49.5 0.999023s-23.667 0.5 -29 0.5c-13.333 0.666992 -22.166 3.5 -26.499 8.5
s-6.5 14.167 -6.5 27.5v283l0.5 31c0.333008 20.667 0.5 45.667 0.5 75s-0.166992 60.166 -0.5 92.499s-0.5 60.5 -0.5 84.5zM170.997 140.004c0 -12 5.66504 -17.665 16.998 -16.998c8 0.666992 16 0.833984 24 0.500977s15.667 0.166992 23 1.5
c13.333 2.66699 26.333 6.16699 39 10.5s24.334 11.5 35.001 21.5c15.333 15.333 21.833 31.5 19.5 48.5s-13.166 30.167 -32.499 39.5c-17.333 7.33301 -35.5 12.166 -54.5 14.499s-38.167 3.16602 -57.5 2.49902c-10.667 0 -16 -6.33301 -16 -19
c0 -4 0.166992 -10.833 0.5 -20.5l1 -30.5l1 -30.5c0.333008 -9.66699 0.5 -16.834 0.5 -21.501zM169.995 424.006c0 -12.667 5.33691 -18.666 16.0039 -17.999c11.333 0.666992 22.666 1.16699 33.999 1.5s22.666 1.16602 33.999 2.49902c10 2 19.333 5.5 28 10.5
s14 13.5 16 25.5c5.33301 24.667 -1.66699 43.667 -21 57c-22.667 16.667 -48.334 24.667 -77.001 24c-13.333 0 -21.333 -1.33301 -24 -4s-4.33398 -10.667 -5.00098 -24v-13c0 -6.66699 -0.166992 -14 -0.5 -22s-0.5 -15.667 -0.5 -23v-17z" />
    <glyph glyph-name="c" unicode="c" horiz-adv-x="708" 
d="M3 288c0 42.667 5.33691 82.832 16.0039 120.499s26.334 73.834 47.001 108.501c9.33301 15.333 20.166 28.833 32.499 40.5s26.166 22.167 41.499 31.5c36.667 22.667 74.667 39 114 49s80.666 13 123.999 9c26 -2.66699 51 -8.83398 75 -18.501l71 -29.5
c16.667 -6.66699 19 -18 7 -34l-40.5 -49l-41.5 -49c-4.66699 -5.33301 -9.66699 -8.5 -15 -9.5s-11.666 -0.833008 -18.999 0.5c-14 2.66699 -28.167 4.33398 -42.5 5.00098s-28.166 0 -41.499 -2c-20 -2 -37.833 -7.33301 -53.5 -16s-29 -19.667 -40 -33
s-19.167 -28.666 -24.5 -45.999s-7.33301 -35.666 -6 -54.999l4 -34.5c1.33301 -11.667 3.66602 -22.834 6.99902 -33.501c6 -18.667 15.167 -33.834 27.5 -45.501s28.833 -18.834 49.5 -21.501c13.333 -2 26.666 -3.66699 39.999 -5s26.666 -0.333008 39.999 3
c18.667 4.66699 34 11.5 46 20.5s24.667 22.167 38 39.5c9.33301 19.333 22 23.333 38 12l51 -34c16.667 -11.333 33.334 -23.333 50.001 -36c10 -7.33301 13.667 -14.166 11 -20.499s-7.66699 -15.166 -15 -26.499c-4 -5.33301 -12.667 -14.166 -26 -26.499
s-29 -25 -47 -38s-37 -25.333 -57 -37s-38.667 -19.834 -56 -24.501c-22 -6 -44 -9.66699 -66 -11s-44.667 -0.666016 -68 2.00098c-30 4 -58.5 11.5 -85.5 22.5s-52.167 26.167 -75.5 45.5c-4 3.33301 -9.5 8.16602 -16.5 14.499s-14.333 13.666 -22 21.999
s-15.334 17.5 -23.001 27.5s-13.834 20.667 -18.501 32s-8.83398 22.333 -12.501 33s-7.16699 21.667 -10.5 33c-2.66699 11.333 -4.16699 22.5 -4.5 33.5s-1.16602 21.167 -2.49902 30.5z" />
    <glyph glyph-name="d" unicode="d" horiz-adv-x="708" 
d="M4 576c0 14 0.333984 24.833 1.00098 32.5s2.83398 13.334 6.50098 17.001s9.16699 6 16.5 7s18 1.83301 32 2.5c7.33301 0 22 0.166992 44 0.5s46 0.5 72 0.5s51.333 -0.333008 76 -1s43.667 -1.66699 57 -3c16 -1.33301 32 -2.83301 48 -4.5s31.667 -5.16699 47 -10.5
c14 -4.66699 27.833 -10.667 41.5 -18s26.5 -15.666 38.5 -24.999c20 -13.333 37.5 -31.166 52.5 -53.499s27.667 -45.166 38 -68.499s18.5 -45.333 24.5 -66s10 -36.334 12 -47.001c8.66699 -48 5.66699 -91.667 -9 -131s-38.334 -76 -71.001 -110
c-22.667 -23.333 -47.334 -42.333 -74.001 -57s-56.334 -24.334 -89.001 -29.001c-42 -6 -83.5 -10.167 -124.5 -12.5s-82.5 -2.83301 -124.5 -1.5c-17.333 0 -34.166 0.666992 -50.499 2s-32.833 2 -49.5 2c-7.33301 -0.666992 -11.833 0.666016 -13.5 3.99902
s-2.5 7.66602 -2.5 12.999c0 2.66699 -0.166992 5.16699 -0.5 7.5s-0.5 4.83301 -0.5 7.5c0 47.333 0.166992 94.5 0.5 141.5s0.5 94.167 0.5 141.5l0.5 28c0.333008 18.667 0.5 41.5 0.5 68.5v85v77.5zM202.001 315c0 -22 -0.167969 -44.001 -0.500977 -66.001
s-0.833008 -44 -1.5 -66c0 -13.333 6.66699 -20.333 20 -21c28.667 -2.66699 56 -0.666992 82 6s50.667 18.667 74 36c11.333 8.66699 21.333 18 30 28s14.667 22 18 36c4.66699 18.667 6.16699 37.334 4.5 56.001s-5.5 37.334 -11.5 56.001
c-5.33301 14 -12.666 26.5 -21.999 37.5s-21.333 19.5 -36 25.5c-21.333 9.33301 -42.833 14.666 -64.5 15.999s-43.5 2 -65.5 2c-13.333 0 -21.166 -1.33301 -23.499 -4s-3.5 -10.667 -3.5 -24c-0.666992 -10 -0.833984 -21.667 -0.500977 -35s0.5 -26.333 0.5 -39v-44z
" />
    <glyph glyph-name="e" unicode="e" horiz-adv-x="583" 
d="M9 431c0 25.333 -0.499023 50.5059 -1.49902 75.5059s-2.16699 50.167 -3.5 75.5c0 3.33301 -0.166992 6.83301 -0.5 10.5s-0.5 7.5 -0.5 11.5c0 11.333 1.33301 19.666 4 24.999s11.667 7.66602 27 6.99902c17.333 -0.666992 39.166 -1 65.499 -1h83h88.5
c30 0 57.5 0.166992 82.5 0.5s46.5 0.5 64.5 0.5h36c13.333 0 20.333 -6.33301 21 -19c0.666992 -17.333 1 -36.333 1 -57v-57c0 -2 -1.5 -4.33301 -4.5 -7s-5.5 -4 -7.5 -4c-9.33301 -1.33301 -18.5 -2.5 -27.5 -3.5s-18.167 -1.5 -27.5 -1.5
c-32.667 -0.666992 -64.334 -1 -95.001 -1s-62.334 -0.333008 -95.001 -1c-11.333 0 -20.166 -0.333008 -26.499 -1s-10.833 -2.5 -13.5 -5.5s-4 -7.66699 -4 -14s0.333008 -15.5 1 -27.5c0 -6.66699 -0.166992 -11 -0.5 -13s-0.166016 -6 0.500977 -12
c0.666992 -8 1.33398 -14.333 2.00098 -19s2 -8.16699 4 -10.5s5.33301 -3.83301 10 -4.5s11.334 -1.33398 20.001 -2.00098c6.66699 -1.33301 15.834 -1.66602 27.501 -0.999023s21.167 0.666992 28.5 0c8 -0.666992 13.833 -1.83398 17.5 -3.50098
s6.16699 -4.16699 7.5 -7.5s1.83301 -7.66602 1.5 -12.999s-0.5 -12 -0.5 -20c0 -2.66699 -0.166992 -5.16699 -0.5 -7.5s-0.166016 -4.83301 0.500977 -7.5c0 -12 -6 -18 -18 -18c-20 -1.33301 -39.667 -1.33301 -59 0c-10.667 0 -19 -0.166992 -25 -0.5
s-10.167 -1.83301 -12.5 -4.5s-3.66602 -6.83398 -3.99902 -12.501s-0.5 -13.5 -0.5 -23.5v-74c0.666992 -14 7.66699 -21 21 -21h243c12 1.33301 20.333 0.5 25 -2.5s7.33398 -10.5 8.00098 -22.5c1.33301 -18.667 2.16602 -39.334 2.49902 -62.001
s0.166016 -43.334 -0.500977 -62.001c0 -2.66699 -1.5 -5.5 -4.5 -8.5s-5.83301 -4.83301 -8.5 -5.5c-4 -0.666992 -13.167 -1 -27.5 -1h-52c-20.333 0 -42.5 0.166992 -66.5 0.5l-71 1c-23.333 0.333008 -45.333 0.5 -66 0.5h-50c-15.333 -0.666992 -31 -0.666992 -47 0
l-47 2c-12.667 0.666992 -20.834 2.83398 -24.501 6.50098s-5.5 11.834 -5.5 24.501v66c0 22 0.333008 44 1 66c0 15.333 0.166992 30.166 0.5 44.499s0.833008 29.166 1.5 44.499c-0.666992 0 -0.833984 6.5 -0.500977 19.5s0.666016 28.667 0.999023 47
s0.666016 37.666 0.999023 57.999s0.5 37.833 0.5 52.5z" />
    <glyph glyph-name="f" unicode="f" horiz-adv-x="635" 
d="M440 638c13.333 -0.666992 26.833 -1.16602 40.5 -1.49902s27.5 -0.5 41.5 -0.5c7.33301 0 11.833 -1.66699 13.5 -5s2.5 -8 2.5 -14c0.666992 -18.667 1 -37.334 1 -56.001s0.333008 -37 1 -55c0 -12.667 -1.33301 -20.834 -4 -24.501s-10.667 -5.5 -24 -5.5h-72
c-24 0 -48 0.333008 -72 1c-17.333 0 -34.333 0.166992 -51 0.5s-33.667 0.5 -51 0.5c-6.66699 0 -13.167 0.166992 -19.5 0.5s-12.833 0.166016 -19.5 -0.500977c-14 -1.33301 -22.5 -3.66602 -25.5 -6.99902s-4.83301 -11.666 -5.5 -24.999
c-0.666992 -12.667 -1.16699 -24 -1.5 -34s-0.833008 -21.333 -1.5 -34c0 -15.333 1.33301 -24.833 4 -28.5s12 -6.16699 28 -7.5c19.333 -2 38.833 -2.5 58.5 -1.5s39.167 0.833008 58.5 -0.5c7.33301 -0.666992 15 -0.833984 23 -0.500977s15.667 0.166016 23 -0.500977
c12 -1.33301 20.833 -2 26.5 -2s9.5 -1.16699 11.5 -3.5s3 -6.16602 3 -11.499s0.666992 -13.333 2 -24c1.33301 -13.333 2 -27 2 -41s-0.333008 -27.667 -1 -41c0 -8.66699 -1.33301 -14.167 -4 -16.5s-8.33398 -3.5 -17.001 -3.5c-30 -0.666992 -60 -1 -90 -1
s-60 -0.333008 -90 -1c-2.66699 0 -5.16699 0.166992 -7.5 0.5s-4.83301 0.5 -7.5 0.5c-12 0 -19.167 -1 -21.5 -3s-3.5 -8.66699 -3.5 -20c-0.666992 -18 -1 -38.333 -1 -61s-0.333008 -43 -1 -61c0 -13.333 -0.5 -23.5 -1.5 -30.5s-3.16699 -12 -6.5 -15
s-8.33301 -4.66699 -15 -5s-16.334 -0.5 -29.001 -0.5c-16.667 0.666992 -33 1.16699 -49 1.5s-32.333 0.833008 -49 1.5c-13.333 1.33301 -21.666 3.5 -24.999 6.5s-5.33301 10.5 -6 22.5c-0.666992 33.333 -1 66.5 -1 99.5s-0.333008 66.167 -1 99.5
c0 12.667 -0.333008 34.167 -1 64.5s-1 62.833 -1 97.5s0.166992 67.834 0.5 99.501s1.16602 55.167 2.49902 70.5c1.33301 10 1.83301 18.5 1.5 25.5s0.166992 15.833 1.5 26.5c0.666992 12 2.33398 19.167 5.00098 21.5s10.334 3.83301 23.001 4.5h16
c10.667 -0.666992 26.167 -1 46.5 -1h68h78.5h78.5c25 0 47.667 -0.166992 68 -0.5s35.833 -0.5 46.5 -0.5z" />
    <glyph glyph-name="g" unicode="g" horiz-adv-x="719" 
d="M474 362l58.0049 0.000976562c19.333 0 38.666 -0.333008 57.999 -1c11.333 -0.666992 18.166 -2 20.499 -4s4.5 -8.33301 6.5 -19c3.33301 -21.333 3.16602 -42.166 -0.500977 -62.499s-8.83398 -40.166 -15.501 -59.499c-8 -24.667 -19 -47.334 -33 -68.001
s-29.667 -40.334 -47 -59.001c-21.333 -23.333 -45 -42.666 -71 -57.999s-55 -25.666 -87 -30.999c-33.333 -5.33301 -66.166 -7.33301 -98.499 -6s-64.5 9.33301 -96.5 24c-17.333 7.33301 -33.666 14.666 -48.999 21.999s-30.333 17 -45 29
c-8.66699 7.33301 -16 15.333 -22 24s-12.667 17.667 -20 27c-4.66699 9.33301 -9.83398 19.166 -15.501 29.499s-10.167 20.833 -13.5 31.5c-20.667 59.333 -26.667 116.5 -18 171.5s28.667 108.5 60 160.5c18 30 41 54.333 69 73s59 33 93 43
c36.667 11.333 73.167 16.833 109.5 16.5s72.833 -4.16602 109.5 -11.499c17.333 -3.33301 33.333 -9 48 -17s29.667 -15.667 45 -23c5.33301 -2.66699 8 -6 8 -10s-2 -7.66699 -6 -11l-50.5 -45.5l-50.5 -45.5c-2.66699 -2 -6.16699 -3.66699 -10.5 -5
s-7.16602 -1.33301 -8.49902 0c-13.333 9.33301 -27.166 13.333 -41.499 12l-42.5 -4c-11.333 -1.33301 -22.5 -3.33301 -33.5 -6s-21.5 -6.33398 -31.5 -11.001c-19.333 -9.33301 -36.5 -23.166 -51.5 -41.499s-25.833 -39 -32.5 -62s-8.5 -47.167 -5.5 -72.5
s12.833 -50 29.5 -74c15.333 -22 34.166 -37.667 56.499 -47s47.166 -12.333 74.499 -9c12.667 1.33301 25 3.66602 37 6.99902s23 9.33301 33 18c4.66699 3.33301 9 7 13 11s7.66699 8.33301 11 13c3.33301 5.33301 6.66602 11.5 9.99902 18.5s4.33301 13.167 3 18.5
c-0.666992 3.33301 -2.16699 5.66602 -4.5 6.99902s-5.16602 2 -8.49902 2s-6.83301 -0.166992 -10.5 -0.5s-6.83398 -0.166016 -9.50098 0.500977c-4.66699 0.666992 -9 1 -13 1s-8.33301 0.333008 -13 1c-14.667 1.33301 -24 4.16602 -28 8.49902s-6.33301 13.833 -7 28.5
c-0.666992 8.66699 -1 17 -1 25s-0.666992 16 -2 24c-0.666992 13.333 4.66602 20 15.999 20c15.333 0 31 -0.166992 47 -0.5s31.667 -0.5 47 -0.5c5.33301 -0.666992 10.5 -1.16699 15.5 -1.5s10.167 -0.5 15.5 -0.5z" />
    <glyph glyph-name="h" unicode="h" horiz-adv-x="646" 
d="M9 518c0 14.667 -0.15918 30.9961 -0.492188 48.9961s-0.5 34.333 -0.5 49c0 8 1.33301 13.5 4 16.5s7.66699 4.5 15 4.5h63c20.667 0 41.334 -0.333008 62.001 -1c20 -0.666992 31 -11.334 33 -32.001c0.666992 -7.33301 0.833984 -15.833 0.500977 -25.5
s-0.5 -18.167 -0.5 -25.5c-0.666992 -20 -1.16699 -40.167 -1.5 -60.5s-0.5 -40.5 -0.5 -60.5c0 -5.33301 0.166992 -10.833 0.5 -16.5s1.16602 -11.167 2.49902 -16.5c1.33301 -3.33301 3.66602 -6.33301 6.99902 -9s6 -4 8 -4h15h106c12 0 21.333 0.166992 28 0.5
s11.667 2 15 5s5.5 7.66699 6.5 14s1.5 15.5 1.5 27.5c1.33301 27.333 1.83301 55.333 1.5 84s-0.5 56.667 -0.5 84c0 4 -0.166992 7.83301 -0.5 11.5s0.166992 7.16699 1.5 10.5c0.666992 10 6.66699 15 18 15c20.667 -1.33301 41.167 -1.83301 61.5 -1.5
s41.166 -0.166992 62.499 -1.5c9.33301 -0.666992 14.666 -2 15.999 -4s2 -8.33301 2 -19c0 -17.333 0.166992 -36.166 0.5 -56.499s0.5 -39.166 0.5 -56.499c-0.666992 -16 -1.16699 -31.833 -1.5 -47.5s-0.5 -31.5 -0.5 -47.5
c-0.666992 -18.667 -0.833984 -37.167 -0.500977 -55.5s0.5 -36.833 0.5 -55.5c0.666992 -40 1 -79.333 1 -118v-118c0 -4.66699 0.166992 -9 0.5 -13s0.166016 -8.33301 -0.500977 -13c-1.33301 -11.333 -4.33301 -19.166 -9 -23.499s-12.667 -6.5 -24 -6.5
c-19.333 -0.666992 -38.333 -0.833984 -57 -0.500977s-37.667 0.166016 -57 -0.500977c-10.667 0 -16 5.33301 -16 16c0 8.66699 0.166992 17.167 0.5 25.5s0.166016 16.833 -0.500977 25.5c-0.666992 23.333 -1.16699 46.166 -1.5 68.499s-1.16602 45.166 -2.49902 68.499
c-0.666992 6.66699 -1.33398 12 -2.00098 16s-2 6.83301 -4 8.5s-5 2.83398 -9 3.50098s-9.33301 1 -16 1l-63 2c-20.667 0.666992 -41.334 0.333984 -62.001 -0.999023c-6.66699 -1.33301 -11.834 -2.16602 -15.501 -2.49902s-6.5 -1.5 -8.5 -3.5
s-3.33301 -4.83301 -4 -8.5s-1 -9.16699 -1 -16.5c-0.666992 -26 -1 -52.833 -1 -80.5v-80.5c0 -14 -2.5 -24 -7.5 -30s-14.833 -10 -29.5 -12c-0.666992 -0.666992 -1.66699 -1 -3 -1c-19.333 0 -38.333 0.166992 -57 0.5s-37.667 0.5 -57 0.5
c-7.33301 0 -12.5 1.83301 -15.5 5.5s-4.83301 8.83398 -5.5 15.501c-0.666992 8.66699 -1.16699 17.167 -1.5 25.5s-0.5 16.833 -0.5 25.5v123.5c0 41 0.333008 82.167 1 123.5l0.5 22c0.333008 14.667 0.666016 32.334 0.999023 53.001l1 65
c0.333008 22.667 0.5 42.334 0.5 59.001z" />
    <glyph glyph-name="i" unicode="i" horiz-adv-x="302" 
d="M198 248l0.00195312 -226.001c0 -10.667 -1.5 -17.167 -4.5 -19.5s-10.167 -2.83301 -21.5 -1.5c-22 2.66699 -44 3.16699 -66 1.5s-45 -2.16699 -69 -1.5c-20.667 -3.33301 -31 5.33398 -31 26.001c-0.666992 12 -0.833984 23.333 -0.500977 34s0.5 22.334 0.5 35.001
c0.666992 30 1 60 1 90v90c0 45.333 -0.166992 93.333 -0.5 144s-0.833008 98.667 -1.5 144c0 8 0.166992 16 0.5 24s0.833008 16 1.5 24c1.33301 9.33301 3.16602 15.166 5.49902 17.499s7.83301 4.16602 16.5 5.49902c25.333 2.66699 50 3.83398 74 3.50098
s48.333 -2.16602 73 -5.49902c7.33301 -0.666992 13.333 -1.33398 18 -2.00098s7.33398 -4.66699 8.00098 -12c1.33301 -6.66699 1.83301 -15 1.5 -25s-0.5 -18.333 -0.5 -25c-0.666992 -44 -1.33398 -93.5 -2.00098 -148.5s-1.66699 -112.5 -3 -172.5z" />
    <glyph glyph-name="j" unicode="j" horiz-adv-x="635" 
d="M524 240c-5.33301 -34.667 -14.502 -67.665 -27.502 -98.998s-30.833 -60.666 -53.5 -87.999c-12.667 -15.333 -26.834 -27.833 -42.501 -37.5s-33.5 -16.5 -53.5 -20.5c-13.333 -2.66699 -26.166 -4.83398 -38.499 -6.50098s-25.166 -2.16699 -38.499 -1.5
c-4 0 -14.167 0.5 -30.5 1.5s-35.166 4.33301 -56.499 10s-43.5 14.834 -66.5 27.501s-43.167 31 -60.5 55c-8.66699 14 -16 28.833 -22 44.5s-11 31.5 -15 47.5c-4.66699 19.333 -8.16699 39.166 -10.5 59.499s-4.83301 40.5 -7.5 60.5
c-0.666992 6.66699 -0.666992 12.167 0 16.5s2 7.83301 4 10.5s5 4.83398 9 6.50098s9.33301 3.16699 16 4.5h15.5h35.5c14 0 28.333 -0.166992 43 -0.5s27.334 -0.5 38.001 -0.5c11.333 0 17 -6.33301 17 -19c-0.666992 -8.66699 -1 -17.334 -1 -26.001
s0.666992 -17.334 2 -26.001c3.33301 -26 13 -45 29 -57s37.333 -16 64 -12c24 4 41.833 11.167 53.5 21.5s20.167 27.833 25.5 52.5c6 32 9 64 9 96c0 39.333 -0.5 76.666 -1.5 111.999s-1.83301 73 -2.5 113c-0.666992 11.333 -0.666992 20.333 0 27s2.5 11.667 5.5 15
s7.5 5.66602 13.5 6.99902s14.667 2 26 2c30 1.33301 60.667 1.33301 92 0c16.667 -0.666992 27.167 -3.5 31.5 -8.5s7.16602 -16.5 8.49902 -34.5v-34.5v-58c0 -22.333 -0.333008 -46.333 -1 -72l-2 -74.5c-0.666992 -24 -1.5 -46.167 -2.5 -66.5
s-2.5 -36.166 -4.5 -47.499z" />
    <glyph glyph-name="k" unicode="k" 
d="M3 609c0 13.333 1.83496 21.502 5.50195 24.502s12.167 4.83301 25.5 5.5h44c14 0 28.667 -0.333008 44 -1c17.333 -0.666992 29 -4.83398 35 -12.501s8.66699 -20.5 8 -38.5c-1.33301 -24.667 -1.5 -49.334 -0.5 -74.001s1.5 -49.334 1.5 -74.001
c0 -4.66699 1.33301 -7.66699 4 -9s6 -0.666016 10 2.00098l63.5 55.5l63.5 56.5c12 10.667 24.667 23.667 38 39s26 28.666 38 39.999c7.33301 7.33301 15 12 23 14s17 2.66699 27 2c36.667 -2 73.667 -3 111 -3c5.33301 0 10.833 -0.333008 16.5 -1s9.5 -4 11.5 -10
c4 -12.667 0.333008 -23.667 -11 -33c-13.333 -11.333 -27 -25 -41 -41s-27.667 -30 -41 -42l-62.5 -56.5l-62.5 -56.5c-5.33301 -4.66699 -9.33301 -8.33398 -12 -11.001s-4.16699 -5.16699 -4.5 -7.5s0.166992 -5.16602 1.5 -8.49902s3.66602 -7.66602 6.99902 -12.999
l58 -99l58 -98l39.5 -62.5l39.5 -61.5c2.66699 -4 5 -7.66699 7 -11s1.33301 -7.33301 -2 -12c-4.66699 -8.66699 -13 -13 -25 -13c-6 0.666992 -15.333 0.833984 -28 0.500977s-25.834 -0.5 -39.501 -0.5s-26.667 0.166992 -39 0.5s-21.166 1.5 -26.499 3.5
s-10 5.5 -14 10.5s-7.66699 10.667 -11 17s-6.5 12.666 -9.5 18.999s-5.83301 11.833 -8.5 16.5l-54 90.5l-52 91.5l-12 18c-5.33301 8.66699 -11.333 10 -18 4c-6 -5.33301 -11.833 -10.833 -17.5 -16.5s-11.5 -11.167 -17.5 -16.5c-5.33301 -4.66699 -8.33301 -10 -9 -16
s-1 -12 -1 -18c0 -26 0.166992 -51.833 0.5 -77.5s0.5 -51.5 0.5 -77.5v-26c-1.33301 -13.333 -8.33301 -20 -21 -20c-19.333 1.33301 -38.333 1.33301 -57 0s-37.667 -1.33301 -57 0c-10.667 1.33301 -17.834 4.33301 -21.501 9s-5.5 12.667 -5.5 24
c-0.666992 25.333 -1 51.666 -1 78.999v79c0 22 0.166992 44 0.5 66s0.5 44 0.5 66c-0.666992 0 -1 10.333 -1 31v75.5c0 29.667 0.166992 60.834 0.5 93.501s0.5 60.667 0.5 84z" />
    <glyph glyph-name="l" unicode="l" horiz-adv-x="521" 
d="M3 616c0 12 5.33496 18.3311 16.002 18.998c19.333 1.33301 37.5 1.83301 54.5 1.5s35.167 -0.166016 54.5 0.500977c15.333 0.666992 25.333 -1.33301 30 -6s7.33398 -14.667 8.00098 -30c2 -47.333 3.16699 -96.5 3.5 -147.5s1.5 -100.167 3.5 -147.5
c0.666992 -20 0.5 -39 -0.5 -57s-0.833008 -36.667 0.5 -56c0.666992 -12.667 2.33398 -20.334 5.00098 -23.001s10.667 -4 24 -4c23.333 -1.33301 46.666 -2 69.999 -2h70h47c10 0 16.833 -2 20.5 -6s5.66699 -10.667 6 -20s1.16602 -23.333 2.49902 -42
c1.33301 -13.333 2.16602 -26.166 2.49902 -38.499s1.16602 -25.166 2.49902 -38.499c0.666992 -13.333 -6.33301 -20 -21 -20c-15.333 0.666992 -31 1.16699 -47 1.5s-32 0.5 -48 0.5h-124c-40.667 0 -81.667 0.333008 -123 1h-11.5c-3.66699 0 -7.16699 0.333008 -10.5 1
c-13.333 1.33301 -22.333 4.5 -27 9.5s-7 14.5 -7 28.5c0 28 0.166992 56.167 0.5 84.5s0.5 56.5 0.5 84.5v21v55c0 22.667 0.166992 48.5 0.5 77.5s0.333008 58.667 0 89l-1 88c-0.333008 28.333 -0.833008 53.5 -1.5 75.5z" />
    <glyph glyph-name="m" unicode="m" horiz-adv-x="979" 
d="M181 299c0 -4.66699 -0.160156 -7.50098 -0.493164 -8.50098s-0.166016 -2.83301 0.500977 -5.5l6 -131l6 -131c0.666992 -9.33301 0 -15 -2 -17s-8.33301 -3.66699 -19 -5c-11.333 -1.33301 -22.333 -2 -33 -2h-32h-45c-14.667 0 -29.334 0.333008 -44.001 1
c-10 0 -14 5 -12 15c-0.666992 38 -0.833984 75.833 -0.500977 113.5s0.5 75.5 0.5 113.5c-2 122.667 -3 245.334 -3 368.001c-0.666992 11.333 0.333008 18.333 3 21s9.33398 4.33398 20.001 5.00098h26.5h39.5h40.5h28.5c10.667 1.33301 19.167 0 25.5 -4
s12.166 -10.667 17.499 -20l59.5 -110.5l60.5 -109.5l72 -132c5.33301 -9.33301 9.66602 -13.833 12.999 -13.5s7.66602 5.16602 12.999 14.499l27 45l27 45c13.333 22.667 27.166 44.834 41.499 66.501s28.166 44.167 41.499 67.5l34.5 61.5l32.5 62.5
c5.33301 9.33301 11.166 16.833 17.499 22.5s15.166 7.83398 26.499 6.50098c4 -0.666992 12.5 -1 25.5 -1h41c14.333 0 27.5 0.166992 39.5 0.5s18.667 0.5 20 0.5c11.333 0 20 -0.333008 26 -1s10.5 -2.5 13.5 -5.5s4.66699 -7.66699 5 -14s0.5 -15.5 0.5 -27.5
c0 -66 0.333008 -131.667 1 -197s1.66699 -131 3 -197c0.666992 -29.333 0.833984 -57.5 0.500977 -84.5s0.166992 -54.833 1.5 -83.5c0.666992 -15.333 -0.166016 -24.333 -2.49902 -27s-10.833 -3.66699 -25.5 -3c-6 0 -15.167 0.166992 -27.5 0.5
s-25.166 0.5 -38.499 0.5h-38h-25c-9.33301 -0.666992 -15.5 0.333008 -18.5 3s-4.5 9 -4.5 19c-0.666992 46 -1.16699 91.333 -1.5 136s-0.833008 90 -1.5 136c0 5.33301 -0.333008 9 -1 11c0 3.33301 -1.33301 6.33301 -4 9c-1.33301 1.33301 -2.5 1.33301 -3.5 0
s-1.83301 -2.33301 -2.5 -3l-9 -13c-2.66699 -4 -5.33398 -8.33301 -8.00098 -13l-76.5 -131.5l-76.5 -132.5c-3.33301 -5.33301 -7 -10 -11 -14s-10.667 -6 -20 -6h-87c-14.667 0 -24.334 2.83301 -29.001 8.5s-9.66699 14.167 -15 25.5l-57 118l-59 117
c-2.66699 5.33301 -5.5 10.666 -8.5 15.999s-6.16699 10.666 -9.5 15.999c-0.666992 1.33301 -1.83398 2.5 -3.50098 3.5s-2.5 -0.833008 -2.5 -5.5z" />
    <glyph glyph-name="n" unicode="n" horiz-adv-x="750" 
d="M4 601l-0.00390625 22.0039c1.33301 11.333 7 16 17 14c25.333 0.666992 49.166 0.666992 71.499 0s45.166 -0.333984 68.499 0.999023c8.66699 0.666992 15.167 -0.5 19.5 -3.5s8.83301 -7.5 13.5 -13.5c18 -26 36 -53.667 54 -83l55.5 -87.5l58 -86
c19.667 -28.333 39.834 -54.5 60.501 -78.5c4.66699 -5.33301 10.334 -11.5 17.001 -18.5s11.334 -10.5 14.001 -10.5s4.33398 5 5.00098 15s1 18.667 1 26c-0.666992 22 -1.16699 46 -1.5 72s-0.833008 52.167 -1.5 78.5s-1.16699 52.5 -1.5 78.5s-0.833008 50 -1.5 72
c-0.666992 14.667 0.5 24 3.5 28s11.5 6.33301 25.5 7c19.333 1.33301 38.333 2.33301 57 3s37.667 0.666992 57 0c17.333 0 28 -2.16699 32 -6.5s6 -14.833 6 -31.5c0 -14 -0.166992 -30 -0.5 -48l-1 -55l-1 -55c-0.333008 -18 -0.5 -34 -0.5 -48
c1.33301 -36.667 2.5 -73.334 3.5 -110.001s2.16699 -73.667 3.5 -111c1.33301 -25.333 2 -50.5 2 -75.5s0.333008 -50.167 1 -75.5c0 -8.66699 -1 -14.167 -3 -16.5s-7.33301 -3.5 -16 -3.5h-84.5c-28.333 0 -56.833 0.666992 -85.5 2c-4 0 -8.33301 1.16699 -13 3.5
s-8.66699 5.16602 -12 8.49902c-19.333 18 -36 36 -50 54c-7.33301 8.66699 -16.333 20.334 -27 35.001s-21.834 30.834 -33.501 48.501l-36 55l-34.5 52.5l-27.5 41.5l-15.5 23.5c-0.666992 1.33301 -2 2 -4 2s-3.66699 0.333008 -5 1
c-0.666992 -0.666992 -1 -1.33398 -1 -2.00098c-0.666992 -0.666992 -1 -2.33398 -1 -5.00098v-46.5c0 -19 0.333008 -34.5 1 -46.5l2 -96c0.666992 -32 1.66699 -64 3 -96c0 -15.333 -2.33301 -25.333 -7 -30s-14.667 -6.66699 -30 -6l-31.5 2
c-10.333 0.666992 -20.833 1 -31.5 1c-10.667 -0.666992 -23.167 -0.666992 -37.5 0s-27.166 0 -38.499 -2c-8.66699 -2 -14 1.33301 -16 10c-1.33301 5.33301 -1.66602 9.66602 -0.999023 12.999s1 7.66602 1 12.999c-2 45.333 -2.66699 90.333 -2 135
s0.333984 89.334 -0.999023 134.001c-0.666992 24 -0.666992 48 0 72s1 48 1 72l-0.5 17.5c-0.333008 11.667 -0.5 25.5 -0.5 41.5s0.166992 32.5 0.5 49.5s0.5 31.167 0.5 42.5z" />
    <glyph glyph-name="o" unicode="o" horiz-adv-x="729" 
d="M634 326c-3.33301 -30.667 -8.33203 -60.3281 -14.999 -88.9951s-16.5 -55.834 -29.5 -81.501s-29.333 -49.334 -49 -71.001s-43.5 -40.5 -71.5 -56.5c-22 -12.667 -44.667 -22.334 -68 -29.001s-47.666 -10 -72.999 -10c-41.333 0 -78.166 5.16699 -110.499 15.5
s-60.666 23.666 -84.999 39.999s-45 34.666 -62 54.999s-31 40.333 -42 60s-19.167 37.834 -24.5 54.501s-8.33301 30 -9 40c-1.33301 18 -2.83301 36 -4.5 54s-0.833984 36.333 2.49902 55c6.66699 32.667 17.834 64.667 33.501 96s35.667 59.666 60 84.999
s53.166 46.833 86.499 64.5s70.666 28.834 111.999 33.501c24.667 3.33301 49.167 3 73.5 -1s48.166 -10.333 71.499 -19c40 -15.333 73.667 -36.833 101 -64.5s49.666 -61.167 66.999 -100.5c9.33301 -21.333 18 -42.333 26 -63s11.333 -43.334 10 -68.001z
M468.001 330.006c0 8 -0.164062 14.1689 -0.49707 18.502s-0.833008 7.83301 -1.5 10.5s-1.33398 5.16699 -2.00098 7.5s-1.33398 5.5 -2.00098 9.5c-2 10 -7.5 20.833 -16.5 32.5s-20 22.667 -33 33s-27.333 19 -43 26s-30.834 10.5 -45.501 10.5
c-30 0 -55.167 -6 -75.5 -18s-36.666 -26.833 -48.999 -44.5s-21.5 -36.834 -27.5 -57.501s-9.33301 -39.667 -10 -57c-0.666992 -11.333 2.16602 -24.5 8.49902 -39.5s16 -29.333 29 -43s29 -25.334 48 -35.001s40.5 -14.5 64.5 -14.5c26.667 0 49.667 5.5 69 16.5
s35.5 24.5 48.5 40.5s22.667 33.333 29 52s9.5 36 9.5 52z" />
    <glyph glyph-name="p" unicode="p" horiz-adv-x="635" 
d="M11 527c0.666992 11.333 0.666992 22.834 0 34.501s-1 23.5 -1 35.5c0.666992 14 3.33398 23.667 8.00098 29s14 8.66602 28 9.99902c11.333 1.33301 22.333 2 33 2h32c36 -0.666992 72 -1 108 -1s72 -0.666992 108 -2c37.333 -2 72.333 -9 105 -21
c9.33301 -3.33301 21.166 -10.5 35.499 -21.5s28 -25 41 -42s24.167 -36.333 33.5 -58s14 -44.5 14 -68.5c0 -37.333 -6.33301 -69 -19 -95s-29 -48.167 -49 -66.5s-42.167 -33.333 -66.5 -45s-48.166 -21.167 -71.499 -28.5c-39.333 -12 -80 -16 -122 -12
c-14 1.33301 -22.333 0 -25 -4s-4 -13.667 -4 -29c-0.666992 -20 -0.833984 -38.5 -0.500977 -55.5s1.16602 -35.167 2.49902 -54.5c0.666992 -14 -1.33301 -24 -6 -30s-14 -8.66699 -28 -8c-20.667 0 -42.334 -0.5 -65.001 -1.5s-44.334 -0.833008 -65.001 0.5
c-9.33301 0.666992 -15.5 2.83398 -18.5 6.50098s-5.16699 10.5 -6.5 20.5c-1.33301 18 -1.66602 36 -0.999023 54s0.666992 36 0 54c-1.33301 34 -2.16602 67.5 -2.49902 100.5s-1.16602 66.5 -2.49902 100.5l0.5 21.5c0.333008 14.333 0.666016 31.666 0.999023 51.999
s0.833008 41.833 1.5 64.5s1.33398 42 2.00098 58zM225 520.001c-13.333 -1.33301 -21.3369 -3.33398 -24.0039 -6.00098s-3.66699 -10.667 -3 -24c0 -18 0.166992 -39.333 0.5 -64s0.833008 -46 1.5 -64c0.666992 -9.33301 2.33398 -15.666 5.00098 -18.999
s8.33398 -4.66602 17.001 -3.99902c6.66699 0.666992 18.167 1.33398 34.5 2.00098s33 3.66699 50 9s31.833 13.666 44.5 24.999s19 28 19 50c0 17.333 -3.5 31.833 -10.5 43.5s-15.667 21.167 -26 28.5s-21.666 12.666 -33.999 15.999s-23.833 5.5 -34.5 6.5
s-19.667 1.33301 -27 1s-11.666 -0.5 -12.999 -0.5z" />
    <glyph glyph-name="q" unicode="q" horiz-adv-x="792" 
d="M679 27c8.66699 -8.66699 8.66895 -15.665 0.00195312 -20.998l-55 -38.5l-55 -37.5c-8 -5.33301 -15.667 -3.66602 -23 5.00098l-27.5 33.5l-27.5 34.5c-8 11.333 -18.667 14.666 -32 9.99902c-10.667 -4 -21.334 -7.66699 -32.001 -11s-21.667 -6 -33 -8
c-28 -5.33301 -55.333 -5.5 -82 -0.5s-53 12.167 -79 21.5c-10.667 3.33301 -21.167 7.33301 -31.5 12s-20.5 9.66699 -30.5 15c-31.333 15.333 -59.166 34.166 -83.499 56.499s-42.833 50.166 -55.5 83.499c-4.66699 12 -8.66699 25.167 -12 39.5
s-6.16602 28.5 -8.49902 42.5s-4 27.333 -5 40s-1.5 23.334 -1.5 32.001c0 14.667 2.16699 30.667 6.5 48s10.5 34.833 18.5 52.5s17.667 35 29 52s24 32.5 38 46.5c33.333 33.333 70 58.833 110 76.5s82.333 29.167 127 34.5c30 4 59.5 2.33301 88.5 -5
s56.5 -19.333 82.5 -36c44 -26.667 78 -59.167 102 -97.5s41 -82.5 51 -132.5c7.33301 -38.667 7.16602 -75.334 -0.500977 -110.001s-20.167 -69 -37.5 -103l-12 -26c-2.66699 -6 -3.83398 -11.5 -3.50098 -16.5s2.66602 -10.333 6.99902 -16s10.833 -13.167 19.5 -22.5
l24 -27.5zM471.002 256.002c9.33301 28 13.1641 55.999 11.4971 83.999s-10.5 53.333 -26.5 76c-14.667 20 -31 34.5 -49 43.5s-35.167 14.833 -51.5 17.5s-30.333 3.5 -42 2.5s-18.5 -1.5 -20.5 -1.5c-13.333 -3.33301 -26.166 -9.16602 -38.499 -17.499
s-22.166 -18.5 -29.499 -30.5c-10.667 -16.667 -20 -35 -28 -55s-12 -38.667 -12 -56s1.83301 -30.5 5.5 -39.5l12.5 -30.5c13.333 -30.667 34 -52.167 62 -64.5s59 -17.5 93 -15.5c28.667 1.33301 52.334 9.5 71.001 24.5s32.667 35.833 42 62.5z" />
    <glyph glyph-name="r" unicode="r" 
d="M235 638c36 -1.33301 71.8291 -3.33691 107.496 -6.00391s70.834 -11 105.501 -25c17.333 -7.33301 33 -16.166 47 -26.499s26 -23.166 36 -38.499c15.333 -22.667 26 -46.5 32 -71.5s8 -49.667 6 -74s-7.33301 -47.666 -16 -69.999s-20 -42.5 -34 -60.5
c-6.66699 -8 -14.834 -15.167 -24.501 -21.5l-28.5 -18.5c-5.33301 -3.33301 -8.5 -6.66602 -9.5 -9.99902s0.166992 -7.66602 3.5 -12.999l34.5 -57.5l35.5 -57.5c4.66699 -7.33301 10.334 -17.333 17.001 -30s12.667 -22.667 18 -30c4.66699 -8 5.33398 -16 2.00098 -24
c-2 -5.33301 -4.83301 -8.33301 -8.5 -9s-7.83398 -1 -12.501 -1c-21.333 1.33301 -42.333 1.66602 -63 0.999023s-41.667 -1 -63 -1c-7.33301 0 -12.666 1.33301 -15.999 4s-6.66602 6.66699 -9.99902 12l-41.5 78.5c-15 29 -29.167 55.167 -42.5 78.5
c-2.66699 4.66699 -5.33398 9 -8.00098 13l-8 12c-5.33301 10 -14.333 15 -27 15c-7.33301 0 -14.166 0.5 -20.499 1.5s-13.166 1.5 -20.499 1.5c-10.667 0.666992 -17.834 -0.5 -21.501 -3.5s-5.5 -10.167 -5.5 -21.5l2 -78l2 -78c0.666992 -9.33301 -0.333008 -16 -3 -20
s-8.33398 -7 -17.001 -9c-3.33301 -1.33301 -7 -2 -11 -2h-11c-17.333 0 -34.166 -0.166992 -50.499 -0.5s-33.166 -0.5 -50.499 -0.5c-5.33301 0 -10.333 0.166992 -15 0.5s-9.66699 0.833008 -15 1.5c-11.333 1.33301 -18 7.66602 -20 18.999
c-0.666992 5.33301 -1.5 10.833 -2.5 16.5s-1.5 11.167 -1.5 16.5c0.666992 26.667 1 53.334 1 80.001s0.666992 53.334 2 80.001c0.666992 25.333 1 50.166 1 74.499v74.5c0.666992 40.667 0.666992 81.167 0 121.5s-1 80.833 -1 121.5c0 14.667 2 23.834 6 27.501
s13.667 5.16699 29 4.5h84l11.5 0.5c7.66699 0.333008 17.167 0.833008 28.5 1.5s23 1.16699 35 1.5s22.667 0.166016 32 -0.500977zM200.996 412.996c-0.666992 -9.33301 -0.999023 -18.3311 -0.999023 -26.998v-41c0 -11.333 6 -17 18 -17
c13.333 1.33301 26.5 2.16602 39.5 2.49902s26.167 1.16602 39.5 2.49902c13.333 2 26.166 5.66699 38.499 11s23.5 13.333 33.5 24c7.33301 8 12.166 17.667 14.499 29s2.33301 22.5 0 33.5s-6.83301 20.667 -13.5 29s-15 13.833 -25 16.5
c-45.333 11.333 -89.666 16 -132.999 14c-2 -0.666992 -4.16699 -2.5 -6.5 -5.5s-3.5 -5.5 -3.5 -7.5c-0.666992 -9.33301 -1 -20 -1 -32v-32z" />
    <glyph glyph-name="s" unicode="s" horiz-adv-x="584" 
d="M384 631c17.333 -7.33301 32.0059 -17.334 44.0059 -30.001l37 -38c4 -4 5.33301 -8.66699 4 -14s-3.66602 -9.66602 -6.99902 -12.999l-36 -39.5l-37 -38.5c-5.33301 -6 -12 -6.66699 -20 -2l-20 16c-6.66699 5.33301 -13.667 10 -21 14l-28 15.5
c-9.33301 5 -18.666 9.16699 -27.999 12.5c-11.333 4 -21.5 4.5 -30.5 1.5s-15.833 -9.16699 -20.5 -18.5c-4 -8 -5.16699 -17.5 -3.5 -28.5s6.5 -19.5 14.5 -25.5c10.667 -7.33301 21.5 -14.166 32.5 -20.499l33.5 -18.5l48.5 -27.5c16.333 -9 32.166 -18.167 47.499 -27.5
s29.166 -20.5 41.499 -33.5s24.166 -26.5 35.499 -40.5c13.333 -17.333 21.5 -36 24.5 -56s3.16699 -40.333 0.5 -61c-9.33301 -80 -53 -133.667 -131 -161c-30.667 -10.667 -60.834 -15.5 -90.501 -14.5s-59.834 5.83301 -90.501 14.5c-28 7.33301 -53.667 17.833 -77 31.5
l-70 42.5c-4 2 -8 5 -12 9c-6 5.33301 -10.5 9.5 -13.5 12.5s-4.83301 6.16699 -5.5 9.5s-0.166992 7.16602 1.5 11.499s4.5 10.166 8.5 17.499c7.33301 14 14.166 28.333 20.499 43l19.5 44c2.66699 5.33301 5 10.333 7 15s4.66699 9.33398 8 14.001
c2 3.33301 4.66699 5.5 8 6.5s6.66602 -0.166992 9.99902 -3.5l22 -22l22 -22c17.333 -16.667 36.5 -29.834 57.5 -39.501s42.5 -18.167 64.5 -25.5c8.66699 -2.66699 18.667 -3 30 -1c10 2 18.333 6 25 12s11.167 13 13.5 21s2.5 16.333 0.5 25s-6.66699 16.667 -14 24
c-8.66699 8.66699 -18 16.5 -28 23.5s-20.333 13.5 -31 19.5c-17.333 10.667 -35 20.834 -53 30.501s-36.333 18.834 -55 27.501c-28 13.333 -49.833 30.833 -65.5 52.5s-27.5 46.834 -35.5 75.501c-10 41.333 -3 78.666 21 111.999c9.33301 13.333 18.666 24.5 27.999 33.5
s24 18.5 44 28.5c27.333 13.333 54 21.833 80 25.5s49.833 4.66699 71.5 3s41 -4.83398 58 -9.50098s30.167 -9 39.5 -13z" />
    <glyph glyph-name="t" unicode="t" horiz-adv-x="646" 
d="M350 32c0 -13.333 -1.83398 -21.832 -5.50098 -25.499s-12.167 -5.83398 -25.5 -6.50098c-17.333 -0 -34.5 -0.166992 -51.5 -0.5s-34.167 -0.5 -51.5 -0.5c-10.667 -0.666992 -17.334 0.333008 -20.001 3s-4.33398 9.33398 -5.00098 20.001
c-0.666992 42 -1 83.667 -1 125s-0.333008 83 -1 125c-0.666992 23.333 -1.16699 49.166 -1.5 77.499s-1.16602 54.166 -2.49902 77.499c-0.666992 10 -1 17.5 -1 22.5s-1 8.66699 -3 11s-5.66699 3.66602 -11 3.99902s-13.333 0.5 -24 0.5h-103
c-7.33301 0 -13.166 0.333008 -17.499 1s-7.66602 2 -9.99902 4s-4 5 -5 9s-1.83301 9.66699 -2.5 17c-1.33301 20 -2.16602 40.167 -2.49902 60.5s-0.5 40.5 -0.5 60.5c0 6.66699 2 11.167 6 13.5s8.66699 3.5 14 3.5c80 2 159.667 3 239 3s159 -1.33301 239 -4
c11.333 -0.666992 20.333 -3.66699 27 -9s10.334 -12.666 11.001 -21.999c1.33301 -20 2.16602 -39.833 2.49902 -59.5s0.833008 -39.167 1.5 -58.5c0 -12 -6.33301 -17.333 -19 -16l-39 2c-12.667 0.666992 -25.334 1 -38.001 1c-26 0.666992 -52 0.666992 -78 0
c-9.33301 -0.666992 -15 -2.16699 -17 -4.5s-3 -8.16602 -3 -17.499v-50c0 -22 -0.166992 -46.667 -0.5 -74s-0.333008 -55.833 0 -85.5s0.333008 -58 0 -85s-0.5 -51.5 -0.5 -73.5v-49z" />
    <glyph glyph-name="u" unicode="u" 
d="M6 611c0 12 1.33105 19.3389 3.99805 22.0059s10.667 4 24 4c20 -1.33301 40 -1.5 60 -0.5s40 1.16699 60 0.5c11.333 -0.666992 18 -1.83398 20 -3.50098s3 -8.16699 3 -19.5l-2 -61.5l-2 -61.5c-0.666992 -30 -0.833984 -59.5 -0.500977 -88.5s0.5 -58.167 0.5 -87.5
c0 -16.667 2 -32.834 6 -48.501s10.667 -30.5 20 -44.5c24.667 -40.667 59.667 -57 105 -49c15.333 2 27.333 9.33301 36 22c28.667 38.667 42 80.667 40 126c-1.33301 40 -1.5 80 -0.5 120s0.833008 80 -0.5 120c0 3.33301 -0.166992 8.16602 -0.5 14.499
s-0.666016 13 -0.999023 20l-1 20.5c-0.333008 6.66699 -0.5 11.667 -0.5 15c0 4 5.83301 6.5 17.5 7.5s25.5 1.5 41.5 1.5s31.833 -0.5 47.5 -1.5s27.5 -1.83301 35.5 -2.5c6 -0.666992 10.833 -0.833984 14.5 -0.500977s6.66699 0.333008 9 0s4 -1.66602 5 -3.99902
s1.83301 -6.5 2.5 -12.5c1.33301 -17.333 2.5 -36.166 3.5 -56.499s1.83301 -38.833 2.5 -55.5c1.33301 -24.667 1.5 -49.167 0.5 -73.5s-1.83301 -48.833 -2.5 -73.5c0 -16.667 -0.5 -33.334 -1.5 -50.001s-2.83301 -33.334 -5.5 -50.001
c-7.33301 -48.667 -21.666 -92.834 -42.999 -132.501s-53.666 -73.167 -96.999 -100.5c-13.333 -8.66699 -28.5 -15.334 -45.5 -20.001s-33.667 -8 -50 -10s-31.5 -3 -45.5 -3s-25 0.333008 -33 1c-5.33301 0.666992 -14.5 2.16699 -27.5 4.5s-27.667 6.83301 -44 13.5
s-33.5 15.667 -51.5 27s-34.333 26 -49 44s-26.834 39.833 -36.501 65.5s-14.5 56.167 -14.5 91.5c-0.666992 31.333 -1 62.5 -1 93.5v93.5l-0.5 19.5c-0.333008 13 -0.666016 29 -0.999023 48s-0.5 39 -0.5 60v55.5z" />
    <glyph glyph-name="v" unicode="v" horiz-adv-x="719" 
d="M177 635c6 0 10.0029 -1.83301 12.0029 -5.5s3.66699 -7.16699 5 -10.5c3.33301 -6.66699 6 -13.334 8 -20.001l6 -20l37 -137.5l37 -137.5c2 -6.66699 4.66699 -14 8 -22c1.33301 -1.33301 2.83301 -2.33301 4.5 -3s3.16699 -1.66699 4.5 -3c1.33301 0 3 1.66699 5 5
c2.66699 6.66699 4.66699 11.334 6 14.001c19.333 50.667 39.666 101.167 60.999 151.5s39.666 101.5 54.999 153.5c7.33301 23.333 22 35 44 35h40h49.5h43h20.5c9.33301 -2 12.666 -7.66699 9.99902 -17c0 -2.66699 -0.5 -5.16699 -1.5 -7.5s-2.16699 -4.83301 -3.5 -7.5
l-21 -56c-6.66699 -18.667 -13.667 -37 -21 -55l-60.5 -140.5l-59.5 -139.5l-39 -94.5l-39 -95.5c-5.33301 -13.333 -10 -20.5 -14 -21.5s-12.333 -1.5 -25 -1.5h-167c-6 0.666992 -9.66699 3 -11 7s-2.66602 8.33301 -3.99902 13l-15.5 51.5l-14.5 51.5l-38.5 145.5
l-38.5 144.5c-8 28.667 -16.333 57 -25 85l-26 84c-1.33301 4 -2.5 7.83301 -3.5 11.5s-2.16699 7.5 -3.5 11.5c-3.33301 12.667 -3 21 1 25s12.667 5.66699 26 5c2.66699 0 10.667 0.166992 24 0.5s28.166 0.5 44.499 0.5h47.5h32z" />
    <glyph glyph-name="w" unicode="w" horiz-adv-x="927" 
d="M604 308c1.33301 0 2.50586 1.5 3.50586 4.5s1.83301 6.66699 2.5 11s1.16699 8.66602 1.5 12.999s0.833008 7.83301 1.5 10.5c7.33301 42 14.333 85.5 21 130.5l20 130.5c0.666992 3.33301 1.33398 6.33301 2.00098 9s1.33398 5.66699 2.00098 9c2 8 7.33301 12 16 12
c23.333 -1.33301 46.666 -1.66602 69.999 -0.999023s46.666 0.333984 69.999 -0.999023c12 -1.33301 19.167 -3.83301 21.5 -7.5s2.5 -11.5 0.5 -23.5c-7.33301 -38 -14.5 -78.833 -21.5 -122.5s-14.167 -84.5 -21.5 -122.5l-23.5 -133l-22.5 -132
c-2 -11.333 -4.5 -22.833 -7.5 -34.5s-5.5 -22.834 -7.5 -33.501c-2.66699 -10.667 -5 -17.167 -7 -19.5s-8.33301 -3.83301 -19 -4.5c-23.333 -0.666992 -46.5 -0.5 -69.5 0.5s-46.167 0.833008 -69.5 -0.5c-10.667 -0.666992 -18.834 1.33301 -24.501 6
s-10.167 11.667 -13.5 21l-25.5 61.5l-25.5 60.5l-26 59.5l-26 59.5c-1.33301 1.33301 -2.5 3.16602 -3.5 5.49902s-2.83301 3.5 -5.5 3.5c-2 0 -3.66699 -1.33301 -5 -4s-2.66602 -5 -3.99902 -7c-22.667 -39.333 -43.167 -79.666 -61.5 -120.999l-53.5 -125
c-1.33301 -6.66699 -3.33301 -11 -6 -13c-2.66699 -2.66699 -5.33398 -5 -8.00098 -7s-5.66699 -3 -9 -3c-19.333 -1.33301 -38.333 -1.5 -57 -0.5s-37.667 0.833008 -57 -0.5c-9.33301 0 -15.333 4.66699 -18 14l-24.5 105.5l-24.5 105.5l-22.5 103l-23.5 102
c-2.66699 12 -5.33398 25.333 -8.00098 40l-8 45.5c-2.66699 15.667 -5.5 30.834 -8.5 45.501l-8.5 40c-0.666992 2.66699 -1.33398 5 -2.00098 7s-1.33398 4.33301 -2.00098 7c-1.33301 9.33301 0.166992 15.666 4.5 18.999s11.166 4.66602 20.499 3.99902
c6 -0.666992 15.667 -1.16699 29 -1.5s27.5 -0.5 42.5 -0.5s29 0.166992 42 0.5s22.5 0.833008 28.5 1.5c5.33301 0 8.83301 -1 10.5 -3s3.16699 -5 4.5 -9c2.66699 -9.33301 5.16699 -19.666 7.5 -30.999l7 -35l7 -35.5c2.33301 -11.667 4.5 -21.834 6.5 -30.501l19 -73.5
c6 -24.333 12.333 -48.5 19 -72.5c0.666992 -2 1.5 -4.16699 2.5 -6.5s3.16699 -3.5 6.5 -3.5c2 0 4.33301 2.66699 7 8l42 69c14 22 27.333 45.333 40 70c11.333 23.333 29.666 34 54.999 32c14 -1.33301 28 -1.5 42 -0.5s28.333 1.16699 43 0.5
c5.33301 0 9.33301 -1.33301 12 -4s5.33398 -6.66699 8.00098 -12c12.667 -30 25.667 -59.167 39 -87.5l40 -86.5c1.33301 -3.33301 3.16602 -7.16602 5.49902 -11.499s4.83301 -6.5 7.5 -6.5z" />
    <glyph glyph-name="x" unicode="x" horiz-adv-x="698" 
d="M107 639l73 -0.00390625c12 0 20.333 -5 25 -15c6 -14 13 -27.167 21 -39.5s16.5 -24.5 25.5 -36.5l27 -36.5c9 -12.333 17.5 -24.833 25.5 -37.5c4 -7.33301 7.33301 -10.833 10 -10.5s6.33398 4.16602 11.001 11.499l42 66l41 67
c2.66699 5.33301 5.16699 9.83301 7.5 13.5s5.16602 6.66699 8.49902 9s7.83301 4 13.5 5s13.5 1.5 23.5 1.5h75c9.33301 0 20 0.166992 32 0.5s22.667 0.166016 32 -0.500977c10.667 -0.666992 15.334 -4 14.001 -10s-4.66602 -13.333 -9.99902 -22l-53.5 -77l-52.5 -78
l-41.5 -60.5l-41.5 -59.5c-5.33301 -7.33301 -7.83301 -13.833 -7.5 -19.5s2.5 -12.167 6.5 -19.5l21 -34c6.66699 -11.333 14 -22.666 22 -33.999l64.5 -88.5l65.5 -87.5c0.666992 -1.33301 2.5 -3.66602 5.5 -6.99902s5.83301 -7.16602 8.5 -11.499
s4.83398 -8.66602 6.50098 -12.999s1.83398 -8.16602 0.500977 -11.499c-1.33301 -2 -5.5 -3.33301 -12.5 -4s-13.167 -1 -18.5 -1c-24 0 -47.833 0.5 -71.5 1.5s-47.167 1.16699 -70.5 0.5c-9.33301 -0.666992 -16.833 0.833008 -22.5 4.5s-10.834 8.83398 -15.501 15.501
l-75 117c-1.33301 2.66699 -2.83301 5.33398 -4.5 8.00098s-3.5 5.33398 -5.5 8.00098c-6 6 -11.333 5.66699 -16 -1l-14 -18c-4.66699 -6 -9.33398 -12.333 -14.001 -19l-35.5 -52l-35.5 -52c-4.66699 -6.66699 -11 -10.667 -19 -12h-72.5
c-24.333 0 -48.833 0.333008 -73.5 1c-4.66699 0 -8.33398 0.333008 -11.001 1c-16.667 4 -20 13 -10 27l76.5 108l77.5 108c5.33301 7.33301 10.333 14.666 15 21.999s9.66699 14.666 15 21.999c5.33301 6.66699 7.66602 12.667 6.99902 18s-3 11 -7 17l-54 86l-54 87
l-35 57l-36 57c-12 18.667 -6 28 18 28h46h27z" />
    <glyph glyph-name="y" unicode="y" horiz-adv-x="677" 
d="M169 637c5.33301 0 9.33008 -1.16406 11.9971 -3.49707s5.33398 -5.5 8.00098 -9.5c15.333 -22.667 30.666 -48.5 45.999 -77.5s30.666 -55.167 45.999 -78.5l5.5 -7.5l5.5 -7.5c5.33301 -7.33301 11.333 -7.33301 18 0l9 12c8 9.33301 18 22.333 30 39l34.5 49l28.5 42
c8 12 12.333 18.333 13 19c6 12 12.833 19 20.5 21s17.167 3 28.5 3c8.66699 0 19.667 -0.166992 33 -0.5s26.5 -0.5 39.5 -0.5h34.5h18c4.66699 -1.33301 7.83398 -4 9.50098 -8s0.833984 -8.33301 -2.49902 -13c-1.33301 -3.33301 -3.16602 -6.66602 -5.49902 -9.99902
s-4.83301 -6.33301 -7.5 -9c-13.333 -15.333 -26.5 -32.166 -39.5 -50.499l-40 -56l-40.5 -55.5c-13.333 -18 -26.333 -34.667 -39 -50l-44 -50c-13.333 -13.333 -19.666 -30 -18.999 -50c2.66699 -40 3.5 -83.333 2.5 -130s-0.166992 -90 2.5 -130
c0 -7.33301 -1.33301 -13 -4 -17s-8 -6.33301 -16 -7c-20 -1.33301 -39 -1.83301 -57 -1.5s-36.667 0.166016 -56 -0.500977c-9.33301 0 -15.5 1.83301 -18.5 5.5s-5.16699 10.167 -6.5 19.5c0 6 -0.166992 17.167 -0.5 33.5s-0.666016 34.333 -0.999023 54
s-0.5 38.834 -0.5 57.501v43c0 8.66699 -0.333008 18.667 -1 30s-2 22.666 -4 33.999s-4.66699 22.166 -8 32.499s-8 19.5 -14 27.5c-15.333 21.333 -29.5 43.166 -42.5 65.499s-26.5 44.166 -40.5 65.499c-13.333 19.333 -26.833 41.5 -40.5 66.5
s-27.167 47.167 -40.5 66.5c-2 3.33301 -4.33301 6.16602 -7 8.49902s-5 5.16602 -7 8.49902c-4 5.33301 -4.83301 9.83301 -2.5 13.5s6.83301 5.83398 13.5 6.50098h22c12 0 25.667 -0.166992 41 -0.5s30.666 -0.5 45.999 -0.5s28 0.333008 38 1z" />
    <glyph glyph-name="z" unicode="z" horiz-adv-x="667" 
d="M521 635c5.33301 0 10.332 -0.166992 14.999 -0.5s9.33398 -0.833008 14.001 -1.5c9.33301 -1.33301 15.333 -3.33301 18 -6s3.66699 -8.66699 3 -18c0 -7.33301 0.166992 -16 0.5 -26s0.5 -20.333 0.5 -31s-0.166992 -21 -0.5 -31s-0.833008 -18.667 -1.5 -26
c0.666992 -15.333 -6.66602 -32 -21.999 -50s-33.666 -40.667 -54.999 -68c-11.333 -14 -27 -31.5 -47 -52.5l-61 -62.5l-58 -56.5l-38 -35.5c-4 -2.66699 -6 -6.66699 -6 -12c0 -3.33301 1.83301 -5 5.5 -5h9.5c38 -0.666992 76 -0.833984 114 -0.500977
s76.333 0.166016 115 -0.500977h9c2.66699 0 5.66699 -0.333008 9 -1c10.667 -2 17.334 -4.66699 20.001 -8s4 -10.333 4 -21c0.666992 -18.667 0.833984 -36.5 0.500977 -53.5s0.166992 -34.833 1.5 -53.5c0.666992 -6.66699 -0.333008 -11 -3 -13s-7 -3 -13 -3
c-34 1.33301 -67.333 1.33301 -100 0s-65.667 -1.66602 -99 -0.999023c-52 1.33301 -103.667 2 -155 2s-103 0.666992 -155 2c-4 0 -7.83301 0.166992 -11.5 0.5s-7.16699 0.833008 -10.5 1.5c-10.667 1.33301 -16 7 -16 17c-0.666992 40 -0.666992 79.333 0 118
c0 4 1.66699 8.16699 5 12.5s6.66602 7.83301 9.99902 10.5c6.66699 5.33301 17 15 31 29l48.5 49l58 60l59.5 62l54.5 54.5c17 16.333 31.167 29.166 42.5 38.499l4.5 4.5c1.66699 1.66699 2.5 3.83398 2.5 6.50098s-1.66699 4 -5 4h-8c-46 1.33301 -91.5 1.5 -136.5 0.5
s-90.5 -1.16699 -136.5 -0.5c-14 0 -22.833 1.5 -26.5 4.5s-5.5 11.833 -5.5 26.5c-0.666992 18.667 -0.833984 37.167 -0.500977 55.5s0.833008 36.5 1.5 54.5c1.33301 10.667 3.66602 17.834 6.99902 21.501s9.33301 5.16699 18 4.5c14.667 -1.33301 35 -2 61 -2h87
c32 0 65.333 0.333008 100 1s67.667 1 99 1s59.666 -0.166992 84.999 -0.5s44.333 -0.833008 57 -1.5z" />
    <glyph glyph-name="guillemotleft" unicode="&#xab;" horiz-adv-x="537" 
d="M434 411l12.4951 0.00195312c5.66699 0 11.834 -0.333008 18.501 -1c2.66699 0 5.33398 -0.5 8.00098 -1.5s5.33398 -1.83301 8.00098 -2.5c-1.33301 -2.66699 -2.33301 -5.33398 -3 -8.00098s-1.66699 -5 -3 -7l-21 -26.5l-21 -25.5l-47.5 -55l-48.5 -54
c-10 -12 -11.333 -24.667 -4 -38l96 -156c2.66699 -4.66699 5.83398 -9.16699 9.50098 -13.5s3.83398 -9.16602 0.500977 -14.499c-2.66699 -3.33301 -6.66699 -5.66602 -12 -6.99902s-10.666 -2.33301 -15.999 -3c-10 -1.33301 -20 -2 -30 -2h-29
c-2.66699 0 -5.5 0.666992 -8.5 2s-5.16699 3 -6.5 5c-8 21.333 -19 40.666 -33 57.999s-26.667 35.666 -38 54.999c-8.66699 15.333 -17.834 30 -27.501 44l-28.5 42c-3.33301 5.33301 -5.16602 9.83301 -5.49902 13.5s1.83398 8.16699 6.50098 13.5l71 86l71 85
c3.33301 4 8 6.83301 14 8.5s11.667 3.16699 17 4.5c7.33301 0.666992 14.666 0.666992 21.999 0s16.666 -1.33398 27.999 -2.00098zM124.995 -0.998047c-8 -2 -14.332 -1.16797 -18.999 2.49902s-8.33398 8.5 -11.001 14.5c-11.333 28 -24.666 54.833 -39.999 80.5
l-45 77.5c-5.33301 10.667 -7.83301 19.834 -7.5 27.501s3.83301 16.167 10.5 25.5c17.333 25.333 34 51.166 50 77.499l47 79.5c6 10.667 13 18.834 21 24.501s18.667 7.83398 32 6.50098c10.667 -1.33301 21.167 -1.16602 31.5 0.500977s20.833 2.16699 31.5 1.5
c18.667 0 23 -7 13 -21l-33.5 -50l-33.5 -49l-21.5 -34.5l-21.5 -34.5c-9.33301 -14 -9.66602 -29.333 -0.999023 -46l40 -74.5l40 -74.5l6 -15c2.66699 -6.66699 3.33398 -10.667 2.00098 -12c-1.33301 -2.66699 -3.83301 -4.33398 -7.5 -5.00098
s-7.16699 -1.66699 -10.5 -3c-0.666992 0 -4.33398 0.166992 -11.001 0.5s-14.334 0.666016 -23.001 0.999023s-16.834 0.5 -24.501 0.5s-12.5 -0.333008 -14.5 -1z" />
    <glyph glyph-name="guillemotright" unicode="&#xbb;" horiz-adv-x="457" 
d="M50 -2c-4.66699 0 -9.00195 0.174805 -13.002 0.507812s-8 0.833008 -12 1.5c-12 0.666992 -18.5 1.83398 -19.5 3.50098s1.16699 8.16699 6.5 19.5l34 78l34 77c4 8 5.66699 15.167 5 21.5s-3.33398 13.166 -8.00098 20.499c-11.333 21.333 -22.333 43.166 -33 65.499
l-33 66.5c-4 8.66699 -5.16699 14.167 -3.5 16.5s7.5 3.83301 17.5 4.5c13.333 1.33301 26.333 2.16602 39 2.49902s25.334 0.166016 38.001 -0.500977c2.66699 0 5.5 -1.33301 8.5 -4s5.16699 -5.33398 6.5 -8.00098l29 -58.5l29 -58.5c4 -8 8.66699 -16.167 14 -24.5
s8 -16.833 8 -25.5c0.666992 -8.66699 -1.66602 -17.334 -6.99902 -26.001s-9.66602 -17.334 -12.999 -26.001c-7.33301 -18 -15 -35.833 -23 -53.5s-15.333 -35.5 -22 -53.5c-6 -16.667 -14.333 -27.834 -25 -33.501s-24 -7.83398 -40 -6.50098
c-3.33301 0.666992 -6.33301 1 -9 1h-8zM258.998 -2.99219c-6.66699 -0.666992 -13.167 -1.00195 -19.5 -1.00195s-12.833 -0.333008 -19.5 -1c-25.333 -2 -32.666 8.33301 -21.999 31l33 70.5l33 70.5c6.66699 12 10.334 23.5 11.001 34.5s-2.33301 22.833 -9 35.5
c-8 14 -15.667 28.333 -23 43l-22 45l-6 10.5l-6 11.5c-6 15.333 -0.666992 24 16 26c9.33301 1.33301 18.166 2 26.499 2s17.166 0.666992 26.499 2c8 1.33301 14.833 0.666016 20.5 -2.00098s10.167 -8 13.5 -16l36 -76.5l37 -76.5c2.66699 -6 3.16699 -11 1.5 -15
s-3.5 -8.66699 -5.5 -14l-35.5 -81l-34.5 -81c-3.33301 -7.33301 -6.83301 -12.666 -10.5 -15.999s-9.5 -4.33301 -17.5 -3c-4 0.666992 -9 0.833984 -15 0.500977s-9 -0.166016 -9 0.500977z" />
    <glyph glyph-name="uni0401" unicode="&#x401;" horiz-adv-x="593" 
d="M475 634c12.667 0 19.667 -6.00195 21 -18.002c0 -2.66699 0.166992 -9.33398 0.5 -20.001s0.5 -22 0.5 -34s-0.166992 -23 -0.5 -33s-0.5 -15.333 -0.5 -16c-0.666992 -9.33301 -2.16699 -15.333 -4.5 -18s-8.5 -4 -18.5 -4c-10.667 0 -28.167 -0.166992 -52.5 -0.5
s-50.333 -0.666016 -78 -0.999023s-53.834 -0.833008 -78.501 -1.5s-42.667 -1 -54 -1c-10 0 -16.833 -1.83301 -20.5 -5.5s-5.83398 -10.167 -6.50098 -19.5c-1.33301 -13.333 -2 -24 -2 -32v-31c0 -13.333 7.66699 -20 23 -20c14 0 27.833 -0.333008 41.5 -1l41.5 -2
c12.667 -1.33301 17.667 -8.33301 15 -21c-1.33301 -9.33301 -1.83301 -18.833 -1.5 -28.5s-0.166992 -19.167 -1.5 -28.5c-1.33301 -11.333 -3.83301 -18.5 -7.5 -21.5s-11.167 -4.5 -22.5 -4.5s-22.333 0.166992 -33 0.5s-21.667 0.5 -33 0.5
c-9.33301 -0.666992 -15.666 -2.33398 -18.999 -5.00098s-5 -8.66699 -5 -18c0.666992 -13.333 0.666992 -26.833 0 -40.5s-0.333984 -27.167 0.999023 -40.5c1.33301 -11.333 3.83301 -18.166 7.5 -20.499s10.834 -3.16602 21.501 -2.49902c18 0 36.667 0.166992 56 0.5
s38 0.5 56 0.5c22.667 -0.666992 45.334 -1.16699 68.001 -1.5s45.334 -1.16602 68.001 -2.49902c12 -0.666992 20 -3 24 -7s5.66699 -11.667 5 -23v-24.5c0 -9.66699 0.166992 -19.167 0.5 -28.5s0.5 -17.5 0.5 -24.5v-12.5
c-0.666992 -10.667 -2.83398 -17.667 -6.50098 -21s-11.167 -5 -22.5 -5h-40h-75.5h-93.5h-93.5h-76h-40.5c-8.66699 0 -15.334 0.166992 -20.001 0.5s-8.16699 1.66602 -10.5 3.99902s-3.83301 5.83301 -4.5 10.5s-1 11 -1 19c-0.666992 40.667 -1 80.667 -1 120
s-0.333008 79.333 -1 120v89c0.666992 28.667 1.33398 54.834 2.00098 78.501s1.33398 49.834 2.00098 78.501c0.666992 16 0.666992 32 0 48s-0.666992 32 0 48c0 11.333 1.16699 18.166 3.5 20.499s9.16602 3.5 20.499 3.5c31.333 0.666992 62.333 0.833984 93 0.500977
s61.667 -0.5 93 -0.5l28.5 0.5c19 0.333008 42 0.333008 69 0s55.333 -0.833008 85 -1.5s55.5 -1.33398 77.5 -2.00098zM127 694.998c-10.667 0.666992 -20.498 3 -29.498 7s-16.833 9.5 -23.5 16.5s-11.834 14.833 -15.501 23.5s-5.16699 18 -4.5 28
c0.666992 8.66699 3.16699 17 7.5 25s9.83301 15 16.5 21s14.167 10.833 22.5 14.5s16.833 5.5 25.5 5.5c8 0 16.167 -2.16699 24.5 -6.5s15.666 -10 21.999 -17s11.5 -14.667 15.5 -23s6 -16.5 6 -24.5c0 -10 -1.83301 -19.333 -5.5 -28s-8.5 -16.167 -14.5 -22.5
s-13.167 -11.333 -21.5 -15s-16.833 -5.16699 -25.5 -4.5zM396.002 830.998c8 0 15.834 -1.66699 23.501 -5s14.5 -7.83301 20.5 -13.5s10.667 -12 14 -19s5 -14.5 5 -22.5c-0.666992 -20 -6.83398 -36.5 -18.501 -49.5s-26.5 -19.167 -44.5 -18.5
c-19.333 0 -35.333 6.5 -48 19.5s-19 29.5 -19 49.5c-0.666992 17.333 5.33301 31.5 18 42.5s29 16.5 49 16.5z" />
    <glyph glyph-name="uni0410" unicode="&#x410;" horiz-adv-x="760" 
d="M259 135c-7.33301 0 -12.834 -0.329102 -16.501 -0.996094s-6.66699 -1.83398 -9 -3.50098s-4.33301 -4.5 -6 -8.5s-3.5 -9.33301 -5.5 -16c-3.33301 -12 -7 -23.833 -11 -35.5s-7.66699 -23.5 -11 -35.5c-4.66699 -22.667 -18 -34 -40 -34
c-24 -1.33301 -47.833 -2 -71.5 -2s-47.5 -0.333008 -71.5 -1c-10.667 0 -14.334 5.33301 -11.001 16l47.5 144.5l46.5 145.5c9.33301 29.333 18 58.5 26 87.5s16.667 58.167 26 87.5l20.5 60c7 20 13.5 40.333 19.5 61c4 13.333 10 22.666 18 27.999s18 8 30 8
c14 -0.666992 27.833 -1.16699 41.5 -1.5s27.167 -0.5 40.5 -0.5c15.333 0 30.666 0.166992 45.999 0.5s30.666 0.5 45.999 0.5c8.66699 0 17.167 0.166992 25.5 0.5s16.833 0.5 25.5 0.5c8 0 14.333 -0.333008 19 -1s8.33398 -2 11.001 -4s4.83398 -5.16699 6.50098 -9.5
s3.5 -10.5 5.5 -18.5l40 -155.5l41 -155.5l32.5 -116l33.5 -115c4 -16 6.83301 -28.167 8.5 -36.5s1.33398 -14.5 -0.999023 -18.5s-7 -6.16699 -14 -6.5s-17.167 -0.166016 -30.5 0.500977c-22.667 0 -45.167 0.333008 -67.5 1l-67.5 2c-12 0.666992 -19 6.66699 -21 18
c-1.33301 10 -3 20.167 -5 30.5l-6 30.5c-1.33301 5.33301 -2.66602 10.333 -3.99902 15s-2.66602 9.66699 -3.99902 15c-3.33301 13.333 -11.333 20 -24 20c-8.66699 -0.666992 -17.167 -0.833984 -25.5 -0.500977s-16.5 0.5 -24.5 0.5l-12 0.5
c-8 0.333008 -17.667 0.666016 -29 0.999023s-23.333 0.666016 -36 0.999023s-23.334 0.5 -32.001 0.5zM359.999 481.004c-1.33301 2 -3.33301 -0.166016 -6 -6.49902s-4.66699 -10.5 -6 -12.5l-27 -81l-23 -65l-23 -66c-3.33301 -9.33301 -3.83301 -15.333 -1.5 -18
s8.5 -4 18.5 -4c16 -0.666992 32 -1 48 -1h48c12.667 0.666992 20 2.16699 22 4.5s1.33301 10.166 -2 23.499c-5.33301 27.333 -11 54.333 -17 81l-18 81c-1.33301 4.66699 -2.5 10.667 -3.5 18s-2.16699 14.333 -3.5 21l-3.5 17.5c-1 5 -1.83301 7.5 -2.5 7.5z" />
    <glyph glyph-name="uni0411" unicode="&#x411;" horiz-adv-x="677" 
d="M156 -12c-20.667 0.666992 -41.167 1.00488 -61.5 1.00488s-41.166 0.666992 -62.499 2c-11.333 0.666992 -18.666 2.66699 -21.999 6s-5 10.666 -5 21.999c0.666992 22.667 1.16699 45.167 1.5 67.5s0.833008 45.166 1.5 68.499v135v246c0 29.333 -1 59 -3 89
c0 7.33301 1.33301 12.166 4 14.499s7.33398 3.5 14.001 3.5h38.5h60.5c22.667 0 46.5 -0.166992 71.5 -0.5s49.333 -0.5 73 -0.5h65.5c20 0 35.667 0.333008 47 1c7.33301 0.666992 14.5 1.16699 21.5 1.5s14.167 0.166016 21.5 -0.500977
c12 -0.666992 20.333 -3.33398 25 -8.00098s6.66699 -13.334 6 -26.001c-0.666992 -16.667 -1.66699 -32.5 -3 -47.5s-2.66602 -30.833 -3.99902 -47.5c-0.666992 -5.33301 -1.33398 -9.66602 -2.00098 -12.999s-1.83398 -5.66602 -3.50098 -6.99902
s-4.16699 -2.16602 -7.5 -2.49902s-8 -0.5 -14 -0.5c-23.333 -0.666992 -46.5 -0.833984 -69.5 -0.500977s-46.167 0.166016 -69.5 -0.500977c-14.667 0 -29.667 -0.166992 -45 -0.5s-30 -0.5 -44 -0.5c-10.667 0 -16.667 -5.33301 -18 -16
c-1.33301 -11.333 -1.5 -22.333 -0.5 -33s1.16699 -22 0.5 -34c0 -6 1.66699 -10 5 -12s7.66602 -3 12.999 -3c18.667 -2 37.167 -2.83301 55.5 -2.5s37.166 0.5 56.499 0.5c19.333 -0.666992 38.333 -3.16699 57 -7.5s37.334 -9.5 56.001 -15.5
c23.333 -8 43.5 -19.667 60.5 -35s31.167 -33.666 42.5 -54.999c9.33301 -17.333 13.666 -34.333 12.999 -51s-3 -37.334 -7 -62.001c-6 -37.333 -18.667 -67.5 -38 -90.5s-41.5 -40.833 -66.5 -53.5s-50.833 -21 -77.5 -25s-51 -6 -73 -6h-21.5h-39h-37
c-11 0 -16.5 -0.333008 -16.5 -1zM233 256.005c-5.33301 1.33301 -11.001 1.66602 -17.001 0.999023s-12.333 -0.666992 -19 0c-13.333 1.33301 -20.333 -4.33398 -21 -17.001c0 -15.333 -0.166992 -30.166 -0.5 -44.499s-0.5 -29.166 -0.5 -44.499c0 -11.333 6 -18 18 -20
c38 -8 74.667 -4.33301 110 11c9.33301 4 16.833 9.66699 22.5 17s9.5 15.333 11.5 24s1.83301 17.167 -0.5 25.5s-7.16602 15.833 -14.499 22.5c-6.66699 5.33301 -14.167 9.5 -22.5 12.5s-16.833 5.5 -25.5 7.5c-6 2 -12.5 3.33301 -19.5 4s-14.167 1 -21.5 1z" />
    <glyph glyph-name="uni0412" unicode="&#x412;" horiz-adv-x="646" 
d="M429 377c9.33301 -3.33301 17.6611 -6.66992 24.9941 -10.0029l22 -10c6 -2.66699 12.667 -8 20 -16s14.166 -18.667 20.499 -32s11.666 -29.5 15.999 -48.5s6.5 -40.5 6.5 -64.5c0 -19.333 -4.66699 -38.666 -14 -57.999s-21.166 -37.5 -35.499 -54.5
s-30.166 -32 -47.499 -45s-34 -22.5 -50 -28.5c-24 -9.33301 -48.5 -15.666 -73.5 -18.999s-50.167 -5.33301 -75.5 -6c-1.33301 0 -2.66602 0.166992 -3.99902 0.5s-2.66602 0.166016 -3.99902 -0.500977c-11.333 -1.33301 -27.833 -1.83301 -49.5 -1.5
s-43.5 0.833008 -65.5 1.5c-26 0.666992 -53.333 1.33398 -82 2.00098c-4.66699 0 -8.66699 0.666992 -12 2s-6.33301 3 -9 5s-4.66699 5 -6 9c-3.33301 11.333 -5 22.333 -5 33c-0.666992 52.667 -1 105.167 -1 157.5v157.5c0 29.333 0.166992 58.333 0.5 87
s0.5 57.667 0.5 87c0.666992 19.333 0.833984 38.5 0.500977 57.5s-1.16602 38.167 -2.49902 57.5c0 10 4 15 12 15c42.667 0.666992 82.834 1.33398 120.501 2.00098s77.834 0.666992 120.501 0c15.333 0 30.5 -1.66699 45.5 -5s30.167 -7 45.5 -11
c19.333 -5.33301 37 -13.833 53 -25.5s30.667 -25.167 44 -40.5c8 -10 13.667 -22.333 17 -37c2.66699 -13.333 4.66699 -26.5 6 -39.5s1.5 -25.5 0.5 -37.5s-3.5 -23.833 -7.5 -35.5s-10.333 -22.834 -19 -33.501c-1.33301 -2 -3 -4.16699 -5 -6.5
s-4.66699 -5.16602 -8 -8.49902zM185.995 204.996l-0.00292969 -25.999c-1.33301 -13.333 -2 -23.333 -2 -30s1.5 -11.334 4.5 -14.001s7.83301 -4 14.5 -4s16 -0.333008 28 -1c20 -1.33301 39 1.33398 57 8.00098s35 15.667 51 27c26.667 18 31.334 41.333 14.001 70
c-6.66699 10 -16 19 -28 27c-19.333 12.667 -39.166 19.167 -59.499 19.5s-41.166 -0.833984 -62.499 -3.50098c-6.66699 -1.33301 -11 -3.66602 -13 -6.99902s-3 -8 -3 -14c0 -4.66699 -0.166992 -9.83398 -0.5 -15.501s-0.5 -11.167 -0.5 -16.5v-20zM182.992 477.997
l0.00292969 -41.501c0 -9.66699 2 -16.167 6 -19.5s10.667 -4.66602 20 -3.99902s23.666 2 42.999 4c8 1.33301 15.667 3.5 23 6.5s14.666 6.5 21.999 10.5c9.33301 5.33301 16 12.5 20 21.5s5.66699 18.833 5 29.5s-4.33398 19.167 -11.001 25.5s-14.667 10.833 -24 13.5
c-8 2 -16.167 3.33301 -24.5 4l-25.5 2c-8 0.666992 -16 0.666992 -24 0s-15.667 -1 -23 -1c-1.33301 -8.66699 -2.5 -17.167 -3.5 -25.5s-2.16699 -16.833 -3.5 -25.5z" />
    <glyph glyph-name="uni0413" unicode="&#x413;" horiz-adv-x="542" 
d="M8 293l0.000976562 49.998c0 19.333 -0.166992 39.666 -0.5 60.999l-1 64c-0.333008 21.333 -0.666016 40.833 -0.999023 58.5s-0.666016 32.5 -0.999023 44.5s-0.5 19.667 -0.5 23v15c0 4.66699 0.333008 9.66699 1 15c0 11.333 6.33301 17.333 19 18
c14 0 32.167 0.166992 54.5 0.5s46.666 0.5 72.999 0.5h81h77.5c24 0 45.167 -0.166992 63.5 -0.5s31.166 -0.5 38.499 -0.5c12 0 19.333 -1.33301 22 -4s4.66699 -10 6 -22c2 -20.667 2.66699 -40.167 2 -58.5s0 -37.833 2 -58.5
c1.33301 -10.667 0.666016 -17.834 -2.00098 -21.501s-9 -6.16699 -19 -7.5c-4 -0.666992 -15 -1.16699 -33 -1.5s-38.5 -0.5 -61.5 -0.5s-46 -0.166992 -69 -0.5s-41.833 -0.5 -56.5 -0.5c-10.667 0 -16 -5.66699 -16 -17c0 -2.66699 -0.166992 -5.16699 -0.5 -7.5
s-0.5 -4.83301 -0.5 -7.5c0.666992 -50 0.666992 -102 0 -156s-0.333984 -106 0.999023 -156c0.666992 -15.333 0.833984 -28.666 0.500977 -39.999s-0.166016 -24.666 0.500977 -39.999c0.666992 -9.33301 0 -19.666 -2 -30.999c-2 -10 -8.33301 -15 -19 -15
c-25.333 -1.33301 -49.5 -2.16602 -72.5 -2.49902s-46.833 -0.833008 -71.5 -1.5c-5.33301 0 -8.83301 1.33301 -10.5 4s-2.83398 6 -3.50098 10c-0.666992 4.66699 -1 9.16699 -1 13.5v13.5v130c0 41.333 -0.333008 84.333 -1 129h1z" />
    <glyph glyph-name="uni0414" unicode="&#x414;" horiz-adv-x="791" 
d="M570 179c0.666992 -13.333 2.16602 -21.4941 4.49902 -24.4941s10.166 -4.83301 23.499 -5.5c8.66699 -0.666992 17.167 -1 25.5 -1s16.5 -0.333008 24.5 -1c10 0 17 -1.33301 21 -4s7 -8.66699 9 -18c0.666992 -4 1 -8 1 -12v-11c0 -22 0.166992 -44 0.5 -66
s0.5 -44 0.5 -66v-11.5c0 -3.66699 -0.333008 -7.5 -1 -11.5c-2 -11.333 -9.33301 -17 -22 -17c-14 0 -28.167 -0.166992 -42.5 -0.5s-28.5 -0.5 -42.5 -0.5c-13.333 0 -19 6.66699 -17 20v3c0 11.333 -0.333008 20 -1 26s-2.33398 10.5 -5.00098 13.5s-7 4.83301 -13 5.5
s-14.333 1 -25 1c-8 0 -22 0.166992 -42 0.5s-43 0.666016 -69 0.999023s-53.5 0.666016 -82.5 0.999023s-56.333 0.5 -82 0.5h-67.5c-19.333 0 -32.333 -0.333008 -39 -1c-2.66699 -0.666992 -5.33398 -2.66699 -8.00098 -6s-4.33398 -6.66602 -5.00098 -9.99902
c-1.33301 -7.33301 -1.83301 -16.333 -1.5 -27s0.5 -19.667 0.5 -27c0 -4 -0.833008 -7.66699 -2.5 -11s-5.16699 -5 -10.5 -5c-17.333 -0.666992 -35.666 -1.33398 -54.999 -2.00098s-37.666 -0.666992 -54.999 0c-9.33301 0 -15.333 1.66699 -18 5
s-4.33398 9.66602 -5.00098 18.999c-1.33301 29.333 -1.66602 58.333 -0.999023 87s0.333984 57.667 -0.999023 87c-0.666992 9.33301 0.166016 15.166 2.49902 17.499s8.16602 2.83301 17.499 1.5c14.667 -2 26.667 3.33301 36 16l27.5 35
c9 11.333 17.167 23.666 24.5 36.999c14.667 26 27.834 52.5 39.501 79.5s20.834 55.167 27.501 84.5c1.33301 6 4 16.5 8 31.5s8 31.333 12 49s7.33301 34.834 10 51.501s4 30 4 40c-0.666992 13.333 -0.166992 25.5 1.5 36.5s2.83398 23.167 3.50098 36.5
c0.666992 12.667 7.33398 18.667 20.001 18c32.667 0 65 0.166992 97 0.5s64 0.166016 96 -0.500977c48 0 95.667 -1 143 -3c11.333 -0.666992 18.166 -2.33398 20.499 -5.00098s3.5 -9.66699 3.5 -21c0 -12.667 0.166992 -30.5 0.5 -53.5s0.833008 -48.667 1.5 -77l2 -88.5
c0.666992 -30.667 1.16699 -60 1.5 -88s0.833008 -53.5 1.5 -76.5s1.33398 -40.5 2.00098 -52.5zM399.999 314.006l0.00195312 18.0039c0 12 -0.333008 26.667 -1 44s-1.16699 35.666 -1.5 54.999s-0.833008 36.333 -1.5 51c0 3.33301 -0.666992 7 -2 11
s-2.66602 6 -3.99902 6c-7.33301 0.666992 -14.833 1 -22.5 1s-15.167 -0.666992 -22.5 -2c-6 -1.33301 -8.83301 -4.33301 -8.5 -9s0.166016 -9.33398 -0.500977 -14.001c-1.33301 -10.667 -2.33301 -20.334 -3 -29.001s-1.66699 -18.667 -3 -30
c-5.33301 -43.333 -14.5 -86 -27.5 -128s-30.167 -82.333 -51.5 -121c-0.666992 -2 -1.33398 -3.83301 -2.00098 -5.5s-1.33398 -3.5 -2.00098 -5.5c-2 -4 -2.16699 -7.16699 -0.5 -9.5s4.5 -3.5 8.5 -3.5c20.667 0 43.167 0.333008 67.5 1s46.833 1.33398 67.5 2.00098
c11.333 0 17 5.66699 17 17v17.5c0 5.66699 -0.333008 11.5 -1 17.5c-1.33301 19.333 -2.33301 38.666 -3 57.999s-1.66699 38.666 -3 57.999z" />
    <glyph glyph-name="uni0415" unicode="&#x415;" horiz-adv-x="594" 
d="M88 -1h-54.0039c-14.667 -0.666992 -23.167 0.333008 -25.5 3s-3.5 11.667 -3.5 27c0 16.667 0.166992 33.334 0.5 50.001s0.5 33.334 0.5 50.001v227c0 72.667 0.333008 148 1 226c0 3.33301 -0.166992 6.16602 -0.5 8.49902s-0.5 4.83301 -0.5 7.5
c0 10 0.166992 17.833 0.5 23.5s2 10 5 13s7.33301 5 13 6s13.834 1.5 24.501 1.5h38c20 0 43.667 -0.166992 71 -0.5s56.666 -0.666016 87.999 -0.999023s61.166 -0.5 89.499 -0.5h75c21.667 0 36.5 0.333008 44.5 1c14 0 22.833 -2.16699 26.5 -6.5s5.5 -12.5 5.5 -24.5
c0 -17.333 -0.166992 -33.833 -0.5 -49.5s-0.166016 -31.834 0.500977 -48.501c0 -14.667 -7 -22 -21 -22c-8 0 -15.833 0.333008 -23.5 1s-15.5 1 -23.5 1h-147h-81c-10 0 -16.333 -1.33301 -19 -4s-3.66699 -9 -3 -19c0.666992 -13.333 1.33398 -25.333 2.00098 -36
s1.33398 -22.667 2.00098 -36c0.666992 -14.667 8 -22 22 -22h19.5h26h26h19.5c15.333 1.33301 22.333 -5.33398 21 -20.001v-66c0 -7.33301 -5.33301 -11.666 -16 -12.999c-4.66699 0 -11.167 -0.166992 -19.5 -0.5s-17 -0.833008 -26 -1.5s-17.667 -1.16699 -26 -1.5
s-14.833 -0.5 -19.5 -0.5c-7.33301 -0.666992 -12.666 -2.5 -15.999 -5.5s-5 -8.16699 -5 -15.5v-78c-1.33301 -14 5.66699 -21 21 -21c7.33301 0 14.333 0.166992 21 0.5s13.667 0.5 21 0.5c26.667 -0.666992 53.167 -1 79.5 -1s52.833 -0.333008 79.5 -1
c10.667 0 21 0.166992 31 0.5s20.333 0.5 31 0.5c9.33301 0 15.833 -1.33301 19.5 -4s5.83398 -8.33398 6.50098 -17.001c1.33301 -17.333 2.5 -34.333 3.5 -51s1.5 -33.667 1.5 -51c0 -14 -2.16699 -23 -6.5 -27s-13.5 -5.66699 -27.5 -5h-41.5h-63h-75.5
c-26.667 0 -52.167 0.166992 -76.5 0.5s-46.833 0.5 -67.5 0.5s-36.667 0.333008 -48 1z" />
    <glyph glyph-name="uni0416" unicode="&#x416;" horiz-adv-x="928" 
d="M352 369c1.33301 0 2.33008 4.17285 2.99707 12.5059s1.33398 18.166 2.00098 29.499s1 23.333 1 36s-0.333008 23.667 -1 33c-1.33301 25.333 -2.83301 48.5 -4.5 69.5s-3.16699 44.167 -4.5 69.5c-0.666992 11.333 0.166016 18.333 2.49902 21
s9.16602 4.33398 20.499 5.00098c21.333 0.666992 42.666 0.833984 63.999 0.500977s42.666 -0.5 63.999 -0.5c7.33301 0 11.833 -1.66699 13.5 -5s2.5 -8.33301 2.5 -15c0 -40.667 0.333008 -79.334 1 -116.001s1.33398 -75.334 2.00098 -116.001v-8
c0 -2.66699 0.666992 -5 2 -7c0.666992 -1.33301 2.16699 -2.33301 4.5 -3s3.5 -0.666992 3.5 0c3.33301 3.33301 6.33301 6.66602 9 9.99902s5 7 7 11l57.5 108c19 34 38.167 70.333 57.5 109c4.66699 10 10.167 17.667 16.5 23s15.5 7.33301 27.5 6
c16.667 -1.33301 33.334 -1.66602 50.001 -0.999023s33.334 1 50.001 1c6 0 11.667 -0.333008 17 -1s9.66602 -4.66699 12.999 -12c2.66699 -6.66699 3 -12.334 1 -17.001s-4.66699 -9.66699 -8 -15l-74.5 -114.5l-74.5 -114.5c-6 -10 -9 -19.667 -9 -29s2.66699 -19 8 -29
l24 -46l30 -57l31.5 -60.5l28.5 -56l22 -44c6 -12.333 10 -20.166 12 -23.499c6 -12.667 2.33301 -20 -11 -22c-11.333 -2 -22.666 -3 -33.999 -3c-15.333 1.33301 -30.833 1.66602 -46.5 0.999023s-31.167 -0.333984 -46.5 0.999023
c-12.667 0.666992 -21.667 6.66699 -27 18l-59 114.5l-60 114.5c-1.33301 2 -2.5 4.16699 -3.5 6.5s-2.16699 4.83301 -3.5 7.5c-2 2 -4 3 -6 3c-2.66699 0 -4 -1.66699 -4 -5c-0.666992 -4.66699 -1.16699 -9.16699 -1.5 -13.5s-0.5 -8.83301 -0.5 -13.5
c1.33301 -38 2.33301 -75 3 -111l2 -112c0.666992 -6.66699 -1 -12.167 -5 -16.5s-9 -5.5 -15 -3.5c-21.333 -0.666992 -42 -0.5 -62 0.5s-40.333 0.833008 -61 -0.5c-11.333 -1.33301 -18.166 -0.5 -20.499 2.5s-3.83301 10.167 -4.5 21.5l-2 114.5l-2 115.5v9.5
c0 3 -0.333008 6.16699 -1 9.5c0 3.33301 -1.66699 5 -5 5c-3.33301 1.33301 -5.66602 0.666016 -6.99902 -2.00098l-5.5 -7.5c-1.66699 -2.33301 -3.5 -5.16602 -5.5 -8.49902l-48.5 -81l-49.5 -82l-28 -44l-28 -44c-3.33301 -5.33301 -6.5 -8.33301 -9.5 -9
s-10.5 -0.666992 -22.5 0c-2 1.33301 -8 2.16602 -18 2.49902s-21.5 0.5 -34.5 0.5h-39h-30.5c-19.333 1.33301 -23.333 9.66602 -12 24.999c5.33301 8.66699 11 16.667 17 24s11.667 15.333 17 24l27.5 41.5l31.5 48.5l32 49.5l29 44.5l21 32.5
c5.33301 8.33301 8.33301 12.833 9 13.5c9.33301 13.333 10 26.666 2 39.999l-21.5 39l-21.5 39c-15.333 25.333 -30.333 48.333 -45 69s-29.667 43.667 -45 69c-7.33301 12 -14.333 24.167 -21 36.5s-13.667 24.5 -21 36.5c-6.66699 11.333 -3 17 11 17
c8.66699 0 19.834 -0.166992 33.501 -0.5s26.834 -0.5 39.501 -0.5s23.834 -0.166992 33.501 -0.5s15.167 -0.5 16.5 -0.5c6.66699 1.33301 14 1.83301 22 1.5s14 -1.83301 18 -4.5c6 -4 10.833 -9.66699 14.5 -17l10.5 -21l30 -55.5l30 -52l30 -51.5l31 -55
c1.33301 -2 2.66602 -5 3.99902 -9s3.66602 -6 6.99902 -6z" />
    <glyph glyph-name="uni0417" unicode="&#x417;" horiz-adv-x="593" 
d="M403 626c29.333 -14 51.1689 -33.166 65.502 -57.499s22.166 -49.5 23.499 -75.5s-3.16699 -50.833 -13.5 -74.5s-25.5 -41.834 -45.5 -54.501c-4 -2.66699 -7 -5 -9 -7c-2.66699 -2.66699 -4 -4.83398 -4 -6.50098s2 -3.83398 6 -6.50098
c7.33301 -4.66699 14.333 -9.66699 21 -15l20 -16c12 -10.667 21.333 -24.5 28 -41.5s10.667 -34.833 12 -53.5s0 -36.834 -4 -54.501s-10.333 -32.5 -19 -44.5c-26 -36 -56 -63.833 -90 -83.5s-72.333 -32.5 -115 -38.5c-10.667 -1.33301 -21.167 -2.33301 -31.5 -3
s-20.5 -1 -30.5 -1c-19.333 -1.33301 -37.5 0 -54.5 4s-33.5 9.5 -49.5 16.5s-31.833 14.833 -47.5 23.5l-46.5 27c-5.33301 3.33301 -9.16602 7.83301 -11.499 13.5s-2.16602 11.834 0.500977 18.501l22.5 52l22.5 52c1.33301 2.66699 4 4.66699 8 6
s7.66699 1.66602 11 0.999023s6.5 -2.16699 9.5 -4.5s6.16699 -4.16602 9.5 -5.49902c23.333 -13.333 47.5 -24.666 72.5 -33.999s51.5 -15 79.5 -17c14 -1.33301 26.667 0.666992 38 6l34 16c3.33301 2 6.16602 5.33301 8.49902 10s4 9.83398 5 15.501s1.5 11.5 1.5 17.5
s-1 11 -3 15c-11.333 28 -31.333 44 -60 48c-9.33301 1.33301 -18.5 2 -27.5 2s-18.167 0.333008 -27.5 1c-10.667 0 -16 5 -16 15c-1.33301 12 -2.5 24.167 -3.5 36.5s-2.16699 24.5 -3.5 36.5c12 3.33301 23.833 6.16602 35.5 8.49902s23.5 5.16602 35.5 8.49902l24 8
c8 2.66699 15.667 6.66699 23 12c9.33301 6.66699 16.166 14.334 20.499 23.001s6 17.334 5 26.001s-4.33301 16.834 -10 24.501s-13.834 14.167 -24.501 19.5c-13.333 7.33301 -27 11.666 -41 12.999s-28.667 -0.666992 -44 -6s-30.333 -10.833 -45 -16.5
s-29 -12.5 -43 -20.5c-12.667 -7.33301 -21.667 -10.5 -27 -9.5s-12 8.16699 -20 21.5c-8.66699 13.333 -17 26.833 -25 40.5s-15.667 27.5 -23 41.5c-1.33301 2.66699 -1.66602 6 -0.999023 10s2 7.33301 4 10c3.33301 3.33301 7 6.33301 11 9s8.33301 5 13 7
c29.333 16 58.333 26.667 87 32s59 12 91 20c4 1.33301 12.167 2.33301 24.5 3s26.666 0.5 42.999 -0.5s33.333 -3.16699 51 -6.5s34.167 -9 49.5 -17z" />
    <glyph glyph-name="uni0418" unicode="&#x418;" horiz-adv-x="750" 
d="M7 616c0 12 1.50488 19.165 4.50488 21.498s10.833 2.83301 23.5 1.5c13.333 -1.33301 26.833 -1.83301 40.5 -1.5s27.167 0.166016 40.5 -0.500977c8 0 16.167 0.333008 24.5 1s16.833 0.333984 25.5 -0.999023c10 -1.33301 16.833 -4.16602 20.5 -8.49902
s5.5 -11.833 5.5 -22.5c0.666992 -3.33301 0.833984 -6.5 0.500977 -9.5s-0.5 -6.16699 -0.5 -9.5v-264v-13.5c0 -4.33301 0.333008 -8.83301 1 -13.5c0 -4.66699 1.66699 -7.66699 5 -9c4 0 7 1.66699 9 5c2.66699 2 5 4.33301 7 7s3.66699 5.33398 5 8.00098
c34 47.333 67.5 96.833 100.5 148.5s66.167 100.834 99.5 147.501c8 13.333 17.333 22.833 28 28.5s25 8.16699 43 7.5c17.333 -2 35.166 -2.66699 53.499 -2s36.166 0.666992 53.499 0c16 -1.33301 26.333 -4.33301 31 -9s6.66699 -15 6 -31
c-1.33301 -68 -1.83301 -137.833 -1.5 -209.5s-0.166992 -141.5 -1.5 -209.5c-0.666992 -26 -0.666992 -50.5 0 -73.5s1.33398 -47.5 2.00098 -73.5c0 -4.66699 0.166992 -8.66699 0.5 -12s0.166016 -7.33301 -0.500977 -12c-0.666992 -6 -2.66699 -10.833 -6 -14.5
s-8.33301 -4.83398 -15 -3.50098c-21.333 0.666992 -43 1.5 -65 2.5s-44 1.16699 -66 0.5c-4.66699 0 -9.33398 0.166992 -14.001 0.5s-9 1.5 -13 3.5c-2.66699 1.33301 -5.16699 3.66602 -7.5 6.99902s-3.5 6.66602 -3.5 9.99902c1.33301 24.667 1.33301 51.334 0 80.001
s-1.33301 55.334 0 80.001c0.666992 24.667 1 49.167 1 73.5s0.333008 48.833 1 73.5c0 1.33301 -0.333008 3.33301 -1 6s-2.33398 4 -5.00098 4c-2 0 -3.5 -0.666992 -4.5 -2s-2.16699 -2.66602 -3.5 -3.99902c-32 -39.333 -64 -81.833 -96 -127.5
s-61.333 -90.5 -88 -134.5l-15.5 -24l-15.5 -24c-6 -10 -13.333 -16.333 -22 -19s-18.334 -4.66699 -29.001 -6c-8 -0.666992 -15.833 -0.833984 -23.5 -0.500977s-15.5 0.5 -23.5 0.5c-13.333 0.666992 -26.833 0.5 -40.5 -0.5s-27.167 -0.833008 -40.5 0.5
c-15.333 1.33301 -24.5 4 -27.5 8s-4.16699 14 -3.5 30c1.33301 24.667 2.16602 49.167 2.49902 73.5s0.5 48.833 0.5 73.5c0 25.333 -0.333008 50.5 -1 75.5l-2 75.5l0.5 15c0.333008 10 0.5 23 0.5 39v55v63.5v63.5v55z" />
    <glyph glyph-name="uni0419" unicode="&#x419;" horiz-adv-x="708" 
d="M6 621c0 10.667 2.00195 18.3359 6.00195 23.0029s11 6.33398 21 5.00098c23.333 -1.33301 45.833 -1.33301 67.5 0s44.167 0.666016 67.5 -2.00098c14.667 -1.33301 21.334 -9 20.001 -23v-35.5v-61.5c0 -23.333 0.166992 -47.833 0.5 -73.5
s0.666016 -49.334 0.999023 -71.001s0.833008 -39.5 1.5 -53.5s1.33398 -21 2.00098 -21c7.33301 0 12.333 2 15 6c9.33301 11.333 18.166 22.666 26.499 33.999l25.5 34l45.5 65l45.5 65l39.5 55l39.5 56c3.33301 4.66699 6.16602 8.33398 8.49902 11.001
s5.33301 4.83398 9 6.50098s8 2.66699 13 3s12.167 0.5 21.5 0.5h78c10.667 0 18.667 -0.166992 24 -0.5s9.33301 -1.5 12 -3.5s4.16699 -5.5 4.5 -10.5s0.833008 -11.833 1.5 -20.5c0.666992 -16.667 1.16699 -41 1.5 -73s0.5 -67.5 0.5 -106.5v-121
c0 -41.667 -0.166992 -80 -0.5 -115s-0.5 -64.833 -0.5 -89.5v-45c0 -8 0.166992 -14.833 0.5 -20.5s-0.166992 -12.5 -1.5 -20.5c-1.33301 -8.66699 -3.66602 -14.334 -6.99902 -17.001s-9.66602 -3.66699 -18.999 -3c-17.333 1.33301 -34.833 1.5 -52.5 0.5
s-35.167 -0.833008 -52.5 0.5c-6 0.666992 -13.167 0.666992 -21.5 0s-13.5 0 -15.5 2s-2.66699 8.33301 -2 19s0.666992 19.667 0 27c0 29.333 0.166992 55.666 0.5 78.999s0.166016 49.666 -0.500977 78.999c0 15.333 -0.166992 30.833 -0.5 46.5
s-0.833008 31.167 -1.5 46.5c0 4.66699 -1.33301 8 -4 10c-2.66699 1.33301 -5.66699 0.333008 -9 -3c-2.66699 -2.66699 -6 -6.66699 -10 -12l-79 -103.5l-79 -103.5c-9.33301 -13.333 -18.833 -25.666 -28.5 -36.999s-19.167 -23.666 -28.5 -36.999
c-6.66699 -10 -16.334 -15 -29.001 -15c-23.333 1.33301 -46.5 1.66602 -69.5 0.999023s-46.167 -0.333984 -69.5 0.999023c-5.33301 0 -8.83301 1.33301 -10.5 4s-2.83398 6.33398 -3.50098 11.001v13.5c0 4.33301 -0.333008 8.83301 -1 13.5
c0 46.667 -0.166992 93.167 -0.5 139.5s-0.833008 93.166 -1.5 140.499c-0.666992 0 -1 7 -1 21v52.5v69v71v57.5v29zM308.002 710.002c-10 0 -19.666 2 -28.999 6s-17.333 9.16699 -24 15.5s-12 13.5 -16 21.5s-5.66699 16.333 -5 25
c1.33301 19.333 9.66602 35.5 24.999 48.5s33.666 19.167 54.999 18.5c43.333 -0.666992 66 -24.667 68 -72c0.666992 -8 -1.16602 -15.833 -5.49902 -23.5s-10 -14.5 -17 -20.5s-15 -10.667 -24 -14s-18.167 -5 -27.5 -5z" />
    <glyph glyph-name="uni041A" unicode="&#x41a;" horiz-adv-x="677" 
d="M7 611c0 10 1.32812 16.498 3.99512 19.498s8.66699 4.16699 18 3.5c16 0 31 -0.333008 45 -1s29.333 -1.33398 46 -2.00098c3.33301 -0.666992 7 -1 11 -1h12c13.333 0 21.333 -1.16699 24 -3.5s4.33398 -10.166 5.00098 -23.499
c1.33301 -21.333 2.16602 -42.666 2.49902 -63.999s0.833008 -42.666 1.5 -63.999c0.666992 -4 0.666992 -7.83301 0 -11.5s-0.666992 -7.5 0 -11.5l2 -10.5c0.666992 -3.66699 1.66699 -7.16699 3 -10.5c3.33301 1.33301 6.33301 2.83301 9 4.5s5 3.5 7 5.5l89 86.5
l88 87.5c7.33301 6.66699 14.666 12.167 21.999 16.5s15.666 6.16602 24.999 5.49902c25.333 -0.666992 50.5 -1.16699 75.5 -1.5s50.167 -0.833008 75.5 -1.5c2 0 4.33301 -1 7 -3s4.33398 -3.66699 5.00098 -5c0.666992 -2 0.333984 -4.5 -0.999023 -7.5
s-2.66602 -5.16699 -3.99902 -6.5l-76 -77.5l-76 -77.5c-9.33301 -9.33301 -18.833 -18.166 -28.5 -26.499s-19.167 -17.166 -28.5 -26.499c-9.33301 -8.66699 -14.166 -14.667 -14.499 -18s2.83398 -10.333 9.50098 -21l41.5 -67.5l42.5 -67.5l61 -96.5l61 -96.5
c5.33301 -8 6.5 -15.333 3.5 -22s-9.16699 -10.667 -18.5 -12c-3.33301 -0.666992 -7 -1 -11 -1h-12c-14 -0.666992 -28.167 -1 -42.5 -1s-28.5 -0.666992 -42.5 -2c-15.333 -1.33301 -28.5 0.833984 -39.5 6.50098s-20.833 14.5 -29.5 26.5
c-9.33301 13.333 -19.666 29 -30.999 47s-21.666 33.667 -30.999 47l-42 60.5l-42 60.5c-5.33301 8 -9.83301 12.167 -13.5 12.5s-9.16699 -2.83398 -16.5 -9.50098c-13.333 -10.667 -19.666 -25.334 -18.999 -44.001c1.33301 -30 2.16602 -59.667 2.49902 -89
s0.833008 -59 1.5 -89c0.666992 -13.333 -0.5 -21.833 -3.5 -25.5s-10.833 -5.5 -23.5 -5.5c-20 0 -41.5 0.333008 -64.5 1s-44.5 1.66699 -64.5 3c-15.333 0.666992 -23.333 9 -24 25c-0.666992 12 -1 33 -1 63v103.5v124v124.5v105v65z" />
    <glyph glyph-name="uni041B" unicode="&#x41b;" horiz-adv-x="751" 
d="M635 356c0 -32 -0.169922 -63.666 -0.50293 -94.999s-0.166016 -63 0.500977 -95c0.666992 -28 1.33398 -53.333 2.00098 -76s1.66699 -48 3 -76c0.666992 -11.333 -3.66602 -17 -12.999 -17c-23.333 0.666992 -46.666 1.16699 -69.999 1.5s-46.666 0.833008 -69.999 1.5
c-6.66699 0 -10.667 1.66699 -12 5s-2 7.66602 -2 12.999v54.5c0 15.667 -0.333008 34.167 -1 55.5l-3 213c-0.666992 16.667 -0.666992 33.334 0 50.001s0.666992 33.667 0 51c0 7.33301 -0.333008 13.166 -1 17.499s-2.16699 7.5 -4.5 9.5s-5.66602 3.33301 -9.99902 4
s-10.5 1.33398 -18.5 2.00098h-8c-6.66699 0 -11.834 -0.166992 -15.501 -0.5s-6.66699 -1.16602 -9 -2.49902s-4.33301 -3.83301 -6 -7.5s-3.5 -8.5 -5.5 -14.5l-23.5 -84c-7.66699 -28 -16.167 -55.667 -25.5 -83c-10 -30 -20.667 -59.833 -32 -89.5
s-24.333 -58.5 -39 -86.5c-8 -15.333 -18.5 -29.5 -31.5 -42.5l-39.5 -38.5c-11.333 -11.333 -24.333 -19.166 -39 -23.499s-30 -6.83301 -46 -7.5c-22 -1.33301 -43.333 0.333984 -64 5.00098s-41 10.667 -61 18c-9.33301 3.33301 -15.166 7.16602 -17.499 11.499
s-2.83301 11.5 -1.5 21.5c4 19.333 7.83301 39 11.5 59s7.83398 39.667 12.501 59c2.66699 14 11 19 25 15l9 -3.5l9 -3.5c20.667 -7.33301 40.5 -8.16602 59.5 -2.49902s34.5 17.5 46.5 35.5c5.33301 8 10.166 16.333 14.499 25s7.83301 17.667 10.5 27l27 91.5
c8.66699 30.333 16.667 60.833 24 91.5c7.33301 28 13.666 56.333 18.999 85s11 57 17 85c2 11.333 4.5 18.5 7.5 21.5s10.167 5.16699 21.5 6.5c2.66699 0 5.33398 0.166992 8.00098 0.5s5 0.166016 7 -0.500977c11.333 0 25.666 0.166992 42.999 0.5
s36.166 0.5 56.499 0.5h62.5h61h52h35c12 -0.666992 19.167 -2.33398 21.5 -5.00098s3.5 -10.334 3.5 -23.001c0 -31.333 -0.166992 -62.333 -0.5 -93s-0.833008 -61.667 -1.5 -93v-21.5c0 -8.33301 0.166992 -16.333 0.5 -24s0.666016 -14.334 0.999023 -20.001z" />
    <glyph glyph-name="uni041C" unicode="&#x41c;" horiz-adv-x="979" 
d="M5 622c0 8 1.16602 13.3301 3.49902 15.9971s7.83301 4.33398 16.5 5.00098c10 0.666992 23.5 1 40.5 1s34 -0.333008 51 -1s32 -1 45 -1s21.167 0.333008 24.5 1c12 2.66699 20.333 -1.33301 25 -12c18.667 -38.667 36.167 -73 52.5 -103l47 -84.5l44.5 -77.5l45 -81
c5.33301 -10 11 -18.667 17 -26c4.66699 -7.33301 9.66699 -7.33301 15 0l102 165l23.5 40l31.5 56l29 53.5l17 32.5c10.667 24 29 35 55 33c20 -1.33301 40 -2.16602 60 -2.49902s40 -0.833008 60 -1.5c6.66699 0 13 -1 19 -3c5.33301 -1.33301 9.66602 -3.5 12.999 -6.5
s5 -7.83301 5 -14.5c0 -27.333 0.333008 -54.5 1 -81.5l2 -81.5c1.33301 -44 2.16602 -88 2.49902 -132s1.16602 -88 2.49902 -132l2 -81l2 -82c0.666992 -12 -1.66602 -20.333 -6.99902 -25s-13.666 -6.66699 -24.999 -6l-105 3c-8 0 -14.333 0.333008 -19 1s-8 2 -10 4
s-3.16699 5 -3.5 9s-0.5 10 -0.5 18c0 45.333 -0.166992 89.166 -0.5 131.499s-0.5 86.5 -0.5 132.5v9.5c0 3 -0.333008 6.16699 -1 9.5s-1.16699 7 -1.5 11s-1.83301 6 -4.5 6c-2 0.666992 -5.16699 -1.83301 -9.5 -7.5s-7.16602 -9.16699 -8.49902 -10.5l-85.5 -128.5
c-29 -43.667 -55.167 -87.5 -78.5 -131.5c-1.33301 -2 -2.5 -4.16699 -3.5 -6.5s-2.16699 -4.5 -3.5 -6.5c-6.66699 -10.667 -11.667 -19 -15 -25s-7 -10.167 -11 -12.5s-9.33301 -3.66602 -16 -3.99902s-16.667 -0.5 -30 -0.5c-20 0.666992 -39.667 0.666992 -59 0
c-17.333 -2 -28.666 5.66699 -33.999 23l-5.5 15c-1.66699 4.66699 -3.5 9.33398 -5.5 14.001c-7.33301 16.667 -14.666 32 -21.999 46s-14.666 29.333 -21.999 46l-16.5 35.5l-16.5 35.5c-4 8.66699 -7.83301 17.5 -11.5 26.5s-7.83398 17.833 -12.501 26.5
c-3.33301 7.33301 -7.83301 16 -13.5 26s-9.83398 15 -12.501 15c-0.666992 0 -1.16699 -4.83301 -1.5 -14.5s-0.5 -22.334 -0.5 -38.001v-53.5c0 -20 0.166992 -40 0.5 -60l1 -57.5c0.333008 -18.333 0.5 -34.166 0.5 -47.499v-11c0 -4 -0.333008 -8 -1 -12
c-2 -14 -10 -20.333 -24 -19c-21.333 0.666992 -42.5 0.666992 -63.5 0s-42.167 -0.333984 -63.5 0.999023c-12 0.666992 -19.5 2.5 -22.5 5.5s-4.83301 10.167 -5.5 21.5c-0.666992 19.333 -1 37 -1 53s-0.333008 33.667 -1 53c-0.666992 26 -1.16699 51.833 -1.5 77.5
s-0.5 51.5 -0.5 77.5c0 8.66699 0.166992 17.167 0.5 25.5s0.5 16.5 0.5 24.5v15v39.5v56v64.5c0 22 -0.166992 43.333 -0.5 64s-0.5 39.334 -0.5 56.001z" />
    <glyph glyph-name="uni041D" unicode="&#x41d;" horiz-adv-x="667" 
d="M554 94c0.666992 -17.333 1.16895 -31.166 1.50195 -41.499s0.5 -24.166 0.5 -41.499c0 -7.33301 -1.5 -12.166 -4.5 -14.499s-8.83301 -3.16602 -17.5 -2.49902c-19.333 0.666992 -38.666 1.16699 -57.999 1.5s-38.666 0.5 -57.999 0.5c-11.333 0 -18.166 1 -20.499 3
s-3.83301 8.66699 -4.5 20c-1.33301 31.333 -2.83301 63.333 -4.5 96s-3.16699 64.667 -4.5 96v11c0 4 -0.333008 8 -1 12c0 8 -5 12.667 -15 14c-26.667 1.33301 -53.167 1.5 -79.5 0.5s-52.5 -0.833008 -78.5 0.5c-13.333 0.666992 -19.333 -5.66602 -18 -18.999
c0.666992 -32.667 0.333984 -64.334 -0.999023 -95.001s-1.33301 -63.667 0 -99c0.666992 -4.66699 1.16699 -9.16699 1.5 -13.5s0.166016 -8.83301 -0.500977 -13.5c0 -9.33301 -4.66699 -14 -14 -14c-6.66699 0 -13.167 0.166992 -19.5 0.5s-12.833 0.833008 -19.5 1.5
c-18 1.33301 -36 1.5 -54 0.5s-36 -0.833008 -54 0.5c-12 1.33301 -19.667 3.5 -23 6.5s-5 10.167 -5 21.5c0 37.333 -0.333008 72.166 -1 104.499s-0.666992 67.166 0 104.499c0.666992 59.333 1.5 118.166 2.5 176.499s2.16699 117.166 3.5 176.499v31
c0 12.667 6.33301 19 19 19c9.33301 0 18.833 0.166992 28.5 0.5s19.5 0.166016 29.5 -0.500977c13.333 -0.666992 26.166 -1.16699 38.499 -1.5s25.166 -1.16602 38.499 -2.49902s21.5 -3.16602 24.5 -5.49902s4.5 -10.166 4.5 -23.499c0.666992 -32 1 -60.5 1 -85.5
s-0.333008 -53.167 -1 -84.5c0 -12 0.166992 -21.5 0.5 -28.5s2 -12.167 5 -15.5s7.83301 -5.33301 14.5 -6s16 -1 28 -1c21.333 0 42.166 0.5 62.499 1.5s40.833 1.83301 61.5 2.5c13.333 0 20 5.66699 20 17c-0.666992 3.33301 -0.833984 6.66602 -0.500977 9.99902
s0.5 6.66602 0.5 9.99902c-1.33301 36 -2.33301 68.667 -3 98s-1.66699 62 -3 98c-1.33301 10.667 2.66699 16 12 16h123c7.33301 0 12.666 -0.333008 15.999 -1c10 -1.33301 16.5 -3.5 19.5 -6.5s4.83301 -9.83301 5.5 -20.5c2 -48 3 -95.667 3 -143
c0 -26 -0.333008 -51.833 -1 -77.5l-2 -77.5v-24v-57.5c0 -22.333 0.166992 -46 0.5 -71s0.5 -46.5 0.5 -64.5z" />
    <glyph glyph-name="uni041E" unicode="&#x41e;" horiz-adv-x="729" 
d="M654 323c-1.33301 -30.667 -8.00195 -63.1699 -20.002 -97.5029s-29 -68.166 -51 -101.499c-23.333 -34 -51 -61.333 -83 -82s-66.333 -38 -103 -52c-10.667 -4 -22.167 -7.33301 -34.5 -10s-24.833 -4.5 -37.5 -5.5s-25.167 -1.16699 -37.5 -0.5
s-23.833 2.33398 -34.5 5.00098c-12 2.66699 -27.333 7.83398 -46 15.501s-38.667 17.334 -60 29.001s-42.666 25.5 -63.999 41.5s-40.666 34 -57.999 54c-15.333 18 -26.833 37.833 -34.5 59.5s-12.167 44.5 -13.5 68.5c-2 36 -0.5 71.333 4.5 106s15.167 68.667 30.5 102
c8 17.333 18.667 35.5 32 54.5s30.333 37.167 51 54.5s45.334 33.333 74.001 48s62.667 26.667 102 36c19.333 4 41.166 5.66699 65.499 5s49.166 -4.33398 74.499 -11.001c18.667 -4.66699 37.5 -12 56.5 -22s36.833 -21 53.5 -33s31.334 -24.167 44.001 -36.5
s22.667 -23.166 30 -32.499c20.667 -26.667 35.5 -55.334 44.5 -86.001s13.833 -67 14.5 -109zM301.998 153.997c18 -0.666992 34.1631 0.176758 48.4961 2.50977s28.166 7.16602 41.499 14.499c34 21.333 58.333 47.666 73 78.999s18.334 66.666 11.001 105.999
c-3.33301 19.333 -10.166 37 -20.499 53s-23.166 29.667 -38.499 41s-32.166 19.666 -50.499 24.999s-37.166 6.66602 -56.499 3.99902s-37.833 -6.83398 -55.5 -12.501s-32.834 -16.167 -45.501 -31.5c-24.667 -28 -41.667 -58.5 -51 -91.5s-9 -68.5 1 -106.5
c2 -6.66699 5.5 -13.334 10.5 -20.001s10.167 -12.334 15.5 -17.001c18 -14.667 36.833 -26.334 56.5 -35.001s39.834 -12.334 60.501 -11.001z" />
    <glyph glyph-name="uni041F" unicode="&#x41f;" horiz-adv-x="688" 
d="M561 353c-1.33301 -38.667 -2.3291 -76.9961 -2.99609 -114.996l-2 -114c-0.666992 -17.333 -0.5 -33.166 0.5 -47.499s1.83301 -30.166 2.5 -47.499c0 -10 -1.16699 -16.5 -3.5 -19.5s-8.16602 -4.83301 -17.499 -5.5l-65.5 -4
c-21.667 -1.33301 -43.5 -2.33301 -65.5 -3c-12.667 -0.666992 -19 7 -19 23c0 25.333 0.166992 48.833 0.5 70.5s0.5 45.167 0.5 70.5c0 42 0.166992 83.5 0.5 124.5s0.166016 82.167 -0.500977 123.5c0 18 -0.333008 31 -1 39s-2.66699 13.5 -6 16.5s-9 4.33301 -17 4
s-19.333 -0.166016 -34 0.500977c-19.333 0.666992 -38.666 1.16699 -57.999 1.5s-38.666 0.166016 -57.999 -0.500977c-12.667 0 -20.5 -1.5 -23.5 -4.5s-4.5 -10.167 -4.5 -21.5v-175c0.666992 -38.667 1.16699 -77.334 1.5 -116.001s0.833008 -77.334 1.5 -116.001
c0 -3.33301 -0.333008 -6 -1 -8c-0.666992 -8.66699 -1.33398 -15.334 -2.00098 -20.001s-2.33398 -8 -5.00098 -10s-6.33398 -3.16699 -11.001 -3.5s-11.334 -0.5 -20.001 -0.5c-18.667 0.666992 -37.334 1.16699 -56.001 1.5s-37.334 1.5 -56.001 3.5
c-14.667 1.33301 -23.667 4.16602 -27 8.49902s-5 13.833 -5 28.5v450v133c0 9.33301 1 14.666 3 15.999s8 1.66602 18 0.999023c32 -1.33301 63.5 -1.83301 94.5 -1.5s62.5 0.5 94.5 0.5c44 -0.666992 87 0 129 2s84.333 2 127 0c10.667 0 21 -0.166992 31 -0.5
s20.333 -0.5 31 -0.5c10 0 16.167 -1 18.5 -3s3.5 -8 3.5 -18v-93c0 -14 0.166992 -30.667 0.5 -50l1 -56c0.333008 -18 0.833008 -33.167 1.5 -45.5z" />
    <glyph glyph-name="uni0420" unicode="&#x420;" horiz-adv-x="614" 
d="M6 483c0.666992 24 1.16797 45.165 1.50098 63.498s0.833008 39.166 1.5 62.499c0 6.66699 0.166992 12 0.5 16s1.5 7 3.5 9s4.83301 3.33301 8.5 4s8.83398 1.33398 15.501 2.00098c5.33301 0.666992 10.5 0.833984 15.5 0.500977s10.167 -0.5 15.5 -0.5
c7.33301 0 15 0.166992 23 0.5s15.667 0.5 23 0.5c4.66699 0 12.334 0.166992 23.001 0.5s22 1 34 2s23.5 1.66699 34.5 2s18.833 0.5 23.5 0.5c13.333 -1.33301 26.333 -2.5 39 -3.5s25.334 -2.16699 38.001 -3.5c30 -3.33301 57.167 -11.666 81.5 -24.999
s47.833 -29 70.5 -47c3.33301 -2.66699 6.16602 -5.33398 8.49902 -8.00098s5.16602 -5.66699 8.49902 -9c16 -14.667 27.833 -29.167 35.5 -43.5s12.167 -29.166 13.5 -44.499s0.333008 -31.333 -3 -48s-8 -35 -14 -55c-14 -44.667 -34 -79.334 -60 -104.001
s-60 -43.334 -102 -56.001c-23.333 -7.33301 -46.833 -11.666 -70.5 -12.999s-47.834 -1.33301 -72.501 0c-15.333 1.33301 -24.666 0.5 -27.999 -2.5s-5.33301 -12.167 -6 -27.5c-0.666992 -22.667 -0.833984 -45.334 -0.500977 -68.001s0.5 -45.334 0.5 -68.001
c0 -13.333 -1.66699 -21.666 -5 -24.999s-12 -4.66602 -26 -3.99902l-55.5 2l-56.5 2c-12.667 0.666992 -19.334 8.33398 -20.001 23.001c-0.666992 18 -1 36 -1 54v54v202v17v41c0 16 0.166992 32.833 0.5 50.5s0.833008 33.167 1.5 46.5zM230.001 494.998
c-5.33301 0 -11 -0.167969 -17 -0.500977s-11.667 -0.5 -17 -0.5c-6 -0.666992 -10.833 -2.16699 -14.5 -4.5s-5.83398 -6.83301 -6.50098 -13.5c0 -19.333 -0.166992 -39.333 -0.5 -60s-0.833008 -40.667 -1.5 -60c0 -10 5.33301 -15.667 16 -17
c24 -2.66699 47.333 -2.5 70 0.5s44.667 10.167 66 21.5c12 6.66699 21.333 15.334 28 26.001c5.33301 8 8.66602 17.5 9.99902 28.5s0.333008 21.5 -3 31.5s-8.66602 18.833 -15.999 26.5s-17 12.5 -29 14.5c-7.33301 1.33301 -15.666 2.5 -24.999 3.5
s-18.5 1.83301 -27.5 2.5s-16.667 1 -23 1h-9.5z" />
    <glyph glyph-name="uni0421" unicode="&#x421;" horiz-adv-x="688" 
d="M-20 334c0 35.333 5.16699 67.5 15.5 96.5s23.833 54.667 40.5 77s35.167 42 55.5 59s40.666 31.167 60.999 42.5s39.333 20.333 57 27s31.834 11 42.501 13c62.667 13.333 122.334 7 179.001 -19c12.667 -5.33301 25.167 -11.833 37.5 -19.5l35.5 -22.5
c7.33301 -4 10.833 -7.5 10.5 -10.5s-3.5 -7.5 -9.5 -13.5l-45.5 -41.5l-45.5 -41.5c-9.33301 -8.66699 -20 -10.667 -32 -6c-20 7.33301 -39.333 10.333 -58 9c-12 -0.666992 -26.833 -4.33398 -44.5 -11.001s-34.667 -16.667 -51 -30s-30.333 -30.5 -42 -51.5
s-17.5 -46.167 -17.5 -75.5c0 -35.333 7.66699 -63.5 23 -84.5s33.333 -36.833 54 -47.5s41.5 -17.167 62.5 -19.5s37.5 -2.5 49.5 -0.5c21.333 3.33301 40.333 10.833 57 22.5s31.667 26.167 45 43.5l9 10.5c2 2.33301 4 3.83301 6 4.5s4.33301 0.166992 7 -1.5
s6.33398 -4.16699 11.001 -7.5l39 -25c12.667 -8 25.667 -16.667 39 -26c9.33301 -6.66699 14.666 -12.167 15.999 -16.5s-0.333984 -11.5 -5.00098 -21.5c-10 -22.667 -23 -42.667 -39 -60s-34.333 -32.666 -55 -45.999c-24 -15.333 -48.833 -28.5 -74.5 -39.5
s-53.5 -17.167 -83.5 -18.5c-61.333 0 -112.5 8.66699 -153.5 26s-74.5 39 -100.5 65s-45.5 54.167 -58.5 84.5s-22.333 58.5 -28 84.5s-8.66699 47.667 -9 65z" />
    <glyph glyph-name="uni0422" unicode="&#x422;" horiz-adv-x="614" 
d="M468 637c4.66699 -0.666992 9.16992 -0.999023 13.5029 -0.999023s8.83301 -0.666992 13.5 -2c13.333 -2 21.666 -4.66699 24.999 -8s5 -12 5 -26c0 -17.333 -0.166992 -33 -0.5 -47s-0.833008 -29.667 -1.5 -47c-0.666992 -11.333 -2.33398 -18.333 -5.00098 -21
s-9.33398 -3.66699 -20.001 -3c-8 0 -18.167 -0.166992 -30.5 -0.5s-24.5 -0.5 -36.5 -0.5s-22.833 -0.166992 -32.5 -0.5s-15.5 -0.5 -17.5 -0.5c-10 0 -17.833 -0.333008 -23.5 -1s-9.66699 -2.33398 -12 -5.00098s-3.66602 -6.66699 -3.99902 -12
s-0.166016 -13 0.500977 -23v-32.5c0 -20.333 -0.333008 -45.5 -1 -75.5s-1.16699 -62.5 -1.5 -97.5s-0.833008 -67.5 -1.5 -97.5s-1.16699 -55 -1.5 -75s-0.5 -30.333 -0.5 -31c-2 -20 -12.667 -30.333 -32 -31h-21.5h-26c-8.33301 0 -15.833 0.166992 -22.5 0.5
s-10.667 0.5 -12 0.5c-10.667 0 -19 0.166992 -25 0.5s-10.333 1.83301 -13 4.5s-4.33398 6.83398 -5.00098 12.501s-1 13.834 -1 24.501v33c0 16.667 0.166992 36.667 0.5 60s0.666016 49 0.999023 77l1 83c0.333008 27.333 0.5 53.166 0.5 77.499v61.5v27
c0.666992 11.333 -5.66602 17.666 -18.999 18.999c-8.66699 0 -20 0.333008 -34 1s-27.833 1.16699 -41.5 1.5s-26 0.833008 -37 1.5s-17.5 1 -19.5 1c-10 0.666992 -16.667 2.66699 -20 6s-5 10 -5 20v39c0 10.667 0.333008 23.667 1 39v12c0 6 -0.333008 12.333 -1 19
s0.666016 12 3.99902 16c2 3.33301 6.5 4.5 13.5 3.5s13.5 -1.5 19.5 -1.5c8.66699 0 24.167 0.166992 46.5 0.5s47.833 0.5 76.5 0.5s59 -0.166992 91 -0.5s62.333 -0.5 91 -0.5s54 -0.166992 76 -0.5s37 -0.5 45 -0.5z" />
    <glyph glyph-name="uni0423" unicode="&#x423;" horiz-adv-x="729" 
d="M159 641c9.33301 0 16.6621 -0.505859 21.9951 -1.50586s9.16602 -2.66699 11.499 -5s3.5 -6 3.5 -11s-0.666992 -11.5 -2 -19.5c-3.33301 -19.333 -3.5 -38 -0.5 -56s7.16699 -36 12.5 -54c10.667 -35.333 28.334 -62.333 53.001 -81s52.667 -33.667 84 -45
c8.66699 -3.33301 14.5 -4 17.5 -2s6.83301 8 11.5 18l24 59l23 60l21 56l21 56c3.33301 12 10.333 18 21 18l70 2c23.333 0.666992 46.666 0.666992 69.999 0c15.333 0 25.333 -3 30 -9s4.33398 -16.667 -0.999023 -32c-14 -41.333 -29 -81.333 -45 -120
c-23.333 -62.667 -49.666 -123.167 -78.999 -181.5s-60.666 -116.166 -93.999 -173.499c-10.667 -18.667 -23.334 -35 -38.001 -49s-31 -26.667 -49 -38c-18.667 -11.333 -37.834 -21.5 -57.501 -30.5s-41.167 -14.5 -64.5 -16.5
c-13.333 -0.666992 -26.666 -0.833984 -39.999 -0.500977s-26.666 2.83301 -39.999 7.5c-18.667 6 -37.167 11.667 -55.5 17s-35.833 13.666 -52.5 24.999c-10 6.66699 -15.5 11.5 -16.5 14.5s0.833008 10.5 5.5 22.5c6.66699 18.667 12.834 37.167 18.501 55.5
s12.167 36.5 19.5 54.5c5.33301 14.667 11.5 22.834 18.5 24.501s17.167 -2.16602 30.5 -11.499c7.33301 -5.33301 14.833 -10.166 22.5 -14.499s15.834 -8.16602 24.501 -11.499c25.333 -9.33301 50 -8.66602 74 2.00098s43 26.334 57 47.001c7.33301 9.33301 5 16 -7 20
l-39 16l-39 16c-25.333 11.333 -48.166 25.5 -68.499 42.5s-39.166 35.167 -56.499 54.5c-18 20.667 -31.5 43.334 -40.5 68.001s-15.833 50.334 -20.5 77.001c-3.33301 19.333 -6 37.5 -8 54.5s-4 35.5 -6 55.5c-0.666992 9.33301 0 15.166 2 17.499s7.66699 3.5 17 3.5
h28.5h40.5c14 0 27.167 -0.166992 39.5 -0.5s21.166 -0.5 26.499 -0.5z" />
    <glyph glyph-name="uni0424" unicode="&#x424;" horiz-adv-x="812" 
d="M457 646c2.66699 -2 4.32715 -6.66699 4.99414 -14s1.16699 -15.333 1.5 -24s0.5 -16.5 0.5 -23.5s0.666992 -11.167 2 -12.5c1.33301 -3.33301 3.83301 -5.33301 7.5 -6l10.5 -2c58.667 -5.33301 106.667 -18 144 -38s62.666 -43.667 75.999 -71
c12.667 -27.333 22.667 -55.333 30 -84c10.667 -44 9.33398 -84.5 -3.99902 -121.5s-33.666 -71.5 -60.999 -103.5c-19.333 -23.333 -42.666 -41.166 -69.999 -53.499s-56.333 -20.5 -87 -24.5c-11.333 -2 -19.833 -3.66699 -25.5 -5s-10 -3.5 -13 -6.5
s-4.66699 -7.5 -5 -13.5s-0.5 -14.333 -0.5 -25v-16c0 -12 -6.33301 -19 -19 -21c-22 -2 -43.833 -3.16699 -65.5 -3.5s-43.5 1.83398 -65.5 6.50098c-13.333 2 -20 9.66699 -20 23c-0.666992 9.33301 -1.5 18.833 -2.5 28.5s-1.83301 19.167 -2.5 28.5
c-9.33301 2 -18.666 3.83301 -27.999 5.5s-18.666 3.5 -27.999 5.5c-13.333 3.33301 -26.5 6.33301 -39.5 9s-26.167 6 -39.5 10c-17.333 6 -34.166 13.667 -50.499 23s-31.333 21 -45 35s-25.167 30.333 -34.5 49s-16 40 -20 64c-6.66699 38 -5.16699 73.833 4.5 107.5
s24.834 66.167 45.501 97.5c11.333 16.667 24.666 30.667 39.999 42s32.333 20.666 51 27.999c19.333 8 39.5 14.333 60.5 19s42.167 7.33398 63.5 8.00098c6.66699 0 12 0.333008 16 1s6.83301 2 8.5 4s2.66699 5.16699 3 9.5s0.5 10.166 0.5 17.499v15
c-2 18 -0.166992 29.167 5.5 33.5s16.834 7.16602 33.501 8.49902c4 0.666992 11.833 0.833984 23.5 0.500977s24 -0.833008 37 -1.5s25 -1.83398 36 -3.50098s17.833 -3.5 20.5 -5.5zM297.993 337l0.999023 0.00390625c0 11.333 0.166992 22.333 0.5 33s0.5 21.667 0.5 33
c-0.666992 11.333 -2 18.666 -4 21.999s-9 4.33301 -21 3c-6 0 -14.833 -2.83301 -26.5 -8.5s-23.167 -13.334 -34.5 -23.001s-21.166 -20.834 -29.499 -33.501s-12.166 -26.334 -11.499 -41.001c0.666992 -21.333 5.16699 -39.166 13.5 -53.499
s17.666 -25.833 27.999 -34.5s21 -14.667 32 -18s20.167 -5 27.5 -5c6 0.666992 11.167 1.66699 15.5 3s6.83301 6.66602 7.5 15.999c0 18 0.166992 35.833 0.5 53.5s0.5 35.5 0.5 53.5zM461.992 225.004c0 -11.333 5.00195 -15.9971 15.002 -13.9971
c16 3.33301 31.167 8.16602 45.5 14.499s26.166 16.166 35.499 29.499c13.333 17.333 20.5 36 21.5 56s-2.16699 40.333 -9.5 61c-7.33301 17.333 -18 29 -32 35s-28.667 10.667 -44 14c-1.33301 0 -4 0.666992 -8 2c-9.33301 1.33301 -15.333 1.16602 -18 -0.500977
s-4.33398 -7.16699 -5.00098 -16.5c0 -7.33301 -0.166992 -19.333 -0.5 -36s-0.5 -34.5 -0.5 -53.5v-54v-37.5z" />
    <glyph glyph-name="uni0425" unicode="&#x425;" horiz-adv-x="771" 
d="M649 -3c-31.333 -1.33301 -61.5039 -1.66699 -90.5039 -1s-58.833 0.333984 -89.5 -0.999023c-7.33301 0 -13 1.33301 -17 4s-7.66699 6.66699 -11 12c-9.33301 12 -18.5 25 -27.5 39s-18.167 27.333 -27.5 40l-22.5 30.5l-22.5 30.5
c-9.33301 12.667 -15.666 19 -18.999 19s-9.33301 -6.33301 -18 -19l-31.5 -47l-31.5 -48l-8 -10.5c-2.66699 -3.66699 -5 -7.5 -7 -11.5c-17.333 -36 -46.666 -52 -87.999 -48c-21.333 -0.666992 -39.5 -0.666992 -54.5 0s-31.167 1 -48.5 1c-6.66699 0 -14 1.66699 -22 5
c-8 2 -9.66699 7 -5 15l48.5 73l48.5 73l49 75l50 74c5.33301 7.33301 7.66602 13.833 6.99902 19.5s-3.33398 11.5 -8.00098 17.5l-44.5 62.5l-43.5 62.5l-49.5 74l-49.5 74c-1.33301 3.33301 -2.66602 6.33301 -3.99902 9s-2.66602 5.66699 -3.99902 9
c-2 8 1.33301 12 10 12c27.333 0.666992 54.5 1.16699 81.5 1.5s54.167 0.833008 81.5 1.5c5.33301 0 9.33301 -1.16699 12 -3.5s5.33398 -5.5 8.00098 -9.5l50 -69.5l50 -69.5c1.33301 -2 3 -4 5 -6s3.66699 -4 5 -6c7.33301 -9.33301 14.333 -9.33301 21 0
c3.33301 5.33301 6.83301 10.5 10.5 15.5l11.5 15.5l38 54c12.667 18 25 36.667 37 56c10 14 22.667 21 38 21c22 0 44 0.166992 66 0.5s44.333 0.833008 67 1.5c6 0 10 -1.66699 12 -5s2.66699 -7.66602 2 -12.999c-2 -8 -5.33301 -16 -10 -24l-55.5 -85l-54.5 -84
l-28 -45.5l-29 -44.5c-4 -6 -5.16699 -10.833 -3.5 -14.5s4.16699 -7.83398 7.5 -12.501l48.5 -60.5l48.5 -61.5l54 -73.5l53 -74.5c3.33301 -4.66699 6.33301 -9.33398 9 -14.001s5.33398 -9.66699 8.00098 -15c4 -8 5 -13.5 3 -16.5s-7.33301 -4.5 -16 -4.5z" />
    <glyph glyph-name="uni0426" unicode="&#x426;" horiz-adv-x="729" 
d="M6 611c-0.666992 10.667 0.164062 17.3369 2.49707 20.0039s9.16602 5 20.499 7c2.66699 0 9.16699 0.166992 19.5 0.5s22.166 0.5 35.499 0.5s26.666 -0.166992 39.999 -0.5s24 -0.5 32 -0.5c7.33301 0 12.166 -1.5 14.499 -4.5s3.5 -7.83301 3.5 -14.5
c0.666992 -18.667 1.16699 -41.334 1.5 -68.001s0.5 -55 0.5 -85s-0.166992 -60.167 -0.5 -90.5s-0.5 -58.5 -0.5 -84.5s-0.166992 -48.5 -0.5 -67.5s-0.166016 -31.833 0.500977 -38.5c0 -14.667 8 -22 24 -22h73.5c24.333 0 48.833 -0.333008 73.5 -1
c13.333 0 19.333 6.66699 18 20c-0.666992 10.667 -1 26.5 -1 47.5v72c0 27 -0.166992 55.5 -0.5 85.5s-0.5 59 -0.5 87s-0.333008 53.833 -1 77.5s-1.33398 42.5 -2.00098 56.5v10c0 3.33301 0.333008 6.66602 1 9.99902c2 10 8.33301 15 19 15
c20 -1.33301 40 -2.16602 60 -2.49902s40 -1.16602 60 -2.49902c10.667 -1.33301 17.167 -3.16602 19.5 -5.49902s3.83301 -9.16602 4.5 -20.499c0.666992 -16 1.33398 -35.333 2.00098 -58s1.16699 -47 1.5 -73s0.5 -52.167 0.5 -78.5s0.166992 -50.833 0.5 -73.5
s0.5 -42.334 0.5 -59.001v-34c0.666992 -7.33301 1 -14.5 1 -21.5s0.333008 -14.167 1 -21.5c0.666992 -11.333 1.33398 -19.833 2.00098 -25.5s2.5 -10 5.5 -13s7.33301 -4.83301 13 -5.5s14.167 -1 25.5 -1c2 0 4 0.166992 6 0.5s3.66699 0.166016 5 -0.500977
c12 -0.666992 21 -1.33398 27 -2.00098s10 -2.33398 12 -5.00098s3 -6.66699 3 -12s0.333008 -12.333 1 -21c2.66699 -28.667 4.33398 -56.334 5.00098 -83.001s0.666992 -55.667 0 -87c0 -10 -2 -17.833 -6 -23.5s-11 -8.83398 -21 -9.50098
c-17.333 0 -33.666 0.166992 -48.999 0.5s-31.666 0.166016 -48.999 -0.500977c-14.667 0 -23 6.66699 -25 20c-1.33301 9.33301 -1.66602 18.833 -0.999023 28.5s0.333984 19.167 -0.999023 28.5c-1.33301 11.333 -7 17.333 -17 18c-6 0.666992 -12.333 1.16699 -19 1.5
s-13 -0.166992 -19 -1.5c-11.333 0 -26.666 -0.166992 -45.999 -0.5s-40.5 -0.5 -63.5 -0.5s-46.667 -0.333008 -71 -1s-47.333 -1 -69 -1s-41 -0.166992 -58 -0.5s-29.5 -0.5 -37.5 -0.5h-31c-6.66699 0.666992 -13.667 0.833984 -21 0.500977s-13.333 1.16699 -18 4.5
c-3.33301 2.66699 -4.83301 7.66699 -4.5 15s0.166016 14.333 -0.500977 21c-2 64.667 -1.66699 128.667 1 192s2.66699 127.333 0 192l-2 68c-0.666992 19.333 -1 39.833 -1 61.5v60.5z" />
    <glyph glyph-name="uni0427" unicode="&#x427;" 
d="M550 471c-0.666992 -71.333 -0.831055 -142.332 -0.498047 -212.999s0.166016 -141.667 -0.500977 -213c0 -7.33301 -0.166992 -12.833 -0.5 -16.5l-1.5 -16.5c-1.33301 -9.33301 -3.5 -15.333 -6.5 -18s-9.16699 -3.66699 -18.5 -3c-20 1.33301 -40 1.33301 -60 0
s-40 -0.666016 -60 2.00098c-17.333 2 -26 14 -26 36v117c0 9.33301 -0.333008 18.833 -1 28.5l-2 29.5c-0.666992 11.333 -6.33398 14.333 -17.001 9c-3.33301 -1.33301 -6.83301 -3.16602 -10.5 -5.49902s-7.16699 -4.16602 -10.5 -5.49902l-41.5 -16
c-13.667 -5.33301 -27.5 -10 -41.5 -14c-34.667 -9.33301 -66.834 -9.33301 -96.501 0s-58.167 24 -85.5 44c-16 12 -29.167 26.167 -39.5 42.5s-16.166 34.833 -17.499 55.5l-4 67.5c-1.33301 22.333 -2.33301 45.166 -3 68.499v43c0 13.333 0.166992 26.333 0.5 39l1 39
c0.333008 13.333 0.5 27.666 0.5 42.999c0 14.667 6.66699 22 20 22c3.33301 0 10.5 0.166992 21.5 0.5s23.167 0.5 36.5 0.5h39h30c8 -0.666992 14.333 -1.33398 19 -2.00098s8 -2 10 -4s3.16699 -5.16699 3.5 -9.5s0.5 -10.166 0.5 -17.499
c-0.666992 -28 -1.5 -52.833 -2.5 -74.5s-1.83301 -46.167 -2.5 -73.5c0 -11.333 0.333008 -22.333 1 -33s2.33398 -21.667 5.00098 -33c3.33301 -16 10.333 -28.833 21 -38.5s25.667 -14.5 45 -14.5c33.333 -0.666992 63.333 9 90 29
c9.33301 7.33301 16.5 15.166 21.5 23.499s7.5 19.166 7.5 32.499c-1.33301 32 -1.66602 63 -0.999023 93s1 61 1 93v8c0.666992 11.333 2.5 18.666 5.5 21.999s10.167 5 21.5 5h19h33.5h36h28.5c13.333 0.666992 21.666 -1 24.999 -5s5.66602 -12.667 6.99902 -26
c0.666992 -11.333 1 -25.166 1 -41.499v-46.5c0 -14.667 -0.166992 -27.167 -0.5 -37.5z" />
    <glyph glyph-name="uni0428" unicode="&#x428;" horiz-adv-x="969" 
d="M255 -2c-34 0.666992 -67.6689 1.16797 -101.002 1.50098s-67 0.833008 -101 1.5c-6.66699 0 -11.667 0.333008 -15 1c-11.333 1.33301 -18.833 4.16602 -22.5 8.49902s-5.5 12.166 -5.5 23.499c-1.33301 46 -1.66602 91.333 -0.999023 136s0.666992 90 0 136
c-0.666992 36.667 -0.833984 73.334 -0.500977 110.001s0.5 73.667 0.5 111c0.666992 15.333 0.666992 27.666 0 36.999s-1.33398 21.666 -2.00098 36.999c0 4.66699 0.333008 9 1 13s1.33398 8.33301 2.00098 13c3.33301 10 10 14.667 20 14
c6.66699 -0.666992 15.334 -1.16699 26.001 -1.5s21.5 -0.5 32.5 -0.5s21 0.166992 30 0.5s14.5 0.5 16.5 0.5c8.66699 0.666992 15.667 0.666992 21 0s9.5 -2.16699 12.5 -4.5s5.16699 -6 6.5 -11s2.33301 -11.833 3 -20.5
c3.33301 -41.333 4.66602 -80.666 3.99902 -117.999s-0.333984 -77 0.999023 -119c0.666992 -28 0.333984 -56.667 -0.999023 -86s-1.33301 -58 0 -86c0.666992 -9.33301 2.16699 -15.166 4.5 -17.499s8.5 -3.83301 18.5 -4.5c16.667 -1.33301 34.667 -1.5 54 -0.5
s37 1.16699 53 0.5s25.667 0.5 29 3.5s4.66602 12.167 3.99902 27.5c0 25.333 -0.333008 50.5 -1 75.5s-1 50.167 -1 75.5c0 36 0.166992 71.5 0.5 106.5s0.5 70.5 0.5 106.5c0 10.667 0.333008 19.5 1 26.5s0.333984 15.833 -0.999023 26.5c-1.33301 13.333 4 20 16 20
c22.667 -1.33301 44.5 -1.33301 65.5 0s42.833 1 65.5 -1c9.33301 -1.33301 15.333 -3.66602 18 -6.99902s4 -10.666 4 -21.999c0.666992 -58 1 -115.5 1 -172.5v-172.5c0 -12.667 0.166992 -25.167 0.5 -37.5s0.833008 -24.5 1.5 -36.5
c0.666992 -9.33301 2.5 -15.333 5.5 -18s9.16699 -4 18.5 -4c18 -0.666992 36 -0.833984 54 -0.500977s36.333 0.5 55 0.5c11.333 0 17 5.33301 17 16v55c-0.666992 27.333 -0.833984 54.333 -0.500977 81s-0.166992 54 -1.5 82
c-1.33301 33.333 -2.16602 66.166 -2.49902 98.499s-1.16602 65.166 -2.49902 98.499c0 2.66699 -0.166992 5.16699 -0.5 7.5s-0.5 5.16602 -0.5 8.49902c0 7.33301 1.5 12.5 4.5 15.5s8.5 4.5 16.5 4.5h60c19.333 0 39.666 -0.333008 60.999 -1
c7.33301 -0.666992 13 -2.66699 17 -6s6.33301 -10.666 7 -21.999c2 -64.667 3.5 -129.167 4.5 -193.5s-0.166992 -129.166 -3.5 -194.499c-1.33301 -30 -1.5 -59.167 -0.5 -87.5s1.5 -57.5 1.5 -87.5c0 -20.667 -2.83301 -33.667 -8.5 -39s-18.5 -8 -38.5 -8
c-11.333 0 -31.166 -0.166992 -59.499 -0.5s-60.666 -0.5 -96.999 -0.5h-115.5h-113.5c-35 0 -65.167 0.166992 -90.5 0.5s-41.333 0.5 -48 0.5z" />
    <glyph glyph-name="uni0429" unicode="&#x429;" horiz-adv-x="1083" 
d="M340 617c0 10 1.00488 16.498 3.00488 19.498s8 4.5 18 4.5c20 0.666992 40 0.833984 60 0.500977s40 -0.833008 60 -1.5c11.333 0 17 -6.66699 17 -20c0 -29.333 0.166992 -57.333 0.5 -84s0.166016 -54.667 -0.500977 -84c0 -44 -0.166992 -88 -0.5 -132
s-0.5 -88 -0.5 -132c-0.666992 -11.333 0.166016 -18.333 2.49902 -21s9.16602 -4.33398 20.499 -5.00098c19.333 -0.666992 38.833 -1 58.5 -1h58.5c8.66699 0 15.334 0.333008 20.001 1s8.16699 2.16699 10.5 4.5s3.66602 5.83301 3.99902 10.5s0.5 11 0.5 19
c0 28 -0.166992 55.833 -0.5 83.5s-0.5 55.5 -0.5 83.5c-0.666992 40.667 -1 81.334 -1 122.001v122c0 7.33301 0.166992 13.166 0.5 17.499s1.5 7.66602 3.5 9.99902s5 3.83301 9 4.5s9.66699 1 17 1c20 0.666992 40 0.5 60 -0.5s40 -2.16699 60 -3.5c8 0 12.667 -5 14 -15
c1.33301 -13.333 2.5 -26.833 3.5 -40.5s1.5 -27.167 1.5 -40.5c0.666992 -53.333 0.666992 -106.333 0 -159s0 -105.667 2 -159l1.5 -41c0.333008 -8.66699 2.16602 -14.5 5.49902 -17.5s9 -4.33301 17 -4s20 0.166016 36 -0.500977l36.5 -2
c12.333 -0.666992 24.5 -1.66699 36.5 -3c12.667 -1.33301 19.334 -7.66602 20.001 -18.999c0 -4.66699 0.5 -9.16699 1.5 -13.5s1.83301 -8.83301 2.5 -13.5c1.33301 -31.333 2.16602 -62.333 2.49902 -93s1.16602 -61.667 2.49902 -93c0 -4 -0.333008 -7.83301 -1 -11.5
l-2 -11.5c-2 -12 -9 -18 -21 -18c-18 0.666992 -36 1 -54 1s-36 0.333008 -54 1c-12.667 0 -20.667 1.66699 -24 5s-5.66602 11 -6.99902 23c-3.33301 22 -5.33301 44 -6 66c-0.666992 7.33301 -2.5 12.666 -5.5 15.999s-8.16699 5 -15.5 5
c-13.333 0 -26.333 0.166992 -39 0.5s-25.667 0.5 -39 0.5c-70 0.666992 -139.667 1.16699 -209 1.5s-139.333 0.833008 -210 1.5c-44.667 0 -89.167 0.166992 -133.5 0.5s-88.833 0.5 -133.5 0.5h-12c-4 0 -7.66699 0.666992 -11 2c-7.33301 1.33301 -13 4.33301 -17 9
s-5 10.667 -3 18c-1.33301 14 -2 27 -2 39v34.5c0 11 0.166992 21.833 0.5 32.5s0.5 21.667 0.5 33c-1.33301 34.667 -1.33301 69 0 103s1 68.333 -1 103c-2.66699 40 -3.83398 77.833 -3.50098 113.5s0.833008 73.5 1.5 113.5v16c0.666992 11.333 2.16699 18.333 4.5 21
s9.16602 3.66699 20.499 3c11.333 0 22.833 -0.333008 34.5 -1s23.167 -1 34.5 -1c10 -0.666992 19.833 -1.16699 29.5 -1.5s19.167 -0.166016 28.5 0.500977c12.667 0 19 -6 19 -18c-0.666992 -15.333 -1.16699 -28.666 -1.5 -39.999s-0.5 -24.666 -0.5 -39.999
c0.666992 -46 1.16699 -92 1.5 -138s0.5 -92 0.5 -138c0.666992 -11.333 0.833984 -22.333 0.500977 -33s-0.5 -21.667 -0.5 -33c0 -14 1 -22.5 3 -25.5s9.66699 -4.83301 23 -5.5l52.5 -4c17.667 -1.33301 35.167 -2 52.5 -2c10 0 17.5 0.333008 22.5 1
s8.5 2.16699 10.5 4.5s3.16699 6 3.5 11s0.5 11.833 0.5 20.5c-0.666992 34.667 -1 69.334 -1 104.001s-0.333008 69.667 -1 105l0.5 22.5c0.333008 15 0.5 33.167 0.5 54.5v67.5v62.5z" />
    <glyph glyph-name="uni042A" unicode="&#x42a;" horiz-adv-x="666" 
d="M76 324c-0.666992 26 -0.498047 51.834 0.501953 77.501s0.833008 51.5 -0.5 77.5c-1.33301 12 -3.33301 19.167 -6 21.5s-10.334 3.83301 -23.001 4.5c-15.333 0.666992 -27.833 0.666992 -37.5 0s-17.334 0.333008 -23.001 3s-9.33398 8 -11.001 16
s-2.16699 21 -1.5 39c0.666992 9.33301 0.666992 18.333 0 27s-1 17.667 -1 27c0.666992 9.33301 2.33398 15.5 5.00098 18.5s8.66699 4.83301 18 5.5h37.5c19 0 40.167 -0.166992 63.5 -0.5l69 -1c22.667 -0.333008 40.667 -0.833008 54 -1.5c2 0.666992 5.16699 1 9.5 1
s8.5 -0.833008 12.5 -2.5s7.5 -4.5 10.5 -8.5s4.5 -9.33301 4.5 -16v-28v-39v-42v-38c0 -14.667 6.66699 -22 20 -22c24.667 0 49 -1 73 -3c34 -3.33301 65.333 -11.5 94 -24.5s54 -32.5 76 -58.5c21.333 -25.333 35 -52.333 41 -81s5.33301 -59 -2 -91
c-9.33301 -40 -26.166 -73.333 -50.499 -100s-55.833 -47.667 -94.5 -63c-27.333 -10.667 -54.5 -17 -81.5 -19s-54.5 -3.66699 -82.5 -5c-24.667 -1.33301 -49.334 -1.33301 -74.001 0l-74 4c-12 0.666992 -19 2 -21 4s-3 8.66699 -3 20
c-0.666992 32 -1.16699 63.667 -1.5 95s-0.833008 63 -1.5 95v12v28.5c0 11 0.166992 22.667 0.5 35s0.5 23.166 0.5 32.499zM302.002 136.001c4.66699 0.666992 10.167 1.16992 16.5 1.50293s12.833 1.16602 19.5 2.49902c5.33301 1.33301 10.833 3.33301 16.5 6
s10.167 6 13.5 10c12.667 13.333 21.167 27.666 25.5 42.999s3.5 32 -2.5 50c-10 32.667 -31.667 52 -65 58c-14 2.66699 -28 4.66699 -42 6c-11.333 1.33301 -18.5 0.666016 -21.5 -2.00098s-4.5 -10 -4.5 -22c-1.33301 -44 -1.33301 -88 0 -132
c0 -9.33301 1.16699 -15 3.5 -17s8.83301 -3.33301 19.5 -4h21z" />
    <glyph glyph-name="uni042B" unicode="&#x42b;" horiz-adv-x="823" 
d="M7 283c0.666992 24 1.16797 53.666 1.50098 88.999l1 104c0.333008 34 0.5 64 0.5 90v48c-0.666992 12 0.333008 19.333 3 22s10.334 4.33398 23.001 5.00098h23c12 0 25.333 -0.166992 40 -0.5l43 -1c14 -0.333008 24.667 -0.5 32 -0.5
c10.667 -0.666992 17 -1.66699 19 -3s3.66699 -7.33301 5 -18c1.33301 -22.667 1.5 -45.167 0.5 -67.5s-0.833008 -44.833 0.5 -67.5c0 -8.66699 0.333008 -15.5 1 -20.5s2 -8.66699 4 -11s5.33301 -4 10 -5s11.667 -2.16699 21 -3.5c6.66699 -0.666992 13.167 -1 19.5 -1
s12.833 -0.666992 19.5 -2c40 -6.66699 75 -20.334 105 -41.001s54 -50 72 -88c12 -25.333 19.667 -51 23 -77s1 -53 -7 -81c-7.33301 -26.667 -19.333 -51.5 -36 -74.5s-38.667 -39.833 -66 -50.5c-28 -11.333 -55.167 -18.166 -81.5 -20.499l-83.5 -7.5
c-3.33301 -0 -11.333 -0.166992 -24 -0.5s-27.334 -0.5 -44.001 -0.5s-33.334 -0.166992 -50.001 -0.5s-30 -0.833008 -40 -1.5c-15.333 -0.666992 -24.833 0.833008 -28.5 4.5s-5.5 13.167 -5.5 28.5c0 44 -0.166992 87.5 -0.5 130.5s-0.5 83.833 -0.5 122.5z
M194.001 166.999c0 -5.33301 1 -9.83789 3 -13.5049s5.66699 -5.5 11 -5.5c6.66699 0 14.834 0.166992 24.501 0.5s19.167 1.5 28.5 3.5s18.166 4.5 26.499 7.5s15.166 7.16699 20.499 12.5s9.5 12 12.5 20s5 16.333 6 25s0.833008 17.334 -0.5 26.001
s-3.66602 16.334 -6.99902 23.001s-9.5 12.834 -18.5 18.501s-18.833 10.334 -29.5 14.001s-21.667 6.33398 -33 8.00098s-21 2.16699 -29 1.5c-9.33301 -1.33301 -14.333 -6 -15 -14v-127zM543.001 614.994c0 9.33301 1.17188 15.834 3.50488 19.501
s8.16602 5.16699 17.499 4.5h62c20.667 0 41.334 -0.666992 62.001 -2c11.333 -0.666992 18.166 -2.5 20.499 -5.5s3.5 -10.5 3.5 -22.5c1.33301 -28 2.16602 -54.333 2.49902 -79s0.5 -51 0.5 -79v-194c0 -64.667 -0.666992 -129.334 -2 -194.001
c0 -20 0.166992 -34.5 0.5 -43.5s-1.33398 -15 -5.00098 -18s-10.334 -4.16699 -20.001 -3.5s-24.5 1 -44.5 1c-12.667 -0.666992 -25 -0.666992 -37 0s-24.333 1 -37 1c-12 0 -20 1.66699 -24 5s-6 11.333 -6 24v150.5c0 50.333 -0.333008 100.833 -1 151.5l1 30.5
c0.666992 20.333 1.16699 45.166 1.5 74.499s0.666016 60.333 0.999023 93s0.5 61.334 0.5 86.001z" />
    <glyph glyph-name="uni042C" unicode="&#x42c;" horiz-adv-x="594" 
d="M146 -2c-20 0.666992 -37.499 1.16992 -52.499 1.50293s-29.167 0.833008 -42.5 1.5c-10.667 0 -21 1 -31 3c-4.66699 1.33301 -8.5 3.5 -11.5 6.5s-3.83301 7.16699 -2.5 12.5c0 32 -0.166992 64.667 -0.5 98s-0.166016 66.333 0.500977 99v61.5v77v81.5v76v60v34
c0 3.33301 -0.166992 6.5 -0.5 9.5s-0.166016 6.16699 0.500977 9.5c2 13.333 10 20 24 20c20 -1.33301 40 -2.33301 60 -3s40 -1.66699 60 -3c9.33301 -0.666992 16.666 -1.33398 21.999 -2.00098s9.16602 -2.33398 11.499 -5.00098s3.83301 -6.66699 4.5 -12
s1 -12.666 1 -21.999c0.666992 -22.667 0.833984 -42.5 0.500977 -59.5s0.166992 -36.833 1.5 -59.5c0 -12 1 -19.333 3 -22s8.66699 -4.33398 20 -5.00098c14.667 -1.33301 31 -1.83301 49 -1.5s34.333 -0.166992 49 -1.5c56 -4 103.333 -25.333 142 -64
c32 -32.667 50 -73.334 54 -122.001c3.33301 -55.333 -9.33398 -107.333 -38.001 -156c-14.667 -24 -32.334 -44.167 -53.001 -60.5s-45 -28.166 -73 -35.499c-34.667 -9.33301 -69 -15.333 -103 -18s-65.667 -2.33398 -95 0.999023zM191.001 251.003
c1.33301 -6.66699 1.99902 -16.332 1.99902 -28.999c0 -6 0.166992 -12.167 0.5 -18.5s0.5 -12.833 0.5 -19.5c0.666992 -17.333 2.83398 -28 6.50098 -32s14.167 -5.33301 31.5 -4c10 0.666992 20 2.66699 30 6c9.33301 2.66699 18.666 6 27.999 10s17.833 9.33301 25.5 16
s13.834 14.5 18.501 23.5s7 20.167 7 33.5c0 12.667 -2.66699 23 -8 31s-12.5 14.5 -21.5 19.5s-19 8.5 -30 10.5s-22.5 3.66699 -34.5 5c-0.666992 0.666992 -2 1 -4 1c-12.667 1.33301 -22.5 2 -29.5 2s-12.167 -1.66699 -15.5 -5s-5.33301 -8.83301 -6 -16.5
s-1 -18.834 -1 -33.501z" />
    <glyph glyph-name="uni042D" unicode="&#x42d;" horiz-adv-x="719" 
d="M624 300c0.666992 -26.667 -2.32422 -53.501 -8.99121 -80.501s-17 -53.167 -31 -78.5s-32 -46 -54 -62c-22.667 -16.667 -45.5 -31.5 -68.5 -44.5s-48.167 -23.833 -75.5 -32.5c-48.667 -15.333 -95.834 -19.166 -141.501 -11.499s-90.834 21.167 -135.501 40.5
c-34.667 14.667 -66.334 35.334 -95.001 62.001c-3.33301 3.33301 -6.16602 6.5 -8.49902 9.5s-2.5 7.16699 -0.5 12.5l27 65.5l27 64.5c3.33301 8.66699 9 15 17 19c12 6 23.333 3.66699 34 -7c9.33301 -9.33301 19 -18.333 29 -27s20.667 -16.667 32 -24
c32.667 -22 66 -32.833 100 -32.5s68.333 8.16602 103 23.499c27.333 12 45.666 33.333 54.999 64c4 13.333 -0.666992 20 -14 20c-8.66699 0 -17.334 -0.166992 -26.001 -0.5s-17.667 -0.5 -27 -0.5h-17c-6 0 -11.667 0.333008 -17 1c-13.333 0 -20 7 -20 21
c0 7.33301 -0.666992 14.333 -2 21s-2 13.667 -2 21c-0.666992 14 1.5 23.5 6.5 28.5s14.5 7.83301 28.5 8.5c11.333 0.666992 22.833 1 34.5 1s23.167 0.333008 34.5 1c9.33301 1.33301 14.666 3.16602 15.999 5.49902s0.666016 7.83301 -2.00098 16.5
c-6.66699 19.333 -17.5 34 -32.5 44s-31.5 17.667 -49.5 23c-61.333 17.333 -119 11.333 -173 -18c-11.333 -6 -19.5 -7.83301 -24.5 -5.5s-10.167 7.83301 -15.5 16.5l-24.5 39l-23.5 39c-2 3.33301 -4 6.5 -6 9.5s-4.33301 5.83301 -7 8.5
c-6.66699 8 -9.83398 13.333 -9.50098 16s4.16602 7.33398 11.499 14.001c52 44 111.333 67 178 69c40.667 2 81 0 121 -6c37.333 -5.33301 70.5 -17.833 99.5 -37.5s55.167 -43.5 78.5 -71.5c29.333 -34.667 50.666 -72.167 63.999 -112.5s18.333 -84.5 15 -132.5z" />
    <glyph glyph-name="uni042E" unicode="&#x42e;" horiz-adv-x="969" 
d="M184 23c-0.666992 -10.667 -2.33008 -17.4971 -4.99707 -20.4971s-9 -4.5 -19 -4.5c-19.333 0.666992 -39 1 -59 1s-39.667 0.666992 -59 2c-8.66699 0 -15.334 0.333008 -20.001 1s-8 2.16699 -10 4.5s-3.16699 5.66602 -3.5 9.99902s-0.5 10.5 -0.5 18.5
c-1.33301 52.667 -1.5 105 -0.5 157s0.833008 104.333 -0.5 157c-0.666992 21.333 -1.16699 42.833 -1.5 64.5s0.166992 43.167 1.5 64.5c1.33301 24.667 2 48.167 2 70.5s-0.666992 46.166 -2 71.499c-0.666992 9.33301 -0.166992 15.333 1.5 18s6.16699 4 13.5 4
c24 0 47 -0.166992 69 -0.5s45 -0.5 69 -0.5c10.667 -1.33301 16 -7 16 -17c0.666992 -9.33301 1 -18.333 1 -27v-27c0.666992 -24.667 0.666992 -48.167 0 -70.5s-0.333984 -46.166 0.999023 -71.499c0 -12.667 1.16699 -20 3.5 -22s9.5 -3.66699 21.5 -5
c9.33301 -0.666992 18.333 -0.833984 27 -0.500977s17.334 0.166016 26.001 -0.500977c11.333 -0.666992 19 4.66602 23 15.999c3.33301 7.33301 6.5 14.833 9.5 22.5s6.16699 15.167 9.5 22.5c22.667 52 54.334 92.333 95.001 121s88 49 142 61c44 10 85 9.5 123 -1.5
s73.667 -30.5 107 -58.5c23.333 -20.667 43.5 -43.667 60.5 -69s29.5 -54 37.5 -86c6 -24 11 -48 15 -72s4.66699 -48.667 2 -74c-3.33301 -29.333 -9 -57.166 -17 -83.499s-20.667 -51.833 -38 -76.5c-12.667 -17.333 -26 -34 -40 -50s-30.333 -29.667 -49 -41
c-35.333 -21.333 -71.833 -35.166 -109.5 -41.499s-76.834 -8.5 -117.501 -6.5c-28 2 -54.333 8 -79 18s-48.667 22.667 -72 38c-22 14.667 -39.5 32.667 -52.5 54s-23.167 44.333 -30.5 69c-4.66699 14.667 -8.5 29.334 -11.5 44.001l-9.5 45
c-2.66699 11.333 -9.33398 17.333 -20.001 18c-12 0.666992 -21.333 0.666992 -28 0s-11.834 -2.83398 -15.501 -6.50098s-6 -8.83398 -7 -15.501s-1.5 -16 -1.5 -28c0 -7.33301 0.166992 -20 0.5 -38s0.5 -37.167 0.5 -57.5s0.166992 -40 0.5 -59s0.5 -32.833 0.5 -41.5z
M442.004 324.003c0 -4 -0.166992 -7.99902 -0.5 -11.999s-0.5 -7.66699 -0.5 -11c0 -22.667 5 -42.5 15 -59.5s22.167 -31.333 36.5 -43s29.166 -20.334 44.499 -26.001s28 -8.5 38 -8.5c48 0 85 15.833 111 47.5s39 73.5 39 125.5c0 8 -0.666992 19.167 -2 33.5
s-5.83301 29 -13.5 44s-19.167 28.667 -34.5 41s-37 21.166 -65 26.499c-40.667 6.66699 -75.5 -0.666016 -104.5 -21.999s-48.833 -51.333 -59.5 -90c-1.33301 -4 -2.16602 -8.5 -2.49902 -13.5l-1 -15c-0.333008 -5 -0.5 -9.16699 -0.5 -12.5v-5z" />
    <glyph glyph-name="uni042F" unicode="&#x42f;" horiz-adv-x="687" 
d="M571 34l-0.00195312 -23c-1.33301 -13.333 -8.33301 -19.333 -21 -18h-127c-12 0.666992 -20 3 -24 7s-6 11.667 -6 23v54.5c0 18.333 0.333008 36.5 1 54.5c0 11.333 0.166992 22.833 0.5 34.5s0.5 23.5 0.5 35.5c0 10 -1.16699 16 -3.5 18s-8.5 3.66699 -18.5 5
c-20 4 -35.333 -2.66699 -46 -20l-57.5 -85c-19.667 -28 -38.167 -56.667 -55.5 -86c-4.66699 -8 -8.83398 -14.5 -12.501 -19.5s-8 -9.16699 -13 -12.5s-11.5 -5.66602 -19.5 -6.99902s-18.333 -2 -31 -2h-34c-13.333 0 -26 0.333008 -38 1c-14 0 -28.667 0.333008 -44 1
c-4 1.33301 -7.33301 3 -10 5c-5.33301 4 -5.66602 9.33301 -0.999023 16c9.33301 13.333 19.333 26.5 30 39.5s21 26.5 31 40.5l48 67.5l48 68.5c6 9.33301 8.83301 15.5 8.5 18.5s-5.16602 6.5 -14.499 10.5c-23.333 10.667 -41.666 25.167 -54.999 43.5
s-24.666 38.5 -33.999 60.5c-9.33301 23.333 -15.5 46.833 -18.5 70.5s-0.833008 48.167 6.5 73.5c3.33301 12 8.66602 22.833 15.999 32.5s15.666 18.5 24.999 26.5c32.667 27.333 70.334 46.333 113.001 57c30 7.33301 59 11.166 87 11.499s55.333 0.833008 82 1.5
c11.333 -0.666992 25.5 -1 42.5 -1s33.333 0.166992 49 0.5s29.167 0.5 40.5 0.5h19c14 -2 23.333 -5.66699 28 -11s7 -15 7 -29v-48v-87c0 -34 0.166992 -71 0.5 -111s0.5 -79.667 0.5 -119v-111.5v-87.5zM406.998 438c-0.666992 2.66699 -0.99707 6.83301 -0.99707 12.5
s-0.333008 11.5 -1 17.5c-1.33301 10 -6 15.333 -14 16c-10 0.666992 -24.5 1.5 -43.5 2.5s-37.667 0.666992 -56 -1s-34.5 -5.66699 -48.5 -12s-21.333 -16.5 -22 -30.5c-0.666992 -24.667 5 -42.5 17 -53.5s25.667 -18.167 41 -21.5s30.166 -4.5 44.499 -3.5
s24.166 1.16699 29.499 0.5c14.667 -1.33301 25.5 -1 32.5 1s11.833 5.66699 14.5 11s4.16699 13 4.5 23s1.16602 22.667 2.49902 38z" />
    <glyph glyph-name="uni0430" unicode="&#x430;" horiz-adv-x="760" 
d="M259 135c-7.33301 0 -12.834 -0.329102 -16.501 -0.996094s-6.66699 -1.83398 -9 -3.50098s-4.33301 -4.5 -6 -8.5s-3.5 -9.33301 -5.5 -16c-3.33301 -12 -7 -23.833 -11 -35.5s-7.66699 -23.5 -11 -35.5c-4.66699 -22.667 -18 -34 -40 -34
c-24 -1.33301 -47.833 -2 -71.5 -2s-47.5 -0.333008 -71.5 -1c-10.667 0 -14.334 5.33301 -11.001 16l47.5 144.5l46.5 145.5c9.33301 29.333 18 58.5 26 87.5s16.667 58.167 26 87.5l20.5 60c7 20 13.5 40.333 19.5 61c4 13.333 10 22.666 18 27.999s18 8 30 8
c14 -0.666992 27.833 -1.16699 41.5 -1.5s27.167 -0.5 40.5 -0.5c15.333 0 30.666 0.166992 45.999 0.5s30.666 0.5 45.999 0.5c8.66699 0 17.167 0.166992 25.5 0.5s16.833 0.5 25.5 0.5c8 0 14.333 -0.333008 19 -1s8.33398 -2 11.001 -4s4.83398 -5.16699 6.50098 -9.5
s3.5 -10.5 5.5 -18.5l40 -155.5l41 -155.5l32.5 -116l33.5 -115c4 -16 6.83301 -28.167 8.5 -36.5s1.33398 -14.5 -0.999023 -18.5s-7 -6.16699 -14 -6.5s-17.167 -0.166016 -30.5 0.500977c-22.667 0 -45.167 0.333008 -67.5 1l-67.5 2c-12 0.666992 -19 6.66699 -21 18
c-1.33301 10 -3 20.167 -5 30.5l-6 30.5c-1.33301 5.33301 -2.66602 10.333 -3.99902 15s-2.66602 9.66699 -3.99902 15c-3.33301 13.333 -11.333 20 -24 20c-8.66699 -0.666992 -17.167 -0.833984 -25.5 -0.500977s-16.5 0.5 -24.5 0.5l-12 0.5
c-8 0.333008 -17.667 0.666016 -29 0.999023s-23.333 0.666016 -36 0.999023s-23.334 0.5 -32.001 0.5zM359.999 481.004c-1.33301 2 -3.33301 -0.166016 -6 -6.49902s-4.66699 -10.5 -6 -12.5l-27 -81l-23 -65l-23 -66c-3.33301 -9.33301 -3.83301 -15.333 -1.5 -18
s8.5 -4 18.5 -4c16 -0.666992 32 -1 48 -1h48c12.667 0.666992 20 2.16699 22 4.5s1.33301 10.166 -2 23.499c-5.33301 27.333 -11 54.333 -17 81l-18 81c-1.33301 4.66699 -2.5 10.667 -3.5 18s-2.16699 14.333 -3.5 21l-3.5 17.5c-1 5 -1.83301 7.5 -2.5 7.5z" />
    <glyph glyph-name="uni0431" unicode="&#x431;" horiz-adv-x="635" 
d="M156 -12c-20.667 0.666992 -41.167 1.00488 -61.5 1.00488s-41.166 0.666992 -62.499 2c-11.333 0.666992 -18.666 2.66699 -21.999 6s-5 10.666 -5 21.999c0.666992 22.667 1.16699 45.167 1.5 67.5s0.833008 45.166 1.5 68.499v135v246c0 29.333 -1 59 -3 89
c0 7.33301 1.33301 12.166 4 14.499s7.33398 3.5 14.001 3.5h38.5h60.5c22.667 0 46.5 -0.166992 71.5 -0.5s49.333 -0.5 73 -0.5h65.5c20 0 35.667 0.333008 47 1c7.33301 0.666992 14.5 1.16699 21.5 1.5s14.167 0.166016 21.5 -0.500977
c12 -0.666992 20.333 -3.33398 25 -8.00098s6.66699 -13.334 6 -26.001c-0.666992 -16.667 -1.66699 -32.5 -3 -47.5s-2.66602 -30.833 -3.99902 -47.5c-0.666992 -5.33301 -1.33398 -9.66602 -2.00098 -12.999s-1.83398 -5.66602 -3.50098 -6.99902
s-4.16699 -2.16602 -7.5 -2.49902s-8 -0.5 -14 -0.5c-23.333 -0.666992 -46.5 -0.833984 -69.5 -0.500977s-46.167 0.166016 -69.5 -0.500977c-14.667 0 -29.667 -0.166992 -45 -0.5s-30 -0.5 -44 -0.5c-10.667 0 -16.667 -5.33301 -18 -16
c-1.33301 -11.333 -1.5 -22.333 -0.5 -33s1.16699 -22 0.5 -34c0 -6 1.66699 -10 5 -12s7.66602 -3 12.999 -3c18.667 -2 37.167 -2.83301 55.5 -2.5s37.166 0.5 56.499 0.5c19.333 -0.666992 38.333 -3.16699 57 -7.5s37.334 -9.5 56.001 -15.5
c23.333 -8 43.5 -19.667 60.5 -35s31.167 -33.666 42.5 -54.999c9.33301 -17.333 13.666 -34.333 12.999 -51s-3 -37.334 -7 -62.001c-6 -37.333 -18.667 -67.5 -38 -90.5s-41.5 -40.833 -66.5 -53.5s-50.833 -21 -77.5 -25s-51 -6 -73 -6h-21.5h-39h-37
c-11 0 -16.5 -0.333008 -16.5 -1zM233 256.005c-5.33301 1.33301 -11.001 1.66602 -17.001 0.999023s-12.333 -0.666992 -19 0c-13.333 1.33301 -20.333 -4.33398 -21 -17.001c0 -15.333 -0.166992 -30.166 -0.5 -44.499s-0.5 -29.166 -0.5 -44.499c0 -11.333 6 -18 18 -20
c38 -8 74.667 -4.33301 110 11c9.33301 4 16.833 9.66699 22.5 17s9.5 15.333 11.5 24s1.83301 17.167 -0.5 25.5s-7.16602 15.833 -14.499 22.5c-6.66699 5.33301 -14.167 9.5 -22.5 12.5s-16.833 5.5 -25.5 7.5c-6 2 -12.5 3.33301 -19.5 4s-14.167 1 -21.5 1z" />
    <glyph glyph-name="uni0432" unicode="&#x432;" horiz-adv-x="646" 
d="M429 377c9.33301 -3.33301 17.6611 -6.66992 24.9941 -10.0029l22 -10c6 -2.66699 12.667 -8 20 -16s14.166 -18.667 20.499 -32s11.666 -29.5 15.999 -48.5s6.5 -40.5 6.5 -64.5c0 -19.333 -4.66699 -38.666 -14 -57.999s-21.166 -37.5 -35.499 -54.5
s-30.166 -32 -47.499 -45s-34 -22.5 -50 -28.5c-24 -9.33301 -48.5 -15.666 -73.5 -18.999s-50.167 -5.33301 -75.5 -6c-1.33301 0 -2.66602 0.166992 -3.99902 0.5s-2.66602 0.166016 -3.99902 -0.500977c-11.333 -1.33301 -27.833 -1.83301 -49.5 -1.5
s-43.5 0.833008 -65.5 1.5c-26 0.666992 -53.333 1.33398 -82 2.00098c-4.66699 0 -8.66699 0.666992 -12 2s-6.33301 3 -9 5s-4.66699 5 -6 9c-3.33301 11.333 -5 22.333 -5 33c-0.666992 52.667 -1 105.167 -1 157.5v157.5c0 29.333 0.166992 58.333 0.5 87
s0.5 57.667 0.5 87c0.666992 19.333 0.833984 38.5 0.500977 57.5s-1.16602 38.167 -2.49902 57.5c0 10 4 15 12 15c42.667 0.666992 82.834 1.33398 120.501 2.00098s77.834 0.666992 120.501 0c15.333 0 30.5 -1.66699 45.5 -5s30.167 -7 45.5 -11
c19.333 -5.33301 37 -13.833 53 -25.5s30.667 -25.167 44 -40.5c8 -10 13.667 -22.333 17 -37c2.66699 -13.333 4.66699 -26.5 6 -39.5s1.5 -25.5 0.5 -37.5s-3.5 -23.833 -7.5 -35.5s-10.333 -22.834 -19 -33.501c-1.33301 -2 -3 -4.16699 -5 -6.5
s-4.66699 -5.16602 -8 -8.49902zM185.995 204.996l-0.00292969 -25.999c-1.33301 -13.333 -2 -23.333 -2 -30s1.5 -11.334 4.5 -14.001s7.83301 -4 14.5 -4s16 -0.333008 28 -1c20 -1.33301 39 1.33398 57 8.00098s35 15.667 51 27c26.667 18 31.334 41.333 14.001 70
c-6.66699 10 -16 19 -28 27c-19.333 12.667 -39.166 19.167 -59.499 19.5s-41.166 -0.833984 -62.499 -3.50098c-6.66699 -1.33301 -11 -3.66602 -13 -6.99902s-3 -8 -3 -14c0 -4.66699 -0.166992 -9.83398 -0.5 -15.501s-0.5 -11.167 -0.5 -16.5v-20zM182.992 477.997
l0.00292969 -41.501c0 -9.66699 2 -16.167 6 -19.5s10.667 -4.66602 20 -3.99902s23.666 2 42.999 4c8 1.33301 15.667 3.5 23 6.5s14.666 6.5 21.999 10.5c9.33301 5.33301 16 12.5 20 21.5s5.66699 18.833 5 29.5s-4.33398 19.167 -11.001 25.5s-14.667 10.833 -24 13.5
c-8 2 -16.167 3.33301 -24.5 4l-25.5 2c-8 0.666992 -16 0.666992 -24 0s-15.667 -1 -23 -1c-1.33301 -8.66699 -2.5 -17.167 -3.5 -25.5s-2.16699 -16.833 -3.5 -25.5z" />
    <glyph glyph-name="uni0433" unicode="&#x433;" horiz-adv-x="542" 
d="M8 293l0.000976562 49.998c0 19.333 -0.166992 39.666 -0.5 60.999l-1 64c-0.333008 21.333 -0.666016 40.833 -0.999023 58.5s-0.666016 32.5 -0.999023 44.5s-0.5 19.667 -0.5 23v15c0 4.66699 0.333008 9.66699 1 15c0 11.333 6.33301 17.333 19 18
c14 0 32.167 0.166992 54.5 0.5s46.666 0.5 72.999 0.5h81h77.5c24 0 45.167 -0.166992 63.5 -0.5s31.166 -0.5 38.499 -0.5c12 0 19.333 -1.33301 22 -4s4.66699 -10 6 -22c2 -20.667 2.66699 -40.167 2 -58.5s0 -37.833 2 -58.5
c1.33301 -10.667 0.666016 -17.834 -2.00098 -21.501s-9 -6.16699 -19 -7.5c-4 -0.666992 -15 -1.16699 -33 -1.5s-38.5 -0.5 -61.5 -0.5s-46 -0.166992 -69 -0.5s-41.833 -0.5 -56.5 -0.5c-10.667 0 -16 -5.66699 -16 -17c0 -2.66699 -0.166992 -5.16699 -0.5 -7.5
s-0.5 -4.83301 -0.5 -7.5c0.666992 -50 0.666992 -102 0 -156s-0.333984 -106 0.999023 -156c0.666992 -15.333 0.833984 -28.666 0.500977 -39.999s-0.166016 -24.666 0.500977 -39.999c0.666992 -9.33301 0 -19.666 -2 -30.999c-2 -10 -8.33301 -15 -19 -15
c-25.333 -1.33301 -49.5 -2.16602 -72.5 -2.49902s-46.833 -0.833008 -71.5 -1.5c-5.33301 0 -8.83301 1.33301 -10.5 4s-2.83398 6 -3.50098 10c-0.666992 4.66699 -1 9.16699 -1 13.5v13.5v130c0 41.333 -0.333008 84.333 -1 129h1z" />
    <glyph glyph-name="uni0434" unicode="&#x434;" horiz-adv-x="792" 
d="M570 179c0.666992 -13.333 2.16602 -21.4941 4.49902 -24.4941s10.166 -4.83301 23.499 -5.5c8.66699 -0.666992 17.167 -1 25.5 -1s16.5 -0.333008 24.5 -1c10 0 17 -1.33301 21 -4s7 -8.66699 9 -18c0.666992 -4 1 -8 1 -12v-11c0 -22 0.166992 -44 0.5 -66
s0.5 -44 0.5 -66v-11.5c0 -3.66699 -0.333008 -7.5 -1 -11.5c-2 -11.333 -9.33301 -17 -22 -17c-14 0 -28.167 -0.166992 -42.5 -0.5s-28.5 -0.5 -42.5 -0.5c-13.333 0 -19 6.66699 -17 20v3c0 11.333 -0.333008 20 -1 26s-2.33398 10.5 -5.00098 13.5s-7 4.83301 -13 5.5
s-14.333 1 -25 1c-8 0 -22 0.166992 -42 0.5s-43 0.666016 -69 0.999023s-53.5 0.666016 -82.5 0.999023s-56.333 0.5 -82 0.5h-67.5c-19.333 0 -32.333 -0.333008 -39 -1c-2.66699 -0.666992 -5.33398 -2.66699 -8.00098 -6s-4.33398 -6.66602 -5.00098 -9.99902
c-1.33301 -7.33301 -1.83301 -16.333 -1.5 -27s0.5 -19.667 0.5 -27c0 -4 -0.833008 -7.66699 -2.5 -11s-5.16699 -5 -10.5 -5c-17.333 -0.666992 -35.666 -1.33398 -54.999 -2.00098s-37.666 -0.666992 -54.999 0c-9.33301 0 -15.333 1.66699 -18 5
s-4.33398 9.66602 -5.00098 18.999c-1.33301 29.333 -1.66602 58.333 -0.999023 87s0.333984 57.667 -0.999023 87c-0.666992 9.33301 0.166016 15.166 2.49902 17.499s8.16602 2.83301 17.499 1.5c14.667 -2 26.667 3.33301 36 16l27.5 35
c9 11.333 17.167 23.666 24.5 36.999c14.667 26 27.834 52.5 39.501 79.5s20.834 55.167 27.501 84.5c1.33301 6 4 16.5 8 31.5s8 31.333 12 49s7.33301 34.834 10 51.501s4 30 4 40c-0.666992 13.333 -0.166992 25.5 1.5 36.5s2.83398 23.167 3.50098 36.5
c0.666992 12.667 7.33398 18.667 20.001 18c32.667 0 65 0.166992 97 0.5s64 0.166016 96 -0.500977c48 0 95.667 -1 143 -3c11.333 -0.666992 18.166 -2.33398 20.499 -5.00098s3.5 -9.66699 3.5 -21c0 -12.667 0.166992 -30.5 0.5 -53.5s0.833008 -48.667 1.5 -77l2 -88.5
c0.666992 -30.667 1.16699 -60 1.5 -88s0.833008 -53.5 1.5 -76.5s1.33398 -40.5 2.00098 -52.5zM399.999 314.006l0.00195312 18.0039c0 12 -0.333008 26.667 -1 44s-1.16699 35.666 -1.5 54.999s-0.833008 36.333 -1.5 51c0 3.33301 -0.666992 7 -2 11
s-2.66602 6 -3.99902 6c-7.33301 0.666992 -14.833 1 -22.5 1s-15.167 -0.666992 -22.5 -2c-6 -1.33301 -8.83301 -4.33301 -8.5 -9s0.166016 -9.33398 -0.500977 -14.001c-1.33301 -10.667 -2.33301 -20.334 -3 -29.001s-1.66699 -18.667 -3 -30
c-5.33301 -43.333 -14.5 -86 -27.5 -128s-30.167 -82.333 -51.5 -121c-0.666992 -2 -1.33398 -3.83301 -2.00098 -5.5s-1.33398 -3.5 -2.00098 -5.5c-2 -4 -2.16699 -7.16699 -0.5 -9.5s4.5 -3.5 8.5 -3.5c20.667 0 43.167 0.333008 67.5 1s46.833 1.33398 67.5 2.00098
c11.333 0 17 5.66699 17 17v17.5c0 5.66699 -0.333008 11.5 -1 17.5c-1.33301 19.333 -2.33301 38.666 -3 57.999s-1.66699 38.666 -3 57.999z" />
    </font>
</defs>
</svg>
